{"asset":{"version":"2.0","generator":"Blockbench 4.9.4 glTF exporter"},"scenes":[{"nodes":[7,18,29,37,45,56],"name":"blockbench_export"}],"scene":0,"nodes":[{"name":"s"},{"name":"t"},{"name":"u"},{"name":"d"},{"name":"i"},{"name":"o"},{"name":"studio","children":[0,1,2,3,4,5]},{"name":"studio","mesh":0,"children":[6],"skin":0},{"name":"a"},{"name":"n"},{"name":"d"},{"name":"r"},{"name":"o"},{"name":"m"},{"name":"e"},{"name":"d"},{"name":"e"},{"name":"andromede","children":[8,9,10,11,12,13,14,15,16]},{"rotation":[-0.7071067811865475,0,0,0.7071067811865476],"name":"andromede","mesh":1,"children":[17],"skin":1},{"name":"a"},{"name":"n"},{"name":"d"},{"name":"r"},{"name":"o"},{"name":"m"},{"name":"e"},{"name":"d"},{"name":"e"},{"name":"andromede","children":[19,20,21,22,23,24,25,26,27]},{"name":"andromede","mesh":2,"children":[28],"skin":2},{"name":"s"},{"name":"t"},{"name":"u"},{"name":"d"},{"name":"i"},{"name":"o"},{"name":"studio","children":[30,31,32,33,34,35]},{"rotation":[-0.7071067811865475,0,0,0.7071067811865476],"name":"studio","mesh":3,"children":[36],"skin":3},{"name":"s"},{"name":"t"},{"name":"u"},{"name":"d"},{"name":"i"},{"name":"o"},{"name":"studio","children":[38,39,40,41,42,43]},{"name":"studio","mesh":4,"children":[44],"skin":4},{"name":"a"},{"name":"n"},{"name":"d"},{"name":"r"},{"name":"o"},{"name":"m"},{"name":"e"},{"name":"d"},{"name":"e"},{"name":"andromede","children":[46,47,48,49,50,51,52,53,54]},{"name":"andromede","mesh":5,"children":[55],"skin":5}],"bufferViews":[{"buffer":0,"byteOffset":0,"byteLength":4896,"target":34962,"byteStride":12},{"buffer":0,"byteOffset":4896,"byteLength":4896,"target":34962,"byteStride":12},{"buffer":0,"byteOffset":9792,"byteLength":3264,"target":34962,"byteStride":8},{"buffer":0,"byteOffset":13056,"byteLength":3264,"target":34962,"byteStride":8},{"buffer":0,"byteOffset":16320,"byteLength":6528,"target":34962,"byteStride":16},{"buffer":0,"byteOffset":22848,"byteLength":900,"target":34963},{"buffer":0,"byteOffset":23748,"byteLength":8640,"target":34962,"byteStride":12},{"buffer":0,"byteOffset":32388,"byteLength":8640,"target":34962,"byteStride":12},{"buffer":0,"byteOffset":41028,"byteLength":5760,"target":34962,"byteStride":8},{"buffer":0,"byteOffset":46788,"byteLength":5760,"target":34962,"byteStride":8},{"buffer":0,"byteOffset":52548,"byteLength":11520,"target":34962,"byteStride":16},{"buffer":0,"byteOffset":64068,"byteLength":1560,"target":34963},{"buffer":0,"byteOffset":65628,"byteLength":8640,"target":34962,"byteStride":12},{"buffer":0,"byteOffset":74268,"byteLength":8640,"target":34962,"byteStride":12},{"buffer":0,"byteOffset":82908,"byteLength":5760,"target":34962,"byteStride":8},{"buffer":0,"byteOffset":88668,"byteLength":5760,"target":34962,"byteStride":8},{"buffer":0,"byteOffset":94428,"byteLength":11520,"target":34962,"byteStride":16},{"buffer":0,"byteOffset":105948,"byteLength":1560,"target":34963},{"buffer":0,"byteOffset":107508,"byteLength":4896,"target":34962,"byteStride":12},{"buffer":0,"byteOffset":112404,"byteLength":4896,"target":34962,"byteStride":12},{"buffer":0,"byteOffset":117300,"byteLength":3264,"target":34962,"byteStride":8},{"buffer":0,"byteOffset":120564,"byteLength":3264,"target":34962,"byteStride":8},{"buffer":0,"byteOffset":123828,"byteLength":6528,"target":34962,"byteStride":16},{"buffer":0,"byteOffset":130356,"byteLength":900,"target":34963},{"buffer":0,"byteOffset":131256,"byteLength":4896,"target":34962,"byteStride":12},{"buffer":0,"byteOffset":136152,"byteLength":4896,"target":34962,"byteStride":12},{"buffer":0,"byteOffset":141048,"byteLength":3264,"target":34962,"byteStride":8},{"buffer":0,"byteOffset":144312,"byteLength":3264,"target":34962,"byteStride":8},{"buffer":0,"byteOffset":147576,"byteLength":6528,"target":34962,"byteStride":16},{"buffer":0,"byteOffset":154104,"byteLength":900,"target":34963},{"buffer":0,"byteOffset":155004,"byteLength":8640,"target":34962,"byteStride":12},{"buffer":0,"byteOffset":163644,"byteLength":8640,"target":34962,"byteStride":12},{"buffer":0,"byteOffset":172284,"byteLength":5760,"target":34962,"byteStride":8},{"buffer":0,"byteOffset":178044,"byteLength":5760,"target":34962,"byteStride":8},{"buffer":0,"byteOffset":183804,"byteLength":11520,"target":34962,"byteStride":16},{"buffer":0,"byteOffset":195324,"byteLength":1560,"target":34963},{"buffer":0,"byteOffset":196884,"byteLength":448},{"buffer":0,"byteOffset":197332,"byteLength":640},{"buffer":0,"byteOffset":197972,"byteLength":640},{"buffer":0,"byteOffset":198612,"byteLength":448},{"buffer":0,"byteOffset":199060,"byteLength":448},{"buffer":0,"byteOffset":199508,"byteLength":640}],"buffers":[{"byteLength":200148,"uri":"data:application/octet-stream;base64,"}],"accessors":[{"bufferView":0,"componentType":5126,"count":408,"max":[5.5,2.75,0.8125],"min":[-5.5,0,-0.8125],"type":"VEC3"},{"bufferView":1,"componentType":5126,"count":408,"max":[1,1,1],"min":[-1,-1,-1],"type":"VEC3"},{"bufferView":2,"componentType":5126,"count":408,"max":[0.9765625,0.625],"min":[0,0],"type":"VEC2"},{"bufferView":3,"componentType":5123,"count":408,"max":[0,6,0,0],"min":[0,1,0,0],"type":"VEC4"},{"bufferView":4,"componentType":5126,"count":408,"max":[0,1,0,0],"min":[0,1,0,0],"type":"VEC4"},{"bufferView":5,"componentType":5123,"count":450,"max":[407],"min":[8],"type":"SCALAR"},{"bufferView":6,"componentType":5126,"count":720,"max":[7.125,-0.84375,2.21875],"min":[-7.125,-4.96875,-0.5],"type":"VEC3"},{"bufferView":7,"componentType":5126,"count":720,"max":[1,1,1],"min":[-1,-1,-1],"type":"VEC3"},{"bufferView":8,"componentType":5126,"count":720,"max":[0.9765625,0.625],"min":[0,0],"type":"VEC2"},{"bufferView":9,"componentType":5123,"count":720,"max":[0,9,0,0],"min":[0,1,0,0],"type":"VEC4"},{"bufferView":10,"componentType":5126,"count":720,"max":[0,1,0,0],"min":[0,1,0,0],"type":"VEC4"},{"bufferView":11,"componentType":5123,"count":780,"max":[719],"min":[8],"type":"SCALAR"},{"bufferView":12,"componentType":5126,"count":720,"max":[9.5,2.75,0.8125],"min":[-9.5,0,-0.8125],"type":"VEC3"},{"bufferView":13,"componentType":5126,"count":720,"max":[1,1,1],"min":[-1,-1,-1],"type":"VEC3"},{"bufferView":14,"componentType":5126,"count":720,"max":[0.9765625,0.625],"min":[0,0],"type":"VEC2"},{"bufferView":15,"componentType":5123,"count":720,"max":[0,9,0,0],"min":[0,1,0,0],"type":"VEC4"},{"bufferView":16,"componentType":5126,"count":720,"max":[0,1,0,0],"min":[0,1,0,0],"type":"VEC4"},{"bufferView":17,"componentType":5123,"count":780,"max":[719],"min":[8],"type":"SCALAR"},{"bufferView":18,"componentType":5126,"count":408,"max":[4.125,-0.84375,2.21875],"min":[-4.125,-4.96875,-0.5],"type":"VEC3"},{"bufferView":19,"componentType":5126,"count":408,"max":[1,1,1],"min":[-1,-1,-1],"type":"VEC3"},{"bufferView":20,"componentType":5126,"count":408,"max":[0.9765625,0.625],"min":[0,0],"type":"VEC2"},{"bufferView":21,"componentType":5123,"count":408,"max":[0,6,0,0],"min":[0,1,0,0],"type":"VEC4"},{"bufferView":22,"componentType":5126,"count":408,"max":[0,1,0,0],"min":[0,1,0,0],"type":"VEC4"},{"bufferView":23,"componentType":5123,"count":450,"max":[407],"min":[8],"type":"SCALAR"},{"bufferView":24,"componentType":5126,"count":408,"max":[1.9249999523162842,0,0],"min":[-1.9249999523162842,-0.9624999761581421,-0.4375],"type":"VEC3"},{"bufferView":25,"componentType":5126,"count":408,"max":[1,1,1],"min":[-1,-1,-1],"type":"VEC3"},{"bufferView":26,"componentType":5126,"count":408,"max":[0.9765625,0.625],"min":[0,0],"type":"VEC2"},{"bufferView":27,"componentType":5123,"count":408,"max":[0,6,0,0],"min":[0,1,0,0],"type":"VEC4"},{"bufferView":28,"componentType":5126,"count":408,"max":[0,1,0,0],"min":[0,1,0,0],"type":"VEC4"},{"bufferView":29,"componentType":5123,"count":450,"max":[407],"min":[8],"type":"SCALAR"},{"bufferView":30,"componentType":5126,"count":720,"max":[3.325000047683716,0,0],"min":[-3.325000047683716,-0.9624999761581421,-0.4375],"type":"VEC3"},{"bufferView":31,"componentType":5126,"count":720,"max":[1,1,1],"min":[-1,-1,-1],"type":"VEC3"},{"bufferView":32,"componentType":5126,"count":720,"max":[0.9765625,0.625],"min":[0,0],"type":"VEC2"},{"bufferView":33,"componentType":5123,"count":720,"max":[0,9,0,0],"min":[0,1,0,0],"type":"VEC4"},{"bufferView":34,"componentType":5126,"count":720,"max":[0,1,0,0],"min":[0,1,0,0],"type":"VEC4"},{"bufferView":35,"componentType":5123,"count":780,"max":[719],"min":[8],"type":"SCALAR"},{"bufferView":36,"componentType":5126,"count":7,"max":[1,0,0,0,0,1,0,0,0,0,1,0,0,0,0,1],"min":[1,0,0,0,0,1,0,0,0,0,1,0,0,0,0,1],"type":"MAT4"},{"bufferView":37,"componentType":5126,"count":10,"max":[1,0,0,0,0,1,0,0,0,0,1,0,0,0,0,1],"min":[1,0,0,0,0,1,0,0,0,0,1,0,0,0,0,1],"type":"MAT4"},{"bufferView":38,"componentType":5126,"count":10,"max":[1,0,0,0,0,1,0,0,0,0,1,0,0,0,0,1],"min":[1,0,0,0,0,1,0,0,0,0,1,0,0,0,0,1],"type":"MAT4"},{"bufferView":39,"componentType":5126,"count":7,"max":[1,0,0,0,0,1,0,0,0,0,1,0,0,0,0,1],"min":[1,0,0,0,0,1,0,0,0,0,1,0,0,0,0,1],"type":"MAT4"},{"bufferView":40,"componentType":5126,"count":7,"max":[1,0,0,0,0,1,0,0,0,0,1,0,0,0,0,1],"min":[1,0,0,0,0,1,0,0,0,0,1,0,0,0,0,1],"type":"MAT4"},{"bufferView":41,"componentType":5126,"count":10,"max":[1,0,0,0,0,1,0,0,0,0,1,0,0,0,0,1],"min":[1,0,0,0,0,1,0,0,0,0,1,0,0,0,0,1],"type":"MAT4"}],"materials":[{"pbrMetallicRoughness":{"metallicFactor":0,"roughnessFactor":1,"baseColorTexture":{"index":0}},"alphaMode":"MASK","alphaCutoff":0.05},{"pbrMetallicRoughness":{"metallicFactor":0,"roughnessFactor":1,"baseColorTexture":{"index":1}},"alphaMode":"MASK","alphaCutoff":0.05},{"pbrMetallicRoughness":{"metallicFactor":0,"roughnessFactor":1,"baseColorTexture":{"index":2}},"alphaMode":"MASK","alphaCutoff":0.05},{"pbrMetallicRoughness":{"metallicFactor":0,"roughnessFactor":1,"baseColorTexture":{"index":3}},"alphaMode":"MASK","alphaCutoff":0.05}],"textures":[{"sampler":0,"source":0},{"sampler":1,"source":1},{"sampler":2,"source":2},{"sampler":3,"source":3}],"samplers":[{"magFilter":9728,"minFilter":9728,"wrapS":33071,"wrapT":33071},{"magFilter":9728,"minFilter":9728,"wrapS":33071,"wrapT":33071},{"magFilter":9728,"minFilter":9728,"wrapS":33071,"wrapT":33071},{"magFilter":9728,"minFilter":9728,"wrapS":33071,"wrapT":33071}],"images":[{"mimeType":"image/png","uri":"data:image/png;base64,"},{"mimeType":"image/png","uri":"data:image/png;base64,"},{"mimeType":"image/png","uri":"data:image/png;base64,"},{"mimeType":"image/png","uri":"data:image/png;base64,"}],"meshes":[{"primitives":[{"mode":4,"attributes":{"POSITION":0,"NORMAL":1,"TEXCOORD_0":2,"JOINTS_0":3,"WEIGHTS_0":4},"indices":5,"material":0}]},{"primitives":[{"mode":4,"attributes":{"POSITION":6,"NORMAL":7,"TEXCOORD_0":8,"JOINTS_0":9,"WEIGHTS_0":10},"indices":11,"material":1}]},{"primitives":[{"mode":4,"attributes":{"POSITION":12,"NORMAL":13,"TEXCOORD_0":14,"JOINTS_0":15,"WEIGHTS_0":16},"indices":17,"material":1}]},{"primitives":[{"mode":4,"attributes":{"POSITION":18,"NORMAL":19,"TEXCOORD_0":20,"JOINTS_0":21,"WEIGHTS_0":22},"indices":23,"material":2}]},{"primitives":[{"mode":4,"attributes":{"POSITION":24,"NORMAL":25,"TEXCOORD_0":26,"JOINTS_0":27,"WEIGHTS_0":28},"indices":29,"material":2}]},{"primitives":[{"mode":4,"attributes":{"POSITION":30,"NORMAL":31,"TEXCOORD_0":32,"JOINTS_0":33,"WEIGHTS_0":34},"indices":35,"material":3}]}],"skins":[{"inverseBindMatrices":36,"joints":[6,0,1,2,3,4,5],"skeleton":6},{"inverseBindMatrices":37,"joints":[17,8,9,10,11,12,13,14,15,16],"skeleton":17},{"inverseBindMatrices":38,"joints":[28,19,20,21,22,23,24,25,26,27],"skeleton":28},{"inverseBindMatrices":39,"joints":[36,30,31,32,33,34,35],"skeleton":36},{"inverseBindMatrices":40,"joints":[44,38,39,40,41,42,43],"skeleton":44},{"inverseBindMatrices":41,"joints":[55,46,47,48,49,50,51,52,53,54],"skeleton":55}]}