<?xml version="1.0"?>
<!DOCTYPE lmms-project>
<lmms-project version="1.0" creator="LMMS" type="song" creatorversion="1.2.2">
  <head masterpitch="0" mastervol="100">
    <bpm scale_type="linear" id="3706148" value="150"/>
    <timesig_numerator scale_type="linear" id="3775976" value="4"/>
    <timesig_denominator scale_type="linear" id="963765" value="4"/>
  </head>
  <song>
    <trackcontainer height="300" type="song" visible="1" minimized="0" maximized="1" x="5" width="600" y="5">
      <track solo="0" name="Synth Brass" muted="1" type="0">
        <instrumenttrack pitch="0" fxch="0" pan="25.984251" usemasterpitch="1" pitchrange="2" basenote="57">
          <vol scale_type="linear" id="6621598" value="100"/>
          <instrument name="sf2player">
            <sf2player gain="1" patch="62" chorusDepth="8" reverbDamping="0.2" chorusSpeed="0.30000001" bank="0" reverbRoomSize="0.2" reverbLevel="0.89999998" chorusLevel="2" chorusOn="0" src="soundfonts/GeneralUser GS v1.471.sf2" reverbOn="0" chorusNum="0.89999998" reverbWidth="0.5"/>
          </instrument>
          <eldata ftype="0" fcut="14000" fres="0.5" fwet="0">
            <elvol lspd_syncmode="0" x100="0" amt="0" ctlenvamt="0" dec="0.5" hold="0.5" lpdel="0" lspd_denominator="4" att="0" lamt="0" rel="0.1" lshp="0" userwavefile="" pdel="0" lspd_numerator="4" latt="0" lspd="0.1" sustain="0.5"/>
            <elcut lspd_syncmode="0" x100="0" amt="0" ctlenvamt="0" dec="0.5" hold="0.5" lpdel="0" lspd_denominator="4" att="0" lamt="0" rel="0.1" lshp="0" userwavefile="" pdel="0" lspd_numerator="4" latt="0" lspd="0.1" sustain="0.5"/>
            <elres lspd_syncmode="0" x100="0" amt="0" ctlenvamt="0" dec="0.5" hold="0.5" lpdel="0" lspd_denominator="4" att="0" lamt="0" rel="0.1" lshp="0" userwavefile="" pdel="0" lspd_numerator="4" latt="0" lspd="0.1" sustain="0.5"/>
          </eldata>
          <chordcreator chord-enabled="0" chord="0" chordrange="1"/>
          <arpeggiator arpmode="0" arp-enabled="0" arpskip="0" arptime="200" arptime_numerator="4" arpmiss="0" arpcycle="0" arprange="1" arptime_syncmode="0" arptime_denominator="4" arp="0" arpgate="100" arpdir="0"/>
          <midiport readable="0" outputcontroller="0" fixedinputvelocity="-1" basevelocity="63" inputchannel="0" outputchannel="1" writable="0" fixedoutputnote="-1" inputcontroller="0" outputprogram="1" fixedoutputvelocity="-1"/>
          <fxchain enabled="0" numofeffects="0"/>
        </instrumenttrack>
        <pattern pos="0" name="Synth Brass" muted="0" type="1" steps="16">
          <note pos="0" pan="0" len="2" vol="125" key="55"/>
          <note pos="6" pan="0" len="2" vol="125" key="57"/>
          <note pos="12" pan="0" len="2" vol="125" key="59"/>
          <note pos="18" pan="0" len="2" vol="125" key="60"/>
          <note pos="24" pan="0" len="11" vol="125" key="64"/>
          <note pos="48" pan="0" len="11" vol="125" key="62"/>
          <note pos="72" pan="0" len="11" vol="125" key="60"/>
          <note pos="96" pan="0" len="11" vol="125" key="59"/>
          <note pos="120" pan="0" len="11" vol="125" key="60"/>
          <note pos="144" pan="0" len="9" vol="125" key="57"/>
          <note pos="156" pan="0" len="9" vol="125" key="60"/>
          <note pos="168" pan="0" len="19" vol="125" key="55"/>
          <note pos="192" pan="0" len="9" vol="125" key="55"/>
          <note pos="204" pan="0" len="9" vol="125" key="56"/>
          <note pos="216" pan="0" len="19" vol="125" key="57"/>
          <note pos="240" pan="0" len="38" vol="125" key="65"/>
          <note pos="288" pan="0" len="19" vol="125" key="64"/>
          <note pos="312" pan="0" len="19" vol="125" key="62"/>
          <note pos="384" pan="0" len="2" vol="125" key="55"/>
          <note pos="390" pan="0" len="2" vol="125" key="57"/>
          <note pos="396" pan="0" len="2" vol="125" key="59"/>
          <note pos="402" pan="0" len="2" vol="125" key="60"/>
          <note pos="408" pan="0" len="11" vol="125" key="64"/>
          <note pos="432" pan="0" len="11" vol="125" key="62"/>
          <note pos="456" pan="0" len="11" vol="125" key="60"/>
          <note pos="480" pan="0" len="11" vol="125" key="59"/>
          <note pos="504" pan="0" len="11" vol="125" key="60"/>
          <note pos="528" pan="0" len="9" vol="125" key="57"/>
          <note pos="540" pan="0" len="9" vol="125" key="60"/>
          <note pos="552" pan="0" len="19" vol="125" key="55"/>
          <note pos="576" pan="0" len="9" vol="125" key="55"/>
          <note pos="588" pan="0" len="9" vol="125" key="56"/>
          <note pos="600" pan="0" len="19" vol="125" key="57"/>
          <note pos="624" pan="0" len="38" vol="125" key="65"/>
          <note pos="672" pan="0" len="19" vol="125" key="64"/>
          <note pos="696" pan="0" len="19" vol="125" key="62"/>
          <note pos="792" pan="0" len="38" vol="125" key="60"/>
          <note pos="840" pan="0" len="19" vol="125" key="62"/>
          <note pos="864" pan="0" len="38" vol="125" key="64"/>
          <note pos="912" pan="0" len="19" vol="125" key="60"/>
          <note pos="936" pan="0" len="19" vol="125" key="62"/>
          <note pos="960" pan="0" len="177" vol="125" key="60"/>
          <note pos="1176" pan="0" len="38" vol="125" key="60"/>
          <note pos="1224" pan="0" len="19" vol="125" key="62"/>
          <note pos="1248" pan="0" len="38" vol="125" key="67"/>
          <note pos="1296" pan="0" len="19" vol="125" key="60"/>
          <note pos="1320" pan="0" len="19" vol="125" key="62"/>
          <note pos="1344" pan="0" len="100" vol="125" key="60"/>
          <note pos="1536" pan="0" len="2" vol="125" key="55"/>
          <note pos="1542" pan="0" len="2" vol="125" key="57"/>
          <note pos="1548" pan="0" len="2" vol="125" key="59"/>
          <note pos="1554" pan="0" len="2" vol="125" key="60"/>
          <note pos="1560" pan="0" len="11" vol="125" key="64"/>
          <note pos="1584" pan="0" len="11" vol="125" key="62"/>
          <note pos="1608" pan="0" len="11" vol="125" key="60"/>
          <note pos="1632" pan="0" len="11" vol="125" key="59"/>
          <note pos="1656" pan="0" len="11" vol="125" key="60"/>
          <note pos="1680" pan="0" len="9" vol="125" key="57"/>
          <note pos="1692" pan="0" len="9" vol="125" key="60"/>
          <note pos="1704" pan="0" len="19" vol="125" key="55"/>
          <note pos="1728" pan="0" len="9" vol="125" key="55"/>
          <note pos="1740" pan="0" len="9" vol="125" key="56"/>
          <note pos="1752" pan="0" len="19" vol="125" key="57"/>
          <note pos="1776" pan="0" len="38" vol="125" key="65"/>
          <note pos="1824" pan="0" len="19" vol="125" key="64"/>
          <note pos="1848" pan="0" len="19" vol="125" key="62"/>
          <note pos="1920" pan="0" len="2" vol="125" key="55"/>
          <note pos="1926" pan="0" len="2" vol="125" key="57"/>
          <note pos="1932" pan="0" len="2" vol="125" key="59"/>
          <note pos="1938" pan="0" len="2" vol="125" key="60"/>
          <note pos="1944" pan="0" len="11" vol="125" key="64"/>
          <note pos="1968" pan="0" len="11" vol="125" key="62"/>
          <note pos="1992" pan="0" len="11" vol="125" key="60"/>
          <note pos="2016" pan="0" len="11" vol="125" key="59"/>
          <note pos="2040" pan="0" len="11" vol="125" key="60"/>
          <note pos="2064" pan="0" len="9" vol="125" key="57"/>
          <note pos="2076" pan="0" len="9" vol="125" key="60"/>
          <note pos="2088" pan="0" len="19" vol="125" key="55"/>
          <note pos="2112" pan="0" len="9" vol="125" key="55"/>
          <note pos="2124" pan="0" len="9" vol="125" key="56"/>
          <note pos="2136" pan="0" len="19" vol="125" key="57"/>
          <note pos="2160" pan="0" len="38" vol="125" key="65"/>
          <note pos="2208" pan="0" len="19" vol="125" key="64"/>
          <note pos="2232" pan="0" len="19" vol="125" key="62"/>
          <note pos="2328" pan="0" len="38" vol="125" key="60"/>
          <note pos="2376" pan="0" len="19" vol="125" key="62"/>
          <note pos="2400" pan="0" len="38" vol="125" key="64"/>
          <note pos="2448" pan="0" len="19" vol="125" key="60"/>
          <note pos="2472" pan="0" len="19" vol="125" key="62"/>
          <note pos="2496" pan="0" len="177" vol="125" key="60"/>
          <note pos="2712" pan="0" len="38" vol="125" key="60"/>
          <note pos="2760" pan="0" len="19" vol="125" key="62"/>
          <note pos="2784" pan="0" len="38" vol="125" key="67"/>
          <note pos="2832" pan="0" len="19" vol="125" key="60"/>
          <note pos="2856" pan="0" len="19" vol="125" key="62"/>
          <note pos="2880" pan="0" len="100" vol="125" key="60"/>
          <note pos="3072" pan="0" len="2" vol="125" key="55"/>
          <note pos="3078" pan="0" len="2" vol="125" key="57"/>
          <note pos="3084" pan="0" len="2" vol="125" key="59"/>
          <note pos="3090" pan="0" len="2" vol="125" key="60"/>
          <note pos="3096" pan="0" len="11" vol="125" key="64"/>
          <note pos="3120" pan="0" len="11" vol="125" key="62"/>
          <note pos="3144" pan="0" len="11" vol="125" key="60"/>
          <note pos="3168" pan="0" len="11" vol="125" key="59"/>
          <note pos="3192" pan="0" len="11" vol="125" key="60"/>
          <note pos="3216" pan="0" len="9" vol="125" key="57"/>
          <note pos="3228" pan="0" len="9" vol="125" key="60"/>
          <note pos="3240" pan="0" len="19" vol="125" key="55"/>
          <note pos="3264" pan="0" len="9" vol="125" key="55"/>
          <note pos="3276" pan="0" len="9" vol="125" key="56"/>
          <note pos="3288" pan="0" len="19" vol="125" key="57"/>
          <note pos="3312" pan="0" len="38" vol="125" key="65"/>
          <note pos="3360" pan="0" len="19" vol="125" key="64"/>
          <note pos="3384" pan="0" len="19" vol="125" key="62"/>
          <note pos="3456" pan="0" len="2" vol="125" key="55"/>
          <note pos="3462" pan="0" len="2" vol="125" key="57"/>
          <note pos="3468" pan="0" len="2" vol="125" key="59"/>
          <note pos="3474" pan="0" len="2" vol="125" key="60"/>
          <note pos="3480" pan="0" len="11" vol="125" key="64"/>
          <note pos="3504" pan="0" len="11" vol="125" key="62"/>
          <note pos="3528" pan="0" len="11" vol="125" key="60"/>
          <note pos="3552" pan="0" len="11" vol="125" key="59"/>
          <note pos="3576" pan="0" len="11" vol="125" key="60"/>
          <note pos="3600" pan="0" len="9" vol="125" key="57"/>
          <note pos="3612" pan="0" len="9" vol="125" key="60"/>
          <note pos="3624" pan="0" len="19" vol="125" key="55"/>
          <note pos="3648" pan="0" len="9" vol="125" key="55"/>
          <note pos="3660" pan="0" len="9" vol="125" key="56"/>
          <note pos="3672" pan="0" len="19" vol="125" key="57"/>
          <note pos="3696" pan="0" len="38" vol="125" key="65"/>
          <note pos="3744" pan="0" len="19" vol="125" key="64"/>
          <note pos="3768" pan="0" len="19" vol="125" key="62"/>
          <note pos="3864" pan="0" len="38" vol="125" key="60"/>
          <note pos="3912" pan="0" len="19" vol="125" key="62"/>
          <note pos="3936" pan="0" len="38" vol="125" key="64"/>
          <note pos="3984" pan="0" len="19" vol="125" key="60"/>
          <note pos="4008" pan="0" len="19" vol="125" key="62"/>
          <note pos="4032" pan="0" len="177" vol="125" key="60"/>
          <note pos="4248" pan="0" len="38" vol="125" key="60"/>
          <note pos="4296" pan="0" len="19" vol="125" key="62"/>
          <note pos="4320" pan="0" len="38" vol="125" key="67"/>
          <note pos="4368" pan="0" len="19" vol="125" key="60"/>
          <note pos="4392" pan="0" len="19" vol="125" key="62"/>
          <note pos="4416" pan="0" len="100" vol="125" key="60"/>
        </pattern>
      </track>
      <track solo="0" name="Synth Brass > Volume" muted="1" type="5">
        <automationtrack/>
        <automationpattern pos="960" name="Synth Brass>Volume" tens="1" len="192" mute="0" prog="0">
          <time pos="0" value="96.062996"/>
          <time pos="1" value="49.6063"/>
          <time pos="2" value="50.3937"/>
          <time pos="3" value="51.181103"/>
          <time pos="5" value="51.968502"/>
          <time pos="6" value="53.543308"/>
          <time pos="8" value="54.330708"/>
          <time pos="9" value="55.118111"/>
          <time pos="10" value="55.90551"/>
          <time pos="11" value="56.692913"/>
          <time pos="12" value="57.480316"/>
          <time pos="14" value="59.055119"/>
          <time pos="15" value="59.842518"/>
          <time pos="17" value="60.629921"/>
          <time pos="18" value="62.204723"/>
          <time pos="20" value="62.992126"/>
          <time pos="21" value="63.779526"/>
          <time pos="22" value="64.566933"/>
          <time pos="23" value="65.354332"/>
          <time pos="24" value="66.141731"/>
          <time pos="26" value="67.716537"/>
          <time pos="27" value="68.503937"/>
          <time pos="29" value="69.291336"/>
          <time pos="30" value="70.078743"/>
          <time pos="31" value="70.866142"/>
          <time pos="32" value="71.653542"/>
          <time pos="33" value="72.440948"/>
          <time pos="34" value="73.228348"/>
          <time pos="35" value="74.015747"/>
          <time pos="36" value="74.803146"/>
          <time pos="38" value="76.377953"/>
          <time pos="40" value="77.165352"/>
          <time pos="41" value="77.952759"/>
          <time pos="42" value="78.740158"/>
          <time pos="43" value="79.527557"/>
          <time pos="44" value="80.314964"/>
          <time pos="45" value="81.102364"/>
          <time pos="46" value="81.889763"/>
          <time pos="47" value="82.677162"/>
          <time pos="49" value="83.464569"/>
          <time pos="50" value="85.039368"/>
          <time pos="52" value="85.826775"/>
          <time pos="53" value="86.614174"/>
          <time pos="54" value="87.401573"/>
          <time pos="55" value="88.18898"/>
          <time pos="56" value="88.976379"/>
          <time pos="58" value="90.551178"/>
          <time pos="59" value="91.338585"/>
          <time pos="61" value="92.125984"/>
          <time pos="62" value="93.70079"/>
          <time pos="64" value="94.48819"/>
          <time pos="65" value="95.275589"/>
          <time pos="66" value="96.062996"/>
          <time pos="67" value="96.850395"/>
          <time pos="68" value="97.637794"/>
          <time pos="70" value="99.212601"/>
          <time pos="71" value="100"/>
          <object id="6621598"/>
        </automationpattern>
        <automationpattern pos="1152" name="Synth Brass>Volume" tens="1" len="384" mute="0" prog="0">
          <time pos="0" value="96.062996"/>
          <time pos="191" value="51.181103"/>
          <time pos="193" value="51.968502"/>
          <time pos="194" value="52.755905"/>
          <time pos="195" value="53.543308"/>
          <time pos="196" value="54.330708"/>
          <time pos="198" value="55.90551"/>
          <time pos="200" value="56.692913"/>
          <time pos="201" value="57.480316"/>
          <time pos="202" value="58.267715"/>
          <time pos="203" value="59.055119"/>
          <time pos="204" value="59.842518"/>
          <time pos="206" value="61.417324"/>
          <time pos="208" value="62.204723"/>
          <time pos="209" value="62.992126"/>
          <time pos="210" value="63.779526"/>
          <time pos="211" value="64.566933"/>
          <time pos="213" value="65.354332"/>
          <time pos="214" value="66.141731"/>
          <time pos="215" value="66.929131"/>
          <time pos="216" value="67.716537"/>
          <time pos="217" value="68.503937"/>
          <time pos="218" value="69.291336"/>
          <time pos="219" value="70.078743"/>
          <time pos="221" value="70.866142"/>
          <time pos="222" value="71.653542"/>
          <time pos="223" value="72.440948"/>
          <time pos="224" value="73.228348"/>
          <time pos="226" value="74.803146"/>
          <time pos="227" value="75.590553"/>
          <time pos="229" value="76.377953"/>
          <time pos="230" value="77.165352"/>
          <time pos="231" value="77.952759"/>
          <time pos="232" value="78.740158"/>
          <time pos="234" value="80.314964"/>
          <time pos="236" value="81.102364"/>
          <time pos="237" value="81.889763"/>
          <time pos="238" value="82.677162"/>
          <time pos="239" value="83.464569"/>
          <time pos="240" value="84.251968"/>
          <time pos="242" value="85.826775"/>
          <time pos="244" value="86.614174"/>
          <time pos="245" value="87.401573"/>
          <time pos="246" value="88.18898"/>
          <time pos="247" value="88.976379"/>
          <time pos="249" value="89.763779"/>
          <time pos="250" value="90.551178"/>
          <time pos="251" value="91.338585"/>
          <time pos="252" value="92.125984"/>
          <time pos="253" value="92.913383"/>
          <time pos="254" value="93.70079"/>
          <time pos="255" value="94.48819"/>
          <time pos="257" value="95.275589"/>
          <time pos="258" value="96.062996"/>
          <time pos="259" value="96.850395"/>
          <time pos="260" value="97.637794"/>
          <time pos="262" value="99.212601"/>
          <time pos="263" value="100"/>
          <object id="6621598"/>
        </automationpattern>
        <automationpattern pos="2496" name="Synth Brass>Volume" tens="1" len="192" mute="0" prog="0">
          <time pos="0" value="49.6063"/>
          <time pos="2" value="50.3937"/>
          <time pos="3" value="51.181103"/>
          <time pos="4" value="51.968502"/>
          <time pos="5" value="52.755905"/>
          <time pos="6" value="53.543308"/>
          <time pos="8" value="55.118111"/>
          <time pos="9" value="55.90551"/>
          <time pos="11" value="56.692913"/>
          <time pos="12" value="57.480316"/>
          <time pos="13" value="58.267715"/>
          <time pos="14" value="59.055119"/>
          <time pos="15" value="59.842518"/>
          <time pos="16" value="60.629921"/>
          <time pos="17" value="61.417324"/>
          <time pos="18" value="62.204723"/>
          <time pos="20" value="63.779526"/>
          <time pos="22" value="64.566933"/>
          <time pos="23" value="65.354332"/>
          <time pos="24" value="66.141731"/>
          <time pos="25" value="66.929131"/>
          <time pos="26" value="67.716537"/>
          <time pos="27" value="68.503937"/>
          <time pos="28" value="69.291336"/>
          <time pos="29" value="70.078743"/>
          <time pos="31" value="70.866142"/>
          <time pos="32" value="72.440948"/>
          <time pos="34" value="73.228348"/>
          <time pos="35" value="74.015747"/>
          <time pos="36" value="74.803146"/>
          <time pos="37" value="75.590553"/>
          <time pos="38" value="76.377953"/>
          <time pos="40" value="77.952759"/>
          <time pos="41" value="78.740158"/>
          <time pos="43" value="79.527557"/>
          <time pos="44" value="81.102364"/>
          <time pos="46" value="81.889763"/>
          <time pos="47" value="82.677162"/>
          <time pos="48" value="83.464569"/>
          <time pos="49" value="84.251968"/>
          <time pos="50" value="85.039368"/>
          <time pos="52" value="86.614174"/>
          <time pos="53" value="87.401573"/>
          <time pos="55" value="88.18898"/>
          <time pos="56" value="88.976379"/>
          <time pos="57" value="89.763779"/>
          <time pos="58" value="90.551178"/>
          <time pos="59" value="91.338585"/>
          <time pos="60" value="92.125984"/>
          <time pos="61" value="92.913383"/>
          <time pos="62" value="93.70079"/>
          <time pos="64" value="95.275589"/>
          <time pos="66" value="96.062996"/>
          <time pos="67" value="96.850395"/>
          <time pos="68" value="97.637794"/>
          <time pos="69" value="98.425194"/>
          <time pos="70" value="99.212601"/>
          <time pos="71" value="100"/>
          <object id="6621598"/>
        </automationpattern>
        <automationpattern pos="2688" name="Synth Brass>Volume" tens="1" len="384" mute="0" prog="0">
          <time pos="0" value="96.062996"/>
          <time pos="191" value="51.181103"/>
          <time pos="192" value="51.968502"/>
          <time pos="193" value="52.755905"/>
          <time pos="195" value="53.543308"/>
          <time pos="196" value="54.330708"/>
          <time pos="197" value="55.118111"/>
          <time pos="198" value="55.90551"/>
          <time pos="200" value="57.480316"/>
          <time pos="202" value="58.267715"/>
          <time pos="203" value="59.055119"/>
          <time pos="204" value="59.842518"/>
          <time pos="205" value="60.629921"/>
          <time pos="206" value="61.417324"/>
          <time pos="208" value="62.992126"/>
          <time pos="210" value="63.779526"/>
          <time pos="211" value="64.566933"/>
          <time pos="212" value="65.354332"/>
          <time pos="213" value="66.141731"/>
          <time pos="215" value="66.929131"/>
          <time pos="216" value="68.503937"/>
          <time pos="218" value="69.291336"/>
          <time pos="219" value="70.078743"/>
          <time pos="220" value="70.866142"/>
          <time pos="221" value="71.653542"/>
          <time pos="223" value="72.440948"/>
          <time pos="224" value="73.228348"/>
          <time pos="225" value="74.015747"/>
          <time pos="226" value="74.803146"/>
          <time pos="227" value="75.590553"/>
          <time pos="228" value="76.377953"/>
          <time pos="229" value="77.165352"/>
          <time pos="231" value="77.952759"/>
          <time pos="232" value="78.740158"/>
          <time pos="233" value="79.527557"/>
          <time pos="234" value="80.314964"/>
          <time pos="236" value="81.889763"/>
          <time pos="238" value="82.677162"/>
          <time pos="239" value="83.464569"/>
          <time pos="240" value="84.251968"/>
          <time pos="241" value="85.039368"/>
          <time pos="242" value="85.826775"/>
          <time pos="244" value="87.401573"/>
          <time pos="246" value="88.18898"/>
          <time pos="247" value="88.976379"/>
          <time pos="248" value="89.763779"/>
          <time pos="249" value="90.551178"/>
          <time pos="251" value="91.338585"/>
          <time pos="252" value="92.913383"/>
          <time pos="254" value="93.70079"/>
          <time pos="255" value="94.48819"/>
          <time pos="256" value="95.275589"/>
          <time pos="257" value="96.062996"/>
          <time pos="259" value="96.850395"/>
          <time pos="260" value="97.637794"/>
          <time pos="261" value="98.425194"/>
          <time pos="262" value="99.212601"/>
          <time pos="263" value="100"/>
          <object id="6621598"/>
        </automationpattern>
        <automationpattern pos="4032" name="Synth Brass>Volume" tens="1" len="192" mute="0" prog="0">
          <time pos="0" value="49.6063"/>
          <time pos="2" value="50.3937"/>
          <time pos="3" value="51.181103"/>
          <time pos="4" value="51.968502"/>
          <time pos="5" value="52.755905"/>
          <time pos="6" value="53.543308"/>
          <time pos="8" value="55.118111"/>
          <time pos="9" value="55.90551"/>
          <time pos="11" value="56.692913"/>
          <time pos="12" value="57.480316"/>
          <time pos="13" value="58.267715"/>
          <time pos="14" value="59.055119"/>
          <time pos="15" value="59.842518"/>
          <time pos="16" value="60.629921"/>
          <time pos="17" value="61.417324"/>
          <time pos="18" value="62.204723"/>
          <time pos="20" value="63.779526"/>
          <time pos="22" value="64.566933"/>
          <time pos="23" value="65.354332"/>
          <time pos="24" value="66.141731"/>
          <time pos="25" value="66.929131"/>
          <time pos="26" value="67.716537"/>
          <time pos="27" value="68.503937"/>
          <time pos="28" value="69.291336"/>
          <time pos="29" value="70.078743"/>
          <time pos="31" value="70.866142"/>
          <time pos="32" value="72.440948"/>
          <time pos="34" value="73.228348"/>
          <time pos="35" value="74.015747"/>
          <time pos="36" value="74.803146"/>
          <time pos="37" value="75.590553"/>
          <time pos="38" value="76.377953"/>
          <time pos="40" value="77.952759"/>
          <time pos="41" value="78.740158"/>
          <time pos="43" value="79.527557"/>
          <time pos="44" value="81.102364"/>
          <time pos="46" value="81.889763"/>
          <time pos="47" value="82.677162"/>
          <time pos="48" value="83.464569"/>
          <time pos="49" value="84.251968"/>
          <time pos="50" value="85.039368"/>
          <time pos="52" value="86.614174"/>
          <time pos="53" value="87.401573"/>
          <time pos="55" value="88.18898"/>
          <time pos="56" value="88.976379"/>
          <time pos="57" value="89.763779"/>
          <time pos="58" value="90.551178"/>
          <time pos="59" value="91.338585"/>
          <time pos="60" value="92.125984"/>
          <time pos="61" value="92.913383"/>
          <time pos="62" value="93.70079"/>
          <time pos="64" value="95.275589"/>
          <time pos="66" value="96.062996"/>
          <time pos="67" value="96.850395"/>
          <time pos="68" value="97.637794"/>
          <time pos="69" value="98.425194"/>
          <time pos="70" value="99.212601"/>
          <time pos="71" value="100"/>
          <object id="6621598"/>
        </automationpattern>
        <automationpattern pos="4224" name="Synth Brass>Volume" tens="1" len="384" mute="0" prog="0">
          <time pos="0" value="96.062996"/>
          <time pos="191" value="51.181103"/>
          <time pos="192" value="51.968502"/>
          <time pos="193" value="52.755905"/>
          <time pos="195" value="53.543308"/>
          <time pos="196" value="54.330708"/>
          <time pos="197" value="55.118111"/>
          <time pos="198" value="55.90551"/>
          <time pos="200" value="57.480316"/>
          <time pos="202" value="58.267715"/>
          <time pos="203" value="59.055119"/>
          <time pos="204" value="59.842518"/>
          <time pos="205" value="60.629921"/>
          <time pos="206" value="61.417324"/>
          <time pos="208" value="62.992126"/>
          <time pos="210" value="63.779526"/>
          <time pos="211" value="64.566933"/>
          <time pos="212" value="65.354332"/>
          <time pos="213" value="66.141731"/>
          <time pos="215" value="66.929131"/>
          <time pos="216" value="68.503937"/>
          <time pos="218" value="69.291336"/>
          <time pos="219" value="70.078743"/>
          <time pos="220" value="70.866142"/>
          <time pos="221" value="71.653542"/>
          <time pos="223" value="72.440948"/>
          <time pos="224" value="73.228348"/>
          <time pos="225" value="74.015747"/>
          <time pos="226" value="74.803146"/>
          <time pos="227" value="75.590553"/>
          <time pos="228" value="76.377953"/>
          <time pos="229" value="77.165352"/>
          <time pos="231" value="77.952759"/>
          <time pos="232" value="78.740158"/>
          <time pos="233" value="79.527557"/>
          <time pos="234" value="80.314964"/>
          <time pos="236" value="81.889763"/>
          <time pos="238" value="82.677162"/>
          <time pos="239" value="83.464569"/>
          <time pos="240" value="84.251968"/>
          <time pos="241" value="85.039368"/>
          <time pos="242" value="85.826775"/>
          <time pos="244" value="87.401573"/>
          <time pos="246" value="88.18898"/>
          <time pos="247" value="88.976379"/>
          <time pos="248" value="89.763779"/>
          <time pos="249" value="90.551178"/>
          <time pos="251" value="91.338585"/>
          <time pos="252" value="92.913383"/>
          <time pos="254" value="93.70079"/>
          <time pos="255" value="94.48819"/>
          <time pos="256" value="95.275589"/>
          <time pos="257" value="96.062996"/>
          <time pos="259" value="96.850395"/>
          <time pos="260" value="97.637794"/>
          <time pos="261" value="98.425194"/>
          <time pos="262" value="99.212601"/>
          <time pos="263" value="100"/>
          <object id="6621598"/>
        </automationpattern>
      </track>
      <track solo="0" name="Synth Brass (echo)" muted="1" type="0">
        <instrumenttrack pitch="0" fxch="0" pan="-37.007874" usemasterpitch="1" vol="59.055119" pitchrange="2" basenote="57">
          <instrument name="sf2player">
            <sf2player gain="1" patch="62" chorusDepth="8" reverbDamping="0.2" chorusSpeed="0.30000001" bank="0" reverbRoomSize="0.2" reverbLevel="0.89999998" chorusLevel="2" chorusOn="0" src="soundfonts/GeneralUser GS v1.471.sf2" reverbOn="0" chorusNum="0.89999998" reverbWidth="0.5"/>
          </instrument>
          <eldata ftype="0" fcut="14000" fres="0.5" fwet="0">
            <elvol lspd_syncmode="0" x100="0" amt="0" ctlenvamt="0" dec="0.5" hold="0.5" lpdel="0" lspd_denominator="4" att="0" lamt="0" rel="0.1" lshp="0" userwavefile="" pdel="0" lspd_numerator="4" latt="0" lspd="0.1" sustain="0.5"/>
            <elcut lspd_syncmode="0" x100="0" amt="0" ctlenvamt="0" dec="0.5" hold="0.5" lpdel="0" lspd_denominator="4" att="0" lamt="0" rel="0.1" lshp="0" userwavefile="" pdel="0" lspd_numerator="4" latt="0" lspd="0.1" sustain="0.5"/>
            <elres lspd_syncmode="0" x100="0" amt="0" ctlenvamt="0" dec="0.5" hold="0.5" lpdel="0" lspd_denominator="4" att="0" lamt="0" rel="0.1" lshp="0" userwavefile="" pdel="0" lspd_numerator="4" latt="0" lspd="0.1" sustain="0.5"/>
          </eldata>
          <chordcreator chord-enabled="0" chord="0" chordrange="1"/>
          <arpeggiator arpmode="0" arp-enabled="0" arpskip="0" arptime="200" arptime_numerator="4" arpmiss="0" arpcycle="0" arprange="1" arptime_syncmode="0" arptime_denominator="4" arp="0" arpgate="100" arpdir="0"/>
          <midiport readable="0" outputcontroller="0" fixedinputvelocity="-1" basevelocity="63" inputchannel="0" outputchannel="1" writable="0" fixedoutputnote="-1" inputcontroller="0" outputprogram="1" fixedoutputvelocity="-1"/>
          <fxchain enabled="0" numofeffects="0"/>
        </instrumenttrack>
        <pattern pos="0" name="Synth Brass (echo)" muted="0" type="1" steps="16">
          <note pos="24" pan="0" len="2" vol="125" key="55"/>
          <note pos="30" pan="0" len="2" vol="125" key="57"/>
          <note pos="36" pan="0" len="2" vol="125" key="59"/>
          <note pos="42" pan="0" len="2" vol="125" key="60"/>
          <note pos="48" pan="0" len="11" vol="125" key="64"/>
          <note pos="72" pan="0" len="11" vol="125" key="62"/>
          <note pos="96" pan="0" len="11" vol="125" key="60"/>
          <note pos="120" pan="0" len="11" vol="125" key="59"/>
          <note pos="144" pan="0" len="11" vol="125" key="60"/>
          <note pos="168" pan="0" len="9" vol="125" key="57"/>
          <note pos="180" pan="0" len="9" vol="125" key="60"/>
          <note pos="192" pan="0" len="19" vol="125" key="55"/>
          <note pos="216" pan="0" len="9" vol="125" key="55"/>
          <note pos="228" pan="0" len="9" vol="125" key="56"/>
          <note pos="240" pan="0" len="19" vol="125" key="57"/>
          <note pos="264" pan="0" len="38" vol="125" key="65"/>
          <note pos="312" pan="0" len="19" vol="125" key="64"/>
          <note pos="336" pan="0" len="19" vol="125" key="62"/>
          <note pos="408" pan="0" len="2" vol="125" key="55"/>
          <note pos="414" pan="0" len="2" vol="125" key="57"/>
          <note pos="420" pan="0" len="2" vol="125" key="59"/>
          <note pos="426" pan="0" len="2" vol="125" key="60"/>
          <note pos="432" pan="0" len="11" vol="125" key="64"/>
          <note pos="456" pan="0" len="11" vol="125" key="62"/>
          <note pos="480" pan="0" len="11" vol="125" key="60"/>
          <note pos="504" pan="0" len="11" vol="125" key="59"/>
          <note pos="528" pan="0" len="11" vol="125" key="60"/>
          <note pos="552" pan="0" len="9" vol="125" key="57"/>
          <note pos="564" pan="0" len="9" vol="125" key="60"/>
          <note pos="576" pan="0" len="19" vol="125" key="55"/>
          <note pos="600" pan="0" len="9" vol="125" key="55"/>
          <note pos="612" pan="0" len="9" vol="125" key="56"/>
          <note pos="624" pan="0" len="19" vol="125" key="57"/>
          <note pos="648" pan="0" len="38" vol="125" key="65"/>
          <note pos="696" pan="0" len="19" vol="125" key="64"/>
          <note pos="720" pan="0" len="19" vol="125" key="62"/>
          <note pos="816" pan="0" len="38" vol="125" key="60"/>
          <note pos="864" pan="0" len="19" vol="125" key="62"/>
          <note pos="888" pan="0" len="38" vol="125" key="64"/>
          <note pos="936" pan="0" len="19" vol="125" key="60"/>
          <note pos="960" pan="0" len="19" vol="125" key="62"/>
          <note pos="984" pan="0" len="177" vol="125" key="60"/>
          <note pos="1200" pan="0" len="38" vol="125" key="60"/>
          <note pos="1248" pan="0" len="19" vol="125" key="62"/>
          <note pos="1272" pan="0" len="38" vol="125" key="67"/>
          <note pos="1320" pan="0" len="19" vol="125" key="60"/>
          <note pos="1344" pan="0" len="19" vol="125" key="62"/>
          <note pos="1368" pan="0" len="100" vol="125" key="60"/>
          <note pos="1559" pan="0" len="2" vol="125" key="55"/>
          <note pos="1565" pan="0" len="2" vol="125" key="57"/>
          <note pos="1571" pan="0" len="2" vol="125" key="59"/>
          <note pos="1577" pan="0" len="2" vol="125" key="60"/>
          <note pos="1583" pan="0" len="11" vol="125" key="64"/>
          <note pos="1607" pan="0" len="11" vol="125" key="62"/>
          <note pos="1631" pan="0" len="11" vol="125" key="60"/>
          <note pos="1655" pan="0" len="11" vol="125" key="59"/>
          <note pos="1679" pan="0" len="11" vol="125" key="60"/>
          <note pos="1703" pan="0" len="9" vol="125" key="57"/>
          <note pos="1715" pan="0" len="9" vol="125" key="60"/>
          <note pos="1727" pan="0" len="19" vol="125" key="55"/>
          <note pos="1751" pan="0" len="9" vol="125" key="55"/>
          <note pos="1763" pan="0" len="9" vol="125" key="56"/>
          <note pos="1775" pan="0" len="19" vol="125" key="57"/>
          <note pos="1799" pan="0" len="38" vol="125" key="65"/>
          <note pos="1847" pan="0" len="19" vol="125" key="64"/>
          <note pos="1871" pan="0" len="19" vol="125" key="62"/>
          <note pos="1943" pan="0" len="2" vol="125" key="55"/>
          <note pos="1949" pan="0" len="2" vol="125" key="57"/>
          <note pos="1955" pan="0" len="2" vol="125" key="59"/>
          <note pos="1961" pan="0" len="2" vol="125" key="60"/>
          <note pos="1967" pan="0" len="11" vol="125" key="64"/>
          <note pos="1991" pan="0" len="11" vol="125" key="62"/>
          <note pos="2015" pan="0" len="11" vol="125" key="60"/>
          <note pos="2039" pan="0" len="11" vol="125" key="59"/>
          <note pos="2063" pan="0" len="11" vol="125" key="60"/>
          <note pos="2087" pan="0" len="9" vol="125" key="57"/>
          <note pos="2099" pan="0" len="9" vol="125" key="60"/>
          <note pos="2111" pan="0" len="19" vol="125" key="55"/>
          <note pos="2135" pan="0" len="9" vol="125" key="55"/>
          <note pos="2147" pan="0" len="9" vol="125" key="56"/>
          <note pos="2159" pan="0" len="19" vol="125" key="57"/>
          <note pos="2183" pan="0" len="38" vol="125" key="65"/>
          <note pos="2231" pan="0" len="19" vol="125" key="64"/>
          <note pos="2255" pan="0" len="19" vol="125" key="62"/>
          <note pos="2351" pan="0" len="38" vol="125" key="60"/>
          <note pos="2399" pan="0" len="19" vol="125" key="62"/>
          <note pos="2423" pan="0" len="38" vol="125" key="64"/>
          <note pos="2471" pan="0" len="19" vol="125" key="60"/>
          <note pos="2495" pan="0" len="19" vol="125" key="62"/>
          <note pos="2519" pan="0" len="177" vol="125" key="60"/>
          <note pos="2735" pan="0" len="38" vol="125" key="60"/>
          <note pos="2783" pan="0" len="19" vol="125" key="62"/>
          <note pos="2807" pan="0" len="38" vol="125" key="67"/>
          <note pos="2855" pan="0" len="19" vol="125" key="60"/>
          <note pos="2879" pan="0" len="19" vol="125" key="62"/>
          <note pos="2903" pan="0" len="100" vol="125" key="60"/>
          <note pos="3095" pan="0" len="2" vol="125" key="55"/>
          <note pos="3101" pan="0" len="2" vol="125" key="57"/>
          <note pos="3107" pan="0" len="2" vol="125" key="59"/>
          <note pos="3113" pan="0" len="2" vol="125" key="60"/>
          <note pos="3119" pan="0" len="11" vol="125" key="64"/>
          <note pos="3143" pan="0" len="11" vol="125" key="62"/>
          <note pos="3167" pan="0" len="11" vol="125" key="60"/>
          <note pos="3191" pan="0" len="11" vol="125" key="59"/>
          <note pos="3215" pan="0" len="11" vol="125" key="60"/>
          <note pos="3239" pan="0" len="9" vol="125" key="57"/>
          <note pos="3251" pan="0" len="9" vol="125" key="60"/>
          <note pos="3263" pan="0" len="19" vol="125" key="55"/>
          <note pos="3287" pan="0" len="9" vol="125" key="55"/>
          <note pos="3299" pan="0" len="9" vol="125" key="56"/>
          <note pos="3311" pan="0" len="19" vol="125" key="57"/>
          <note pos="3335" pan="0" len="38" vol="125" key="65"/>
          <note pos="3383" pan="0" len="19" vol="125" key="64"/>
          <note pos="3407" pan="0" len="19" vol="125" key="62"/>
          <note pos="3479" pan="0" len="2" vol="125" key="55"/>
          <note pos="3485" pan="0" len="2" vol="125" key="57"/>
          <note pos="3491" pan="0" len="2" vol="125" key="59"/>
          <note pos="3497" pan="0" len="2" vol="125" key="60"/>
          <note pos="3503" pan="0" len="11" vol="125" key="64"/>
          <note pos="3527" pan="0" len="11" vol="125" key="62"/>
          <note pos="3551" pan="0" len="11" vol="125" key="60"/>
          <note pos="3575" pan="0" len="11" vol="125" key="59"/>
          <note pos="3599" pan="0" len="11" vol="125" key="60"/>
          <note pos="3623" pan="0" len="9" vol="125" key="57"/>
          <note pos="3635" pan="0" len="9" vol="125" key="60"/>
          <note pos="3647" pan="0" len="19" vol="125" key="55"/>
          <note pos="3671" pan="0" len="9" vol="125" key="55"/>
          <note pos="3683" pan="0" len="9" vol="125" key="56"/>
          <note pos="3695" pan="0" len="19" vol="125" key="57"/>
          <note pos="3719" pan="0" len="38" vol="125" key="65"/>
          <note pos="3767" pan="0" len="19" vol="125" key="64"/>
          <note pos="3791" pan="0" len="19" vol="125" key="62"/>
          <note pos="3887" pan="0" len="38" vol="125" key="60"/>
          <note pos="3935" pan="0" len="19" vol="125" key="62"/>
          <note pos="3959" pan="0" len="38" vol="125" key="64"/>
          <note pos="4007" pan="0" len="19" vol="125" key="60"/>
          <note pos="4031" pan="0" len="19" vol="125" key="62"/>
          <note pos="4055" pan="0" len="177" vol="125" key="60"/>
          <note pos="4271" pan="0" len="38" vol="125" key="60"/>
          <note pos="4319" pan="0" len="19" vol="125" key="62"/>
          <note pos="4343" pan="0" len="38" vol="125" key="67"/>
          <note pos="4391" pan="0" len="19" vol="125" key="60"/>
          <note pos="4415" pan="0" len="19" vol="125" key="62"/>
          <note pos="4439" pan="0" len="100" vol="125" key="60"/>
        </pattern>
      </track>
      <track solo="0" name="Bass" muted="1" type="0">
        <instrumenttrack pitch="0" fxch="0" pan="0" usemasterpitch="1" vol="100" pitchrange="2" basenote="57">
          <instrument name="sf2player">
            <sf2player gain="1" patch="38" chorusDepth="8" reverbDamping="0.2" chorusSpeed="0.30000001" bank="0" reverbRoomSize="0.2" reverbLevel="0.89999998" chorusLevel="2" chorusOn="0" src="soundfonts/GeneralUser GS v1.471.sf2" reverbOn="0" chorusNum="0.89999998" reverbWidth="0.5"/>
          </instrument>
          <eldata ftype="0" fcut="14000" fres="0.5" fwet="0">
            <elvol lspd_syncmode="0" x100="0" amt="0" ctlenvamt="0" dec="0.5" hold="0.5" lpdel="0" lspd_denominator="4" att="0" lamt="0" rel="0.1" lshp="0" userwavefile="" pdel="0" lspd_numerator="4" latt="0" lspd="0.1" sustain="0.5"/>
            <elcut lspd_syncmode="0" x100="0" amt="0" ctlenvamt="0" dec="0.5" hold="0.5" lpdel="0" lspd_denominator="4" att="0" lamt="0" rel="0.1" lshp="0" userwavefile="" pdel="0" lspd_numerator="4" latt="0" lspd="0.1" sustain="0.5"/>
            <elres lspd_syncmode="0" x100="0" amt="0" ctlenvamt="0" dec="0.5" hold="0.5" lpdel="0" lspd_denominator="4" att="0" lamt="0" rel="0.1" lshp="0" userwavefile="" pdel="0" lspd_numerator="4" latt="0" lspd="0.1" sustain="0.5"/>
          </eldata>
          <chordcreator chord-enabled="0" chord="0" chordrange="1"/>
          <arpeggiator arpmode="0" arp-enabled="0" arpskip="0" arptime="200" arptime_numerator="4" arpmiss="0" arpcycle="0" arprange="1" arptime_syncmode="0" arptime_denominator="4" arp="0" arpgate="100" arpdir="0"/>
          <midiport readable="0" outputcontroller="0" fixedinputvelocity="-1" basevelocity="63" inputchannel="0" outputchannel="1" writable="0" fixedoutputnote="-1" inputcontroller="0" outputprogram="1" fixedoutputvelocity="-1"/>
          <fxchain enabled="0" numofeffects="0"/>
        </instrumenttrack>
        <pattern pos="0" name="Bass" muted="0" type="1" steps="16">
          <note pos="24" pan="0" len="19" vol="125" key="24"/>
          <note pos="48" pan="0" len="19" vol="125" key="36"/>
          <note pos="72" pan="0" len="19" vol="125" key="24"/>
          <note pos="96" pan="0" len="19" vol="125" key="36"/>
          <note pos="120" pan="0" len="19" vol="125" key="24"/>
          <note pos="144" pan="0" len="19" vol="125" key="36"/>
          <note pos="168" pan="0" len="19" vol="125" key="24"/>
          <note pos="192" pan="0" len="19" vol="125" key="36"/>
          <note pos="216" pan="0" len="19" vol="125" key="17"/>
          <note pos="240" pan="0" len="19" vol="125" key="29"/>
          <note pos="264" pan="0" len="19" vol="125" key="17"/>
          <note pos="288" pan="0" len="19" vol="125" key="29"/>
          <note pos="312" pan="0" len="38" vol="125" key="19"/>
          <note pos="408" pan="0" len="19" vol="125" key="24"/>
          <note pos="432" pan="0" len="19" vol="125" key="36"/>
          <note pos="456" pan="0" len="19" vol="125" key="24"/>
          <note pos="480" pan="0" len="19" vol="125" key="36"/>
          <note pos="504" pan="0" len="19" vol="125" key="24"/>
          <note pos="528" pan="0" len="19" vol="125" key="36"/>
          <note pos="552" pan="0" len="19" vol="125" key="24"/>
          <note pos="576" pan="0" len="19" vol="125" key="36"/>
          <note pos="600" pan="0" len="19" vol="125" key="17"/>
          <note pos="624" pan="0" len="19" vol="125" key="29"/>
          <note pos="648" pan="0" len="19" vol="125" key="17"/>
          <note pos="672" pan="0" len="19" vol="125" key="29"/>
          <note pos="696" pan="0" len="38" vol="125" key="19"/>
          <note pos="792" pan="0" len="9" vol="125" key="21"/>
          <note pos="804" pan="0" len="9" vol="125" key="21"/>
          <note pos="816" pan="0" len="9" vol="125" key="33"/>
          <note pos="828" pan="0" len="9" vol="125" key="33"/>
          <note pos="840" pan="0" len="9" vol="125" key="21"/>
          <note pos="852" pan="0" len="9" vol="125" key="21"/>
          <note pos="864" pan="0" len="9" vol="125" key="33"/>
          <note pos="876" pan="0" len="9" vol="125" key="33"/>
          <note pos="888" pan="0" len="9" vol="125" key="19"/>
          <note pos="900" pan="0" len="9" vol="125" key="19"/>
          <note pos="912" pan="0" len="9" vol="125" key="31"/>
          <note pos="924" pan="0" len="9" vol="125" key="31"/>
          <note pos="936" pan="0" len="9" vol="125" key="19"/>
          <note pos="948" pan="0" len="9" vol="125" key="19"/>
          <note pos="960" pan="0" len="9" vol="125" key="31"/>
          <note pos="972" pan="0" len="9" vol="125" key="31"/>
          <note pos="984" pan="0" len="9" vol="125" key="17"/>
          <note pos="996" pan="0" len="9" vol="125" key="17"/>
          <note pos="1008" pan="0" len="9" vol="125" key="29"/>
          <note pos="1020" pan="0" len="9" vol="125" key="29"/>
          <note pos="1032" pan="0" len="9" vol="125" key="17"/>
          <note pos="1044" pan="0" len="9" vol="125" key="17"/>
          <note pos="1056" pan="0" len="9" vol="125" key="29"/>
          <note pos="1068" pan="0" len="9" vol="125" key="29"/>
          <note pos="1080" pan="0" len="9" vol="125" key="17"/>
          <note pos="1092" pan="0" len="9" vol="125" key="17"/>
          <note pos="1104" pan="0" len="9" vol="125" key="29"/>
          <note pos="1116" pan="0" len="9" vol="125" key="29"/>
          <note pos="1128" pan="0" len="9" vol="125" key="17"/>
          <note pos="1140" pan="0" len="9" vol="125" key="17"/>
          <note pos="1152" pan="0" len="9" vol="125" key="31"/>
          <note pos="1164" pan="0" len="9" vol="125" key="31"/>
          <note pos="1176" pan="0" len="9" vol="125" key="21"/>
          <note pos="1188" pan="0" len="9" vol="125" key="21"/>
          <note pos="1200" pan="0" len="9" vol="125" key="33"/>
          <note pos="1212" pan="0" len="9" vol="125" key="33"/>
          <note pos="1224" pan="0" len="9" vol="125" key="21"/>
          <note pos="1236" pan="0" len="9" vol="125" key="21"/>
          <note pos="1248" pan="0" len="9" vol="125" key="33"/>
          <note pos="1260" pan="0" len="9" vol="125" key="33"/>
          <note pos="1272" pan="0" len="9" vol="125" key="19"/>
          <note pos="1284" pan="0" len="9" vol="125" key="19"/>
          <note pos="1296" pan="0" len="9" vol="125" key="31"/>
          <note pos="1308" pan="0" len="9" vol="125" key="31"/>
          <note pos="1320" pan="0" len="9" vol="125" key="19"/>
          <note pos="1332" pan="0" len="9" vol="125" key="19"/>
          <note pos="1344" pan="0" len="9" vol="125" key="31"/>
          <note pos="1356" pan="0" len="9" vol="125" key="31"/>
          <note pos="1368" pan="0" len="9" vol="125" key="17"/>
          <note pos="1380" pan="0" len="9" vol="125" key="17"/>
          <note pos="1392" pan="0" len="9" vol="125" key="29"/>
          <note pos="1404" pan="0" len="9" vol="125" key="29"/>
          <note pos="1416" pan="0" len="9" vol="125" key="17"/>
          <note pos="1428" pan="0" len="9" vol="125" key="17"/>
          <note pos="1440" pan="0" len="9" vol="125" key="29"/>
          <note pos="1452" pan="0" len="9" vol="125" key="29"/>
          <note pos="1559" pan="0" len="19" vol="125" key="24"/>
          <note pos="1583" pan="0" len="19" vol="125" key="36"/>
          <note pos="1607" pan="0" len="19" vol="125" key="24"/>
          <note pos="1631" pan="0" len="19" vol="125" key="36"/>
          <note pos="1655" pan="0" len="19" vol="125" key="24"/>
          <note pos="1679" pan="0" len="19" vol="125" key="36"/>
          <note pos="1703" pan="0" len="19" vol="125" key="24"/>
          <note pos="1727" pan="0" len="19" vol="125" key="36"/>
          <note pos="1751" pan="0" len="19" vol="125" key="17"/>
          <note pos="1775" pan="0" len="19" vol="125" key="29"/>
          <note pos="1799" pan="0" len="19" vol="125" key="17"/>
          <note pos="1823" pan="0" len="19" vol="125" key="29"/>
          <note pos="1847" pan="0" len="38" vol="125" key="19"/>
          <note pos="1943" pan="0" len="19" vol="125" key="24"/>
          <note pos="1967" pan="0" len="19" vol="125" key="36"/>
          <note pos="1991" pan="0" len="19" vol="125" key="24"/>
          <note pos="2015" pan="0" len="19" vol="125" key="36"/>
          <note pos="2039" pan="0" len="19" vol="125" key="24"/>
          <note pos="2063" pan="0" len="19" vol="125" key="36"/>
          <note pos="2087" pan="0" len="19" vol="125" key="24"/>
          <note pos="2111" pan="0" len="19" vol="125" key="36"/>
          <note pos="2135" pan="0" len="19" vol="125" key="17"/>
          <note pos="2159" pan="0" len="19" vol="125" key="29"/>
          <note pos="2183" pan="0" len="19" vol="125" key="17"/>
          <note pos="2207" pan="0" len="19" vol="125" key="29"/>
          <note pos="2231" pan="0" len="38" vol="125" key="19"/>
          <note pos="2327" pan="0" len="9" vol="125" key="21"/>
          <note pos="2339" pan="0" len="9" vol="125" key="21"/>
          <note pos="2351" pan="0" len="9" vol="125" key="33"/>
          <note pos="2363" pan="0" len="9" vol="125" key="33"/>
          <note pos="2375" pan="0" len="9" vol="125" key="21"/>
          <note pos="2387" pan="0" len="9" vol="125" key="21"/>
          <note pos="2399" pan="0" len="9" vol="125" key="33"/>
          <note pos="2411" pan="0" len="9" vol="125" key="33"/>
          <note pos="2423" pan="0" len="9" vol="125" key="19"/>
          <note pos="2435" pan="0" len="9" vol="125" key="19"/>
          <note pos="2447" pan="0" len="9" vol="125" key="31"/>
          <note pos="2459" pan="0" len="9" vol="125" key="31"/>
          <note pos="2471" pan="0" len="9" vol="125" key="19"/>
          <note pos="2483" pan="0" len="9" vol="125" key="19"/>
          <note pos="2495" pan="0" len="9" vol="125" key="31"/>
          <note pos="2507" pan="0" len="9" vol="125" key="31"/>
          <note pos="2519" pan="0" len="9" vol="125" key="17"/>
          <note pos="2531" pan="0" len="9" vol="125" key="17"/>
          <note pos="2543" pan="0" len="9" vol="125" key="29"/>
          <note pos="2555" pan="0" len="9" vol="125" key="29"/>
          <note pos="2567" pan="0" len="9" vol="125" key="17"/>
          <note pos="2579" pan="0" len="9" vol="125" key="17"/>
          <note pos="2591" pan="0" len="9" vol="125" key="29"/>
          <note pos="2603" pan="0" len="9" vol="125" key="29"/>
          <note pos="2615" pan="0" len="9" vol="125" key="17"/>
          <note pos="2627" pan="0" len="9" vol="125" key="17"/>
          <note pos="2639" pan="0" len="9" vol="125" key="29"/>
          <note pos="2651" pan="0" len="9" vol="125" key="29"/>
          <note pos="2663" pan="0" len="9" vol="125" key="17"/>
          <note pos="2675" pan="0" len="9" vol="125" key="17"/>
          <note pos="2687" pan="0" len="9" vol="125" key="31"/>
          <note pos="2699" pan="0" len="9" vol="125" key="31"/>
          <note pos="2711" pan="0" len="9" vol="125" key="21"/>
          <note pos="2723" pan="0" len="9" vol="125" key="21"/>
          <note pos="2735" pan="0" len="9" vol="125" key="33"/>
          <note pos="2747" pan="0" len="9" vol="125" key="33"/>
          <note pos="2759" pan="0" len="9" vol="125" key="21"/>
          <note pos="2771" pan="0" len="9" vol="125" key="21"/>
          <note pos="2783" pan="0" len="9" vol="125" key="33"/>
          <note pos="2795" pan="0" len="9" vol="125" key="33"/>
          <note pos="2807" pan="0" len="9" vol="125" key="19"/>
          <note pos="2819" pan="0" len="9" vol="125" key="19"/>
          <note pos="2831" pan="0" len="9" vol="125" key="31"/>
          <note pos="2843" pan="0" len="9" vol="125" key="31"/>
          <note pos="2855" pan="0" len="9" vol="125" key="19"/>
          <note pos="2867" pan="0" len="9" vol="125" key="19"/>
          <note pos="2879" pan="0" len="9" vol="125" key="31"/>
          <note pos="2891" pan="0" len="9" vol="125" key="31"/>
          <note pos="2903" pan="0" len="9" vol="125" key="17"/>
          <note pos="2915" pan="0" len="9" vol="125" key="17"/>
          <note pos="2927" pan="0" len="9" vol="125" key="29"/>
          <note pos="2939" pan="0" len="9" vol="125" key="29"/>
          <note pos="2951" pan="0" len="9" vol="125" key="17"/>
          <note pos="2963" pan="0" len="9" vol="125" key="17"/>
          <note pos="2975" pan="0" len="9" vol="125" key="29"/>
          <note pos="2987" pan="0" len="9" vol="125" key="29"/>
          <note pos="3095" pan="0" len="19" vol="125" key="24"/>
          <note pos="3119" pan="0" len="19" vol="125" key="36"/>
          <note pos="3143" pan="0" len="19" vol="125" key="24"/>
          <note pos="3167" pan="0" len="19" vol="125" key="36"/>
          <note pos="3191" pan="0" len="19" vol="125" key="24"/>
          <note pos="3215" pan="0" len="19" vol="125" key="36"/>
          <note pos="3239" pan="0" len="19" vol="125" key="24"/>
          <note pos="3263" pan="0" len="19" vol="125" key="36"/>
          <note pos="3287" pan="0" len="19" vol="125" key="17"/>
          <note pos="3311" pan="0" len="19" vol="125" key="29"/>
          <note pos="3335" pan="0" len="19" vol="125" key="17"/>
          <note pos="3359" pan="0" len="19" vol="125" key="29"/>
          <note pos="3383" pan="0" len="38" vol="125" key="19"/>
          <note pos="3479" pan="0" len="19" vol="125" key="24"/>
          <note pos="3503" pan="0" len="19" vol="125" key="36"/>
          <note pos="3527" pan="0" len="19" vol="125" key="24"/>
          <note pos="3551" pan="0" len="19" vol="125" key="36"/>
          <note pos="3575" pan="0" len="19" vol="125" key="24"/>
          <note pos="3599" pan="0" len="19" vol="125" key="36"/>
          <note pos="3623" pan="0" len="19" vol="125" key="24"/>
          <note pos="3647" pan="0" len="19" vol="125" key="36"/>
          <note pos="3671" pan="0" len="19" vol="125" key="17"/>
          <note pos="3695" pan="0" len="19" vol="125" key="29"/>
          <note pos="3719" pan="0" len="19" vol="125" key="17"/>
          <note pos="3743" pan="0" len="19" vol="125" key="29"/>
          <note pos="3767" pan="0" len="38" vol="125" key="19"/>
          <note pos="3863" pan="0" len="9" vol="125" key="21"/>
          <note pos="3875" pan="0" len="9" vol="125" key="21"/>
          <note pos="3887" pan="0" len="9" vol="125" key="33"/>
          <note pos="3899" pan="0" len="9" vol="125" key="33"/>
          <note pos="3911" pan="0" len="9" vol="125" key="21"/>
          <note pos="3923" pan="0" len="9" vol="125" key="21"/>
          <note pos="3935" pan="0" len="9" vol="125" key="33"/>
          <note pos="3947" pan="0" len="9" vol="125" key="33"/>
          <note pos="3959" pan="0" len="9" vol="125" key="19"/>
          <note pos="3971" pan="0" len="9" vol="125" key="19"/>
          <note pos="3983" pan="0" len="9" vol="125" key="31"/>
          <note pos="3995" pan="0" len="9" vol="125" key="31"/>
          <note pos="4007" pan="0" len="9" vol="125" key="19"/>
          <note pos="4019" pan="0" len="9" vol="125" key="19"/>
          <note pos="4031" pan="0" len="9" vol="125" key="31"/>
          <note pos="4043" pan="0" len="9" vol="125" key="31"/>
          <note pos="4055" pan="0" len="9" vol="125" key="17"/>
          <note pos="4067" pan="0" len="9" vol="125" key="17"/>
          <note pos="4079" pan="0" len="9" vol="125" key="29"/>
          <note pos="4091" pan="0" len="9" vol="125" key="29"/>
          <note pos="4103" pan="0" len="9" vol="125" key="17"/>
          <note pos="4115" pan="0" len="9" vol="125" key="17"/>
          <note pos="4127" pan="0" len="9" vol="125" key="29"/>
          <note pos="4139" pan="0" len="9" vol="125" key="29"/>
          <note pos="4151" pan="0" len="9" vol="125" key="17"/>
          <note pos="4163" pan="0" len="9" vol="125" key="17"/>
          <note pos="4175" pan="0" len="9" vol="125" key="29"/>
          <note pos="4187" pan="0" len="9" vol="125" key="29"/>
          <note pos="4199" pan="0" len="9" vol="125" key="17"/>
          <note pos="4211" pan="0" len="9" vol="125" key="17"/>
          <note pos="4223" pan="0" len="9" vol="125" key="31"/>
          <note pos="4235" pan="0" len="9" vol="125" key="31"/>
          <note pos="4247" pan="0" len="9" vol="125" key="21"/>
          <note pos="4259" pan="0" len="9" vol="125" key="21"/>
          <note pos="4271" pan="0" len="9" vol="125" key="33"/>
          <note pos="4283" pan="0" len="9" vol="125" key="33"/>
          <note pos="4295" pan="0" len="9" vol="125" key="21"/>
          <note pos="4307" pan="0" len="9" vol="125" key="21"/>
          <note pos="4319" pan="0" len="9" vol="125" key="33"/>
          <note pos="4331" pan="0" len="9" vol="125" key="33"/>
          <note pos="4343" pan="0" len="9" vol="125" key="19"/>
          <note pos="4355" pan="0" len="9" vol="125" key="19"/>
          <note pos="4367" pan="0" len="9" vol="125" key="31"/>
          <note pos="4379" pan="0" len="9" vol="125" key="31"/>
          <note pos="4391" pan="0" len="9" vol="125" key="19"/>
          <note pos="4403" pan="0" len="9" vol="125" key="19"/>
          <note pos="4415" pan="0" len="9" vol="125" key="31"/>
          <note pos="4427" pan="0" len="9" vol="125" key="31"/>
          <note pos="4439" pan="0" len="9" vol="125" key="17"/>
          <note pos="4451" pan="0" len="9" vol="125" key="17"/>
          <note pos="4463" pan="0" len="9" vol="125" key="29"/>
          <note pos="4475" pan="0" len="9" vol="125" key="29"/>
          <note pos="4487" pan="0" len="9" vol="125" key="17"/>
          <note pos="4499" pan="0" len="9" vol="125" key="17"/>
          <note pos="4511" pan="0" len="9" vol="125" key="29"/>
          <note pos="4523" pan="0" len="9" vol="125" key="29"/>
        </pattern>
      </track>
      <track solo="0" name="Piano" muted="1" type="0">
        <instrumenttrack pitch="0" fxch="0" pan="0" usemasterpitch="1" vol="100" pitchrange="2" basenote="57">
          <instrument name="sf2player">
            <sf2player gain="1" patch="1" chorusDepth="8" reverbDamping="0.2" chorusSpeed="0.30000001" bank="0" reverbRoomSize="0.2" reverbLevel="0.89999998" chorusLevel="2" chorusOn="0" src="soundfonts/GeneralUser GS v1.471.sf2" reverbOn="0" chorusNum="0.89999998" reverbWidth="0.5"/>
          </instrument>
          <eldata ftype="0" fcut="14000" fres="0.5" fwet="0">
            <elvol lspd_syncmode="0" x100="0" amt="0" ctlenvamt="0" dec="0.5" hold="0.5" lpdel="0" lspd_denominator="4" att="0" lamt="0" rel="0.1" lshp="0" userwavefile="" pdel="0" lspd_numerator="4" latt="0" lspd="0.1" sustain="0.5"/>
            <elcut lspd_syncmode="0" x100="0" amt="0" ctlenvamt="0" dec="0.5" hold="0.5" lpdel="0" lspd_denominator="4" att="0" lamt="0" rel="0.1" lshp="0" userwavefile="" pdel="0" lspd_numerator="4" latt="0" lspd="0.1" sustain="0.5"/>
            <elres lspd_syncmode="0" x100="0" amt="0" ctlenvamt="0" dec="0.5" hold="0.5" lpdel="0" lspd_denominator="4" att="0" lamt="0" rel="0.1" lshp="0" userwavefile="" pdel="0" lspd_numerator="4" latt="0" lspd="0.1" sustain="0.5"/>
          </eldata>
          <chordcreator chord-enabled="0" chord="0" chordrange="1"/>
          <arpeggiator arpmode="0" arp-enabled="0" arpskip="0" arptime="200" arptime_numerator="4" arpmiss="0" arpcycle="0" arprange="1" arptime_syncmode="0" arptime_denominator="4" arp="0" arpgate="100" arpdir="0"/>
          <midiport readable="0" outputcontroller="0" fixedinputvelocity="-1" basevelocity="63" inputchannel="0" outputchannel="1" writable="0" fixedoutputnote="-1" inputcontroller="0" outputprogram="1" fixedoutputvelocity="-1"/>
          <fxchain enabled="0" numofeffects="0"/>
        </instrumenttrack>
        <pattern pos="0" name="Piano" muted="0" type="1" steps="16">
          <note pos="24" pan="0" len="19" vol="125" key="12"/>
          <note pos="72" pan="0" len="19" vol="125" key="12"/>
          <note pos="120" pan="0" len="19" vol="125" key="12"/>
          <note pos="168" pan="0" len="19" vol="125" key="12"/>
          <note pos="216" pan="0" len="19" vol="125" key="17"/>
          <note pos="264" pan="0" len="19" vol="125" key="17"/>
          <note pos="312" pan="0" len="19" vol="125" key="19"/>
          <note pos="408" pan="0" len="19" vol="125" key="12"/>
          <note pos="456" pan="0" len="19" vol="125" key="12"/>
          <note pos="504" pan="0" len="19" vol="125" key="12"/>
          <note pos="552" pan="0" len="19" vol="125" key="12"/>
          <note pos="600" pan="0" len="19" vol="125" key="17"/>
          <note pos="648" pan="0" len="19" vol="125" key="17"/>
          <note pos="696" pan="0" len="19" vol="125" key="19"/>
          <note pos="792" pan="0" len="19" vol="125" key="21"/>
          <note pos="840" pan="0" len="19" vol="125" key="21"/>
          <note pos="888" pan="0" len="19" vol="125" key="19"/>
          <note pos="936" pan="0" len="19" vol="125" key="19"/>
          <note pos="984" pan="0" len="19" vol="125" key="17"/>
          <note pos="1032" pan="0" len="19" vol="125" key="17"/>
          <note pos="1080" pan="0" len="19" vol="125" key="17"/>
          <note pos="1128" pan="0" len="19" vol="125" key="19"/>
          <note pos="1176" pan="0" len="19" vol="125" key="21"/>
          <note pos="1224" pan="0" len="19" vol="125" key="21"/>
          <note pos="1272" pan="0" len="19" vol="125" key="19"/>
          <note pos="1320" pan="0" len="19" vol="125" key="19"/>
          <note pos="1368" pan="0" len="19" vol="125" key="17"/>
          <note pos="1416" pan="0" len="19" vol="125" key="17"/>
          <note pos="1559" pan="0" len="19" vol="125" key="12"/>
          <note pos="1607" pan="0" len="19" vol="125" key="12"/>
          <note pos="1655" pan="0" len="19" vol="125" key="12"/>
          <note pos="1703" pan="0" len="19" vol="125" key="12"/>
          <note pos="1751" pan="0" len="19" vol="125" key="17"/>
          <note pos="1799" pan="0" len="19" vol="125" key="17"/>
          <note pos="1847" pan="0" len="19" vol="125" key="19"/>
          <note pos="1943" pan="0" len="19" vol="125" key="12"/>
          <note pos="1991" pan="0" len="19" vol="125" key="12"/>
          <note pos="2039" pan="0" len="19" vol="125" key="12"/>
          <note pos="2087" pan="0" len="19" vol="125" key="12"/>
          <note pos="2135" pan="0" len="19" vol="125" key="17"/>
          <note pos="2183" pan="0" len="19" vol="125" key="17"/>
          <note pos="2231" pan="0" len="19" vol="125" key="19"/>
          <note pos="2327" pan="0" len="19" vol="125" key="21"/>
          <note pos="2375" pan="0" len="19" vol="125" key="21"/>
          <note pos="2423" pan="0" len="19" vol="125" key="19"/>
          <note pos="2471" pan="0" len="19" vol="125" key="19"/>
          <note pos="2519" pan="0" len="19" vol="125" key="17"/>
          <note pos="2567" pan="0" len="19" vol="125" key="17"/>
          <note pos="2615" pan="0" len="19" vol="125" key="17"/>
          <note pos="2663" pan="0" len="19" vol="125" key="19"/>
          <note pos="2711" pan="0" len="19" vol="125" key="21"/>
          <note pos="2759" pan="0" len="19" vol="125" key="21"/>
          <note pos="2807" pan="0" len="19" vol="125" key="19"/>
          <note pos="2855" pan="0" len="19" vol="125" key="19"/>
          <note pos="2903" pan="0" len="19" vol="125" key="17"/>
          <note pos="2951" pan="0" len="19" vol="125" key="17"/>
          <note pos="3095" pan="0" len="19" vol="125" key="12"/>
          <note pos="3143" pan="0" len="19" vol="125" key="12"/>
          <note pos="3191" pan="0" len="19" vol="125" key="12"/>
          <note pos="3239" pan="0" len="19" vol="125" key="12"/>
          <note pos="3287" pan="0" len="19" vol="125" key="17"/>
          <note pos="3335" pan="0" len="19" vol="125" key="17"/>
          <note pos="3383" pan="0" len="19" vol="125" key="19"/>
          <note pos="3479" pan="0" len="19" vol="125" key="12"/>
          <note pos="3527" pan="0" len="19" vol="125" key="12"/>
          <note pos="3575" pan="0" len="19" vol="125" key="12"/>
          <note pos="3623" pan="0" len="19" vol="125" key="12"/>
          <note pos="3671" pan="0" len="19" vol="125" key="17"/>
          <note pos="3719" pan="0" len="19" vol="125" key="17"/>
          <note pos="3767" pan="0" len="19" vol="125" key="19"/>
          <note pos="3863" pan="0" len="19" vol="125" key="21"/>
          <note pos="3911" pan="0" len="19" vol="125" key="21"/>
          <note pos="3959" pan="0" len="19" vol="125" key="19"/>
          <note pos="4007" pan="0" len="19" vol="125" key="19"/>
          <note pos="4055" pan="0" len="19" vol="125" key="17"/>
          <note pos="4103" pan="0" len="19" vol="125" key="17"/>
          <note pos="4151" pan="0" len="19" vol="125" key="17"/>
          <note pos="4199" pan="0" len="19" vol="125" key="19"/>
          <note pos="4247" pan="0" len="19" vol="125" key="21"/>
          <note pos="4295" pan="0" len="19" vol="125" key="21"/>
          <note pos="4343" pan="0" len="19" vol="125" key="19"/>
          <note pos="4391" pan="0" len="19" vol="125" key="19"/>
          <note pos="4439" pan="0" len="19" vol="125" key="17"/>
          <note pos="4487" pan="0" len="19" vol="125" key="17"/>
        </pattern>
      </track>
      <track solo="0" name="Flute" muted="1" type="0">
        <instrumenttrack pitch="0" fxch="0" pan="0" usemasterpitch="1" pitchrange="2" basenote="57">
          <vol scale_type="linear" id="1502458" value="100"/>
          <instrument name="sf2player">
            <sf2player gain="1" patch="73" chorusDepth="8" reverbDamping="0.2" chorusSpeed="0.30000001" bank="0" reverbRoomSize="0.2" reverbLevel="0.89999998" chorusLevel="2" chorusOn="0" src="soundfonts/GeneralUser GS v1.471.sf2" reverbOn="0" chorusNum="0.89999998" reverbWidth="0.5"/>
          </instrument>
          <eldata ftype="0" fcut="14000" fres="0.5" fwet="0">
            <elvol lspd_syncmode="0" x100="0" amt="0" ctlenvamt="0" dec="0.5" hold="0.5" lpdel="0" lspd_denominator="4" att="0" lamt="0" rel="0.1" lshp="0" userwavefile="" pdel="0" lspd_numerator="4" latt="0" lspd="0.1" sustain="0.5"/>
            <elcut lspd_syncmode="0" x100="0" amt="0" ctlenvamt="0" dec="0.5" hold="0.5" lpdel="0" lspd_denominator="4" att="0" lamt="0" rel="0.1" lshp="0" userwavefile="" pdel="0" lspd_numerator="4" latt="0" lspd="0.1" sustain="0.5"/>
            <elres lspd_syncmode="0" x100="0" amt="0" ctlenvamt="0" dec="0.5" hold="0.5" lpdel="0" lspd_denominator="4" att="0" lamt="0" rel="0.1" lshp="0" userwavefile="" pdel="0" lspd_numerator="4" latt="0" lspd="0.1" sustain="0.5"/>
          </eldata>
          <chordcreator chord-enabled="0" chord="0" chordrange="1"/>
          <arpeggiator arpmode="0" arp-enabled="0" arpskip="0" arptime="200" arptime_numerator="4" arpmiss="0" arpcycle="0" arprange="1" arptime_syncmode="0" arptime_denominator="4" arp="0" arpgate="100" arpdir="0"/>
          <midiport readable="0" outputcontroller="0" fixedinputvelocity="-1" basevelocity="63" inputchannel="0" outputchannel="1" writable="0" fixedoutputnote="-1" inputcontroller="0" outputprogram="1" fixedoutputvelocity="-1"/>
          <fxchain enabled="0" numofeffects="0"/>
        </instrumenttrack>
        <pattern pos="768" name="Flute" muted="0" type="1" steps="16">
          <note pos="24" pan="0" len="38" vol="125" key="72"/>
          <note pos="72" pan="0" len="19" vol="125" key="74"/>
          <note pos="96" pan="0" len="38" vol="125" key="76"/>
          <note pos="144" pan="0" len="19" vol="125" key="72"/>
          <note pos="168" pan="0" len="19" vol="125" key="74"/>
          <note pos="192" pan="0" len="177" vol="125" key="72"/>
          <note pos="408" pan="0" len="38" vol="125" key="72"/>
          <note pos="456" pan="0" len="19" vol="125" key="74"/>
          <note pos="480" pan="0" len="38" vol="125" key="79"/>
          <note pos="528" pan="0" len="19" vol="125" key="72"/>
          <note pos="552" pan="0" len="19" vol="125" key="74"/>
          <note pos="576" pan="0" len="100" vol="125" key="72"/>
        </pattern>
        <pattern pos="2304" name="Flute" muted="0" type="1" steps="16">
          <note pos="23" pan="0" len="38" vol="125" key="72"/>
          <note pos="71" pan="0" len="19" vol="125" key="74"/>
          <note pos="95" pan="0" len="38" vol="125" key="76"/>
          <note pos="143" pan="0" len="19" vol="125" key="72"/>
          <note pos="167" pan="0" len="19" vol="125" key="74"/>
          <note pos="191" pan="0" len="177" vol="125" key="72"/>
          <note pos="407" pan="0" len="38" vol="125" key="72"/>
          <note pos="455" pan="0" len="19" vol="125" key="74"/>
          <note pos="479" pan="0" len="38" vol="125" key="79"/>
          <note pos="527" pan="0" len="19" vol="125" key="72"/>
          <note pos="551" pan="0" len="19" vol="125" key="74"/>
          <note pos="575" pan="0" len="100" vol="125" key="72"/>
        </pattern>
        <pattern pos="3840" name="Flute" muted="0" type="1" steps="16">
          <note pos="23" pan="0" len="38" vol="125" key="72"/>
          <note pos="71" pan="0" len="19" vol="125" key="74"/>
          <note pos="95" pan="0" len="38" vol="125" key="76"/>
          <note pos="143" pan="0" len="19" vol="125" key="72"/>
          <note pos="167" pan="0" len="19" vol="125" key="74"/>
          <note pos="191" pan="0" len="177" vol="125" key="72"/>
          <note pos="407" pan="0" len="38" vol="125" key="72"/>
          <note pos="455" pan="0" len="19" vol="125" key="74"/>
          <note pos="479" pan="0" len="38" vol="125" key="79"/>
          <note pos="527" pan="0" len="19" vol="125" key="72"/>
          <note pos="551" pan="0" len="19" vol="125" key="74"/>
          <note pos="575" pan="0" len="100" vol="125" key="72"/>
        </pattern>
      </track>
      <track solo="0" name="Flute > Volume" muted="1" type="5">
        <automationtrack/>
        <automationpattern pos="768" name="Flute>Volume" tens="1" len="384" mute="0" prog="0">
          <time pos="0" value="100"/>
          <time pos="188" value="50.3937"/>
          <time pos="190" value="51.181103"/>
          <time pos="192" value="52.755905"/>
          <time pos="194" value="53.543308"/>
          <time pos="195" value="54.330708"/>
          <time pos="196" value="55.118111"/>
          <time pos="197" value="55.90551"/>
          <time pos="199" value="56.692913"/>
          <time pos="200" value="57.480316"/>
          <time pos="201" value="58.267715"/>
          <time pos="202" value="59.055119"/>
          <time pos="204" value="60.629921"/>
          <time pos="206" value="61.417324"/>
          <time pos="207" value="62.204723"/>
          <time pos="208" value="62.992126"/>
          <time pos="209" value="63.779526"/>
          <time pos="211" value="64.566933"/>
          <time pos="212" value="65.354332"/>
          <time pos="213" value="66.141731"/>
          <time pos="214" value="66.929131"/>
          <time pos="216" value="68.503937"/>
          <time pos="218" value="69.291336"/>
          <time pos="219" value="70.078743"/>
          <time pos="220" value="70.866142"/>
          <time pos="221" value="71.653542"/>
          <time pos="223" value="72.440948"/>
          <time pos="224" value="73.228348"/>
          <time pos="225" value="74.015747"/>
          <time pos="226" value="74.803146"/>
          <time pos="228" value="76.377953"/>
          <time pos="230" value="77.165352"/>
          <time pos="231" value="77.952759"/>
          <time pos="232" value="78.740158"/>
          <time pos="233" value="79.527557"/>
          <time pos="235" value="80.314964"/>
          <time pos="236" value="81.102364"/>
          <time pos="237" value="81.889763"/>
          <time pos="238" value="82.677162"/>
          <time pos="240" value="84.251968"/>
          <time pos="242" value="85.039368"/>
          <time pos="243" value="85.826775"/>
          <time pos="244" value="86.614174"/>
          <time pos="245" value="87.401573"/>
          <time pos="247" value="88.18898"/>
          <time pos="248" value="88.976379"/>
          <time pos="249" value="89.763779"/>
          <time pos="250" value="90.551178"/>
          <time pos="252" value="92.125984"/>
          <time pos="254" value="92.913383"/>
          <time pos="255" value="93.70079"/>
          <time pos="256" value="94.48819"/>
          <time pos="257" value="95.275589"/>
          <time pos="259" value="96.062996"/>
          <time pos="260" value="96.850395"/>
          <time pos="261" value="97.637794"/>
          <time pos="262" value="98.425194"/>
          <time pos="264" value="100"/>
          <object id="1502458"/>
        </automationpattern>
        <automationpattern pos="1152" name="Flute>Volume" tens="1" len="384" mute="0" prog="0">
          <time pos="0" value="100"/>
          <time pos="188" value="50.3937"/>
          <time pos="189" value="51.181103"/>
          <time pos="191" value="51.968502"/>
          <time pos="192" value="52.755905"/>
          <time pos="193" value="53.543308"/>
          <time pos="194" value="54.330708"/>
          <time pos="196" value="55.90551"/>
          <time pos="198" value="56.692913"/>
          <time pos="199" value="57.480316"/>
          <time pos="200" value="58.267715"/>
          <time pos="201" value="59.055119"/>
          <time pos="203" value="59.842518"/>
          <time pos="204" value="60.629921"/>
          <time pos="205" value="61.417324"/>
          <time pos="206" value="62.204723"/>
          <time pos="208" value="63.779526"/>
          <time pos="210" value="64.566933"/>
          <time pos="211" value="65.354332"/>
          <time pos="212" value="66.141731"/>
          <time pos="213" value="66.929131"/>
          <time pos="215" value="67.716537"/>
          <time pos="216" value="68.503937"/>
          <time pos="217" value="69.291336"/>
          <time pos="218" value="70.078743"/>
          <time pos="220" value="71.653542"/>
          <time pos="222" value="72.440948"/>
          <time pos="223" value="73.228348"/>
          <time pos="224" value="74.015747"/>
          <time pos="225" value="74.803146"/>
          <time pos="227" value="75.590553"/>
          <time pos="228" value="76.377953"/>
          <time pos="229" value="77.165352"/>
          <time pos="230" value="77.952759"/>
          <time pos="232" value="79.527557"/>
          <time pos="234" value="80.314964"/>
          <time pos="235" value="81.102364"/>
          <time pos="236" value="81.889763"/>
          <time pos="237" value="82.677162"/>
          <time pos="239" value="83.464569"/>
          <time pos="240" value="84.251968"/>
          <time pos="241" value="85.039368"/>
          <time pos="242" value="85.826775"/>
          <time pos="244" value="87.401573"/>
          <time pos="246" value="88.18898"/>
          <time pos="247" value="88.976379"/>
          <time pos="248" value="89.763779"/>
          <time pos="249" value="90.551178"/>
          <time pos="251" value="91.338585"/>
          <time pos="252" value="92.125984"/>
          <time pos="253" value="92.913383"/>
          <time pos="254" value="93.70079"/>
          <time pos="256" value="95.275589"/>
          <time pos="258" value="96.062996"/>
          <time pos="259" value="96.850395"/>
          <time pos="260" value="97.637794"/>
          <time pos="261" value="98.425194"/>
          <time pos="263" value="99.212601"/>
          <time pos="264" value="100"/>
          <object id="1502458"/>
        </automationpattern>
        <automationpattern pos="2304" name="Flute>Volume" tens="1" len="384" mute="0" prog="0">
          <time pos="0" value="100"/>
          <time pos="188" value="50.3937"/>
          <time pos="190" value="51.181103"/>
          <time pos="191" value="51.968502"/>
          <time pos="192" value="52.755905"/>
          <time pos="194" value="54.330708"/>
          <time pos="196" value="55.118111"/>
          <time pos="197" value="55.90551"/>
          <time pos="198" value="56.692913"/>
          <time pos="199" value="57.480316"/>
          <time pos="201" value="58.267715"/>
          <time pos="202" value="59.055119"/>
          <time pos="203" value="59.842518"/>
          <time pos="204" value="60.629921"/>
          <time pos="206" value="62.204723"/>
          <time pos="208" value="62.992126"/>
          <time pos="209" value="63.779526"/>
          <time pos="210" value="64.566933"/>
          <time pos="211" value="65.354332"/>
          <time pos="213" value="66.141731"/>
          <time pos="214" value="66.929131"/>
          <time pos="215" value="67.716537"/>
          <time pos="216" value="68.503937"/>
          <time pos="218" value="70.078743"/>
          <time pos="220" value="70.866142"/>
          <time pos="221" value="71.653542"/>
          <time pos="222" value="72.440948"/>
          <time pos="223" value="73.228348"/>
          <time pos="225" value="74.015747"/>
          <time pos="226" value="74.803146"/>
          <time pos="227" value="75.590553"/>
          <time pos="228" value="76.377953"/>
          <time pos="230" value="77.952759"/>
          <time pos="232" value="78.740158"/>
          <time pos="233" value="79.527557"/>
          <time pos="234" value="80.314964"/>
          <time pos="235" value="81.102364"/>
          <time pos="237" value="81.889763"/>
          <time pos="238" value="82.677162"/>
          <time pos="239" value="83.464569"/>
          <time pos="240" value="84.251968"/>
          <time pos="242" value="85.826775"/>
          <time pos="244" value="86.614174"/>
          <time pos="245" value="87.401573"/>
          <time pos="246" value="88.18898"/>
          <time pos="247" value="88.976379"/>
          <time pos="249" value="89.763779"/>
          <time pos="250" value="90.551178"/>
          <time pos="251" value="91.338585"/>
          <time pos="252" value="92.125984"/>
          <time pos="254" value="93.70079"/>
          <time pos="256" value="94.48819"/>
          <time pos="257" value="95.275589"/>
          <time pos="258" value="96.062996"/>
          <time pos="259" value="96.850395"/>
          <time pos="261" value="97.637794"/>
          <time pos="262" value="98.425194"/>
          <time pos="263" value="99.212601"/>
          <time pos="264" value="100"/>
          <object id="1502458"/>
        </automationpattern>
        <automationpattern pos="2688" name="Flute>Volume" tens="1" len="384" mute="0" prog="0">
          <time pos="0" value="100"/>
          <time pos="187" value="50.3937"/>
          <time pos="189" value="51.181103"/>
          <time pos="190" value="51.968502"/>
          <time pos="191" value="52.755905"/>
          <time pos="193" value="53.543308"/>
          <time pos="194" value="54.330708"/>
          <time pos="195" value="55.118111"/>
          <time pos="196" value="55.90551"/>
          <time pos="198" value="57.480316"/>
          <time pos="200" value="58.267715"/>
          <time pos="201" value="59.055119"/>
          <time pos="202" value="59.842518"/>
          <time pos="203" value="60.629921"/>
          <time pos="205" value="61.417324"/>
          <time pos="206" value="62.204723"/>
          <time pos="207" value="62.992126"/>
          <time pos="208" value="63.779526"/>
          <time pos="210" value="65.354332"/>
          <time pos="212" value="66.141731"/>
          <time pos="213" value="66.929131"/>
          <time pos="214" value="67.716537"/>
          <time pos="215" value="68.503937"/>
          <time pos="217" value="69.291336"/>
          <time pos="218" value="70.078743"/>
          <time pos="219" value="70.866142"/>
          <time pos="220" value="71.653542"/>
          <time pos="222" value="73.228348"/>
          <time pos="224" value="74.015747"/>
          <time pos="225" value="74.803146"/>
          <time pos="226" value="75.590553"/>
          <time pos="227" value="76.377953"/>
          <time pos="229" value="77.165352"/>
          <time pos="230" value="77.952759"/>
          <time pos="231" value="78.740158"/>
          <time pos="232" value="79.527557"/>
          <time pos="234" value="81.102364"/>
          <time pos="236" value="81.889763"/>
          <time pos="237" value="82.677162"/>
          <time pos="238" value="83.464569"/>
          <time pos="239" value="84.251968"/>
          <time pos="241" value="85.039368"/>
          <time pos="242" value="85.826775"/>
          <time pos="243" value="86.614174"/>
          <time pos="244" value="87.401573"/>
          <time pos="246" value="88.976379"/>
          <time pos="248" value="89.763779"/>
          <time pos="249" value="90.551178"/>
          <time pos="250" value="91.338585"/>
          <time pos="251" value="92.125984"/>
          <time pos="253" value="92.913383"/>
          <time pos="254" value="93.70079"/>
          <time pos="255" value="94.48819"/>
          <time pos="256" value="95.275589"/>
          <time pos="258" value="96.850395"/>
          <time pos="260" value="97.637794"/>
          <time pos="261" value="98.425194"/>
          <time pos="262" value="99.212601"/>
          <time pos="263" value="100"/>
          <object id="1502458"/>
        </automationpattern>
        <automationpattern pos="3840" name="Flute>Volume" tens="1" len="384" mute="0" prog="0">
          <time pos="0" value="100"/>
          <time pos="188" value="50.3937"/>
          <time pos="190" value="51.181103"/>
          <time pos="191" value="51.968502"/>
          <time pos="192" value="52.755905"/>
          <time pos="194" value="54.330708"/>
          <time pos="196" value="55.118111"/>
          <time pos="197" value="55.90551"/>
          <time pos="198" value="56.692913"/>
          <time pos="199" value="57.480316"/>
          <time pos="201" value="58.267715"/>
          <time pos="202" value="59.055119"/>
          <time pos="203" value="59.842518"/>
          <time pos="204" value="60.629921"/>
          <time pos="206" value="62.204723"/>
          <time pos="208" value="62.992126"/>
          <time pos="209" value="63.779526"/>
          <time pos="210" value="64.566933"/>
          <time pos="211" value="65.354332"/>
          <time pos="213" value="66.141731"/>
          <time pos="214" value="66.929131"/>
          <time pos="215" value="67.716537"/>
          <time pos="216" value="68.503937"/>
          <time pos="218" value="70.078743"/>
          <time pos="220" value="70.866142"/>
          <time pos="221" value="71.653542"/>
          <time pos="222" value="72.440948"/>
          <time pos="223" value="73.228348"/>
          <time pos="225" value="74.015747"/>
          <time pos="226" value="74.803146"/>
          <time pos="227" value="75.590553"/>
          <time pos="228" value="76.377953"/>
          <time pos="230" value="77.952759"/>
          <time pos="232" value="78.740158"/>
          <time pos="233" value="79.527557"/>
          <time pos="234" value="80.314964"/>
          <time pos="235" value="81.102364"/>
          <time pos="237" value="81.889763"/>
          <time pos="238" value="82.677162"/>
          <time pos="239" value="83.464569"/>
          <time pos="240" value="84.251968"/>
          <time pos="242" value="85.826775"/>
          <time pos="244" value="86.614174"/>
          <time pos="245" value="87.401573"/>
          <time pos="246" value="88.18898"/>
          <time pos="247" value="88.976379"/>
          <time pos="249" value="89.763779"/>
          <time pos="250" value="90.551178"/>
          <time pos="251" value="91.338585"/>
          <time pos="252" value="92.125984"/>
          <time pos="254" value="93.70079"/>
          <time pos="256" value="94.48819"/>
          <time pos="257" value="95.275589"/>
          <time pos="258" value="96.062996"/>
          <time pos="259" value="96.850395"/>
          <time pos="261" value="97.637794"/>
          <time pos="262" value="98.425194"/>
          <time pos="263" value="99.212601"/>
          <time pos="264" value="100"/>
          <object id="1502458"/>
        </automationpattern>
        <automationpattern pos="4224" name="Flute>Volume" tens="1" len="384" mute="0" prog="0">
          <time pos="0" value="100"/>
          <time pos="187" value="50.3937"/>
          <time pos="189" value="51.181103"/>
          <time pos="190" value="51.968502"/>
          <time pos="191" value="52.755905"/>
          <time pos="193" value="53.543308"/>
          <time pos="194" value="54.330708"/>
          <time pos="195" value="55.118111"/>
          <time pos="196" value="55.90551"/>
          <time pos="198" value="57.480316"/>
          <time pos="200" value="58.267715"/>
          <time pos="201" value="59.055119"/>
          <time pos="202" value="59.842518"/>
          <time pos="203" value="60.629921"/>
          <time pos="205" value="61.417324"/>
          <time pos="206" value="62.204723"/>
          <time pos="207" value="62.992126"/>
          <time pos="208" value="63.779526"/>
          <time pos="210" value="65.354332"/>
          <time pos="212" value="66.141731"/>
          <time pos="213" value="66.929131"/>
          <time pos="214" value="67.716537"/>
          <time pos="215" value="68.503937"/>
          <time pos="217" value="69.291336"/>
          <time pos="218" value="70.078743"/>
          <time pos="219" value="70.866142"/>
          <time pos="220" value="71.653542"/>
          <time pos="222" value="73.228348"/>
          <time pos="224" value="74.015747"/>
          <time pos="225" value="74.803146"/>
          <time pos="226" value="75.590553"/>
          <time pos="227" value="76.377953"/>
          <time pos="229" value="77.165352"/>
          <time pos="230" value="77.952759"/>
          <time pos="231" value="78.740158"/>
          <time pos="232" value="79.527557"/>
          <time pos="234" value="81.102364"/>
          <time pos="236" value="81.889763"/>
          <time pos="237" value="82.677162"/>
          <time pos="238" value="83.464569"/>
          <time pos="239" value="84.251968"/>
          <time pos="241" value="85.039368"/>
          <time pos="242" value="85.826775"/>
          <time pos="243" value="86.614174"/>
          <time pos="244" value="87.401573"/>
          <time pos="246" value="88.976379"/>
          <time pos="248" value="89.763779"/>
          <time pos="249" value="90.551178"/>
          <time pos="250" value="91.338585"/>
          <time pos="251" value="92.125984"/>
          <time pos="253" value="92.913383"/>
          <time pos="254" value="93.70079"/>
          <time pos="255" value="94.48819"/>
          <time pos="256" value="95.275589"/>
          <time pos="258" value="96.850395"/>
          <time pos="260" value="97.637794"/>
          <time pos="261" value="98.425194"/>
          <time pos="262" value="99.212601"/>
          <time pos="263" value="100"/>
          <object id="1502458"/>
        </automationpattern>
      </track>
      <track solo="0" name="Trumpet" muted="1" type="0">
        <instrumenttrack fxch="0" pan="25.984251" usemasterpitch="1" vol="100" pitchrange="2" basenote="57">
          <pitch scale_type="linear" id="863064" value="0"/>
          <instrument name="sf2player">
            <sf2player gain="1" patch="56" chorusDepth="8" reverbDamping="0.2" chorusSpeed="0.30000001" bank="0" reverbRoomSize="0.2" reverbLevel="0.89999998" chorusLevel="2" chorusOn="0" src="soundfonts/GeneralUser GS v1.471.sf2" reverbOn="0" chorusNum="0.89999998" reverbWidth="0.5"/>
          </instrument>
          <eldata ftype="0" fcut="14000" fres="0.5" fwet="0">
            <elvol lspd_syncmode="0" x100="0" amt="0" ctlenvamt="0" dec="0.5" hold="0.5" lpdel="0" lspd_denominator="4" att="0" lamt="0" rel="0.1" lshp="0" userwavefile="" pdel="0" lspd_numerator="4" latt="0" lspd="0.1" sustain="0.5"/>
            <elcut lspd_syncmode="0" x100="0" amt="0" ctlenvamt="0" dec="0.5" hold="0.5" lpdel="0" lspd_denominator="4" att="0" lamt="0" rel="0.1" lshp="0" userwavefile="" pdel="0" lspd_numerator="4" latt="0" lspd="0.1" sustain="0.5"/>
            <elres lspd_syncmode="0" x100="0" amt="0" ctlenvamt="0" dec="0.5" hold="0.5" lpdel="0" lspd_denominator="4" att="0" lamt="0" rel="0.1" lshp="0" userwavefile="" pdel="0" lspd_numerator="4" latt="0" lspd="0.1" sustain="0.5"/>
          </eldata>
          <chordcreator chord-enabled="0" chord="0" chordrange="1"/>
          <arpeggiator arpmode="0" arp-enabled="0" arpskip="0" arptime="200" arptime_numerator="4" arpmiss="0" arpcycle="0" arprange="1" arptime_syncmode="0" arptime_denominator="4" arp="0" arpgate="100" arpdir="0"/>
          <midiport readable="0" outputcontroller="0" fixedinputvelocity="-1" basevelocity="63" inputchannel="0" outputchannel="1" writable="0" fixedoutputnote="-1" inputcontroller="0" outputprogram="1" fixedoutputvelocity="-1"/>
          <fxchain enabled="0" numofeffects="0"/>
        </instrumenttrack>
        <pattern pos="192" name="Trumpet" muted="0" type="1" steps="16">
          <note pos="144" pan="0" len="4" vol="125" key="67"/>
          <note pos="144" pan="0" len="4" vol="125" key="62"/>
          <note pos="144" pan="0" len="4" vol="125" key="57"/>
          <note pos="156" pan="0" len="4" vol="125" key="67"/>
          <note pos="156" pan="0" len="4" vol="125" key="62"/>
          <note pos="156" pan="0" len="4" vol="125" key="57"/>
          <note pos="168" pan="0" len="19" vol="125" key="67"/>
          <note pos="168" pan="0" len="19" vol="125" key="62"/>
          <note pos="168" pan="0" len="19" vol="125" key="59"/>
        </pattern>
        <pattern pos="576" name="Trumpet" muted="0" type="1" steps="16">
          <note pos="168" pan="0" len="48" vol="125" key="67"/>
          <note pos="168" pan="0" len="48" vol="125" key="62"/>
          <note pos="168" pan="0" len="48" vol="125" key="59"/>
        </pattern>
        <pattern pos="1344" name="Trumpet" muted="0" type="1" steps="16">
          <note pos="120" pan="0" len="6" vol="125" key="74"/>
          <note pos="120" pan="0" len="6" vol="125" key="71"/>
          <note pos="120" pan="0" len="6" vol="125" key="55"/>
          <note pos="132" pan="0" len="11" vol="125" key="74"/>
          <note pos="132" pan="0" len="11" vol="125" key="71"/>
          <note pos="132" pan="0" len="11" vol="125" key="67"/>
          <note pos="156" pan="0" len="6" vol="125" key="76"/>
          <note pos="156" pan="0" len="6" vol="125" key="72"/>
          <note pos="156" pan="0" len="6" vol="125" key="55"/>
          <note pos="168" pan="0" len="19" vol="125" key="74"/>
          <note pos="168" pan="0" len="19" vol="125" key="71"/>
          <note pos="168" pan="0" len="19" vol="125" key="67"/>
        </pattern>
        <pattern pos="1728" name="Trumpet" muted="0" type="1" steps="16">
          <note pos="143" pan="0" len="4" vol="125" key="67"/>
          <note pos="143" pan="0" len="4" vol="125" key="62"/>
          <note pos="143" pan="0" len="4" vol="125" key="57"/>
          <note pos="155" pan="0" len="4" vol="125" key="67"/>
          <note pos="155" pan="0" len="4" vol="125" key="62"/>
          <note pos="155" pan="0" len="4" vol="125" key="57"/>
          <note pos="167" pan="0" len="19" vol="125" key="67"/>
          <note pos="167" pan="0" len="19" vol="125" key="62"/>
          <note pos="167" pan="0" len="19" vol="125" key="59"/>
        </pattern>
        <pattern pos="2112" name="Trumpet" muted="0" type="1" steps="16">
          <note pos="167" pan="0" len="48" vol="125" key="67"/>
          <note pos="167" pan="0" len="48" vol="125" key="62"/>
          <note pos="167" pan="0" len="48" vol="125" key="59"/>
        </pattern>
        <pattern pos="2880" name="Trumpet" muted="0" type="1" steps="16">
          <note pos="120" pan="0" len="6" vol="125" key="74"/>
          <note pos="120" pan="0" len="6" vol="125" key="71"/>
          <note pos="120" pan="0" len="6" vol="125" key="55"/>
          <note pos="132" pan="0" len="11" vol="125" key="74"/>
          <note pos="132" pan="0" len="11" vol="125" key="71"/>
          <note pos="132" pan="0" len="11" vol="125" key="67"/>
          <note pos="156" pan="0" len="6" vol="125" key="76"/>
          <note pos="156" pan="0" len="6" vol="125" key="72"/>
          <note pos="156" pan="0" len="6" vol="125" key="55"/>
          <note pos="168" pan="0" len="19" vol="125" key="74"/>
          <note pos="168" pan="0" len="19" vol="125" key="71"/>
          <note pos="168" pan="0" len="19" vol="125" key="67"/>
        </pattern>
        <pattern pos="3264" name="Trumpet" muted="0" type="1" steps="16">
          <note pos="143" pan="0" len="4" vol="125" key="67"/>
          <note pos="143" pan="0" len="4" vol="125" key="62"/>
          <note pos="143" pan="0" len="4" vol="125" key="57"/>
          <note pos="155" pan="0" len="4" vol="125" key="67"/>
          <note pos="155" pan="0" len="4" vol="125" key="62"/>
          <note pos="155" pan="0" len="4" vol="125" key="57"/>
          <note pos="167" pan="0" len="19" vol="125" key="67"/>
          <note pos="167" pan="0" len="19" vol="125" key="62"/>
          <note pos="167" pan="0" len="19" vol="125" key="59"/>
        </pattern>
        <pattern pos="3648" name="Trumpet" muted="0" type="1" steps="16">
          <note pos="167" pan="0" len="48" vol="125" key="67"/>
          <note pos="167" pan="0" len="48" vol="125" key="62"/>
          <note pos="167" pan="0" len="48" vol="125" key="59"/>
        </pattern>
        <pattern pos="4416" name="Trumpet" muted="0" type="1" steps="16">
          <note pos="120" pan="0" len="6" vol="125" key="74"/>
          <note pos="120" pan="0" len="6" vol="125" key="71"/>
          <note pos="120" pan="0" len="6" vol="125" key="55"/>
          <note pos="132" pan="0" len="11" vol="125" key="74"/>
          <note pos="132" pan="0" len="11" vol="125" key="71"/>
          <note pos="132" pan="0" len="11" vol="125" key="67"/>
          <note pos="156" pan="0" len="6" vol="125" key="76"/>
          <note pos="156" pan="0" len="6" vol="125" key="72"/>
          <note pos="156" pan="0" len="6" vol="125" key="55"/>
          <note pos="168" pan="0" len="19" vol="125" key="74"/>
          <note pos="168" pan="0" len="19" vol="125" key="71"/>
          <note pos="168" pan="0" len="19" vol="125" key="67"/>
        </pattern>
      </track>
      <track solo="0" name="Trumpet > Pitch" muted="1" type="5">
        <automationtrack/>
        <automationpattern pos="576" name="Trumpet>Pitch" tens="1" len="384" mute="0" prog="0">
          <time pos="0" value="0"/>
          <time pos="190" value="0"/>
          <time pos="192" value="-7.8125"/>
          <time pos="194" value="-12.5"/>
          <time pos="195" value="-17.1875"/>
          <time pos="196" value="-21.875"/>
          <time pos="197" value="-26.5625"/>
          <time pos="198" value="-31.25"/>
          <time pos="199" value="-34.375"/>
          <time pos="200" value="-39.0625"/>
          <time pos="201" value="-43.75"/>
          <time pos="202" value="-48.4375"/>
          <time pos="204" value="-57.8125"/>
          <time pos="206" value="-62.5"/>
          <time pos="207" value="-65.625"/>
          <time pos="208" value="-70.3125"/>
          <time pos="209" value="-75"/>
          <time pos="210" value="-79.6875"/>
          <time pos="211" value="-84.375"/>
          <time pos="212" value="-89.0625"/>
          <time pos="213" value="-93.75"/>
          <time pos="214" value="-98.4375"/>
          <time pos="220" value="0"/>
          <object id="863064"/>
        </automationpattern>
        <automationpattern pos="2112" name="Trumpet>Pitch" tens="1" len="384" mute="0" prog="0">
          <time pos="0" value="0"/>
          <time pos="190" value="0"/>
          <time pos="191" value="-3.125"/>
          <time pos="192" value="-7.8125"/>
          <time pos="193" value="-12.5"/>
          <time pos="194" value="-17.1875"/>
          <time pos="196" value="-26.5625"/>
          <time pos="198" value="-31.25"/>
          <time pos="199" value="-34.375"/>
          <time pos="200" value="-39.0625"/>
          <time pos="201" value="-43.75"/>
          <time pos="202" value="-48.4375"/>
          <time pos="203" value="-53.125"/>
          <time pos="204" value="-57.8125"/>
          <time pos="205" value="-62.5"/>
          <time pos="206" value="-65.625"/>
          <time pos="208" value="-75"/>
          <time pos="210" value="-79.6875"/>
          <time pos="211" value="-84.375"/>
          <time pos="212" value="-89.0625"/>
          <time pos="213" value="-93.75"/>
          <time pos="214" value="-98.4375"/>
          <time pos="219" value="0"/>
          <object id="863064"/>
        </automationpattern>
        <automationpattern pos="3648" name="Trumpet>Pitch" tens="1" len="384" mute="0" prog="0">
          <time pos="0" value="0"/>
          <time pos="190" value="0"/>
          <time pos="191" value="-3.125"/>
          <time pos="192" value="-7.8125"/>
          <time pos="193" value="-12.5"/>
          <time pos="194" value="-17.1875"/>
          <time pos="196" value="-26.5625"/>
          <time pos="198" value="-31.25"/>
          <time pos="199" value="-34.375"/>
          <time pos="200" value="-39.0625"/>
          <time pos="201" value="-43.75"/>
          <time pos="202" value="-48.4375"/>
          <time pos="203" value="-53.125"/>
          <time pos="204" value="-57.8125"/>
          <time pos="205" value="-62.5"/>
          <time pos="206" value="-65.625"/>
          <time pos="208" value="-75"/>
          <time pos="210" value="-79.6875"/>
          <time pos="211" value="-84.375"/>
          <time pos="212" value="-89.0625"/>
          <time pos="213" value="-93.75"/>
          <time pos="214" value="-98.4375"/>
          <time pos="219" value="0"/>
          <object id="863064"/>
        </automationpattern>
      </track>
      <track solo="0" name="Trumpet (echo)" muted="1" type="0">
        <instrumenttrack fxch="0" pan="-37.007874" usemasterpitch="1" vol="50.3937" pitchrange="2" basenote="57">
          <pitch scale_type="linear" id="2141642" value="0"/>
          <instrument name="sf2player">
            <sf2player gain="1" patch="56" chorusDepth="8" reverbDamping="0.2" chorusSpeed="0.30000001" bank="0" reverbRoomSize="0.2" reverbLevel="0.89999998" chorusLevel="2" chorusOn="0" src="soundfonts/GeneralUser GS v1.471.sf2" reverbOn="0" chorusNum="0.89999998" reverbWidth="0.5"/>
          </instrument>
          <eldata ftype="0" fcut="14000" fres="0.5" fwet="0">
            <elvol lspd_syncmode="0" x100="0" amt="0" ctlenvamt="0" dec="0.5" hold="0.5" lpdel="0" lspd_denominator="4" att="0" lamt="0" rel="0.1" lshp="0" userwavefile="" pdel="0" lspd_numerator="4" latt="0" lspd="0.1" sustain="0.5"/>
            <elcut lspd_syncmode="0" x100="0" amt="0" ctlenvamt="0" dec="0.5" hold="0.5" lpdel="0" lspd_denominator="4" att="0" lamt="0" rel="0.1" lshp="0" userwavefile="" pdel="0" lspd_numerator="4" latt="0" lspd="0.1" sustain="0.5"/>
            <elres lspd_syncmode="0" x100="0" amt="0" ctlenvamt="0" dec="0.5" hold="0.5" lpdel="0" lspd_denominator="4" att="0" lamt="0" rel="0.1" lshp="0" userwavefile="" pdel="0" lspd_numerator="4" latt="0" lspd="0.1" sustain="0.5"/>
          </eldata>
          <chordcreator chord-enabled="0" chord="0" chordrange="1"/>
          <arpeggiator arpmode="0" arp-enabled="0" arpskip="0" arptime="200" arptime_numerator="4" arpmiss="0" arpcycle="0" arprange="1" arptime_syncmode="0" arptime_denominator="4" arp="0" arpgate="100" arpdir="0"/>
          <midiport readable="0" outputcontroller="0" fixedinputvelocity="-1" basevelocity="63" inputchannel="0" outputchannel="1" writable="0" fixedoutputnote="-1" inputcontroller="0" outputprogram="1" fixedoutputvelocity="-1"/>
          <fxchain enabled="0" numofeffects="0"/>
        </instrumenttrack>
        <pattern pos="192" name="Trumpet (echo)" muted="0" type="1" steps="16">
          <note pos="168" pan="0" len="4" vol="125" key="67"/>
          <note pos="168" pan="0" len="4" vol="125" key="62"/>
          <note pos="168" pan="0" len="4" vol="125" key="57"/>
          <note pos="180" pan="0" len="4" vol="125" key="67"/>
          <note pos="180" pan="0" len="4" vol="125" key="62"/>
          <note pos="180" pan="0" len="4" vol="125" key="57"/>
          <note pos="192" pan="0" len="19" vol="125" key="67"/>
          <note pos="192" pan="0" len="19" vol="125" key="62"/>
          <note pos="192" pan="0" len="19" vol="125" key="59"/>
        </pattern>
        <pattern pos="768" name="Trumpet (echo)" muted="0" type="1" steps="16">
          <note pos="0" pan="0" len="48" vol="125" key="67"/>
          <note pos="0" pan="0" len="48" vol="125" key="62"/>
          <note pos="0" pan="0" len="48" vol="125" key="59"/>
        </pattern>
        <pattern pos="1344" name="Trumpet (echo)" muted="0" type="1" steps="16">
          <note pos="144" pan="0" len="6" vol="125" key="74"/>
          <note pos="144" pan="0" len="6" vol="125" key="71"/>
          <note pos="144" pan="0" len="6" vol="125" key="55"/>
          <note pos="156" pan="0" len="11" vol="125" key="74"/>
          <note pos="156" pan="0" len="11" vol="125" key="71"/>
          <note pos="156" pan="0" len="11" vol="125" key="67"/>
          <note pos="180" pan="0" len="6" vol="125" key="76"/>
          <note pos="180" pan="0" len="6" vol="125" key="72"/>
          <note pos="180" pan="0" len="6" vol="125" key="55"/>
          <note pos="192" pan="0" len="19" vol="125" key="74"/>
          <note pos="192" pan="0" len="19" vol="125" key="71"/>
          <note pos="192" pan="0" len="19" vol="125" key="67"/>
        </pattern>
        <pattern pos="1728" name="Trumpet (echo)" muted="0" type="1" steps="16">
          <note pos="167" pan="0" len="4" vol="125" key="67"/>
          <note pos="167" pan="0" len="4" vol="125" key="62"/>
          <note pos="167" pan="0" len="4" vol="125" key="57"/>
          <note pos="179" pan="0" len="4" vol="125" key="67"/>
          <note pos="179" pan="0" len="4" vol="125" key="62"/>
          <note pos="179" pan="0" len="4" vol="125" key="57"/>
          <note pos="191" pan="0" len="19" vol="125" key="67"/>
          <note pos="191" pan="0" len="19" vol="125" key="62"/>
          <note pos="191" pan="0" len="19" vol="125" key="59"/>
        </pattern>
        <pattern pos="2112" name="Trumpet (echo)" muted="0" type="1" steps="16">
          <note pos="191" pan="0" len="48" vol="125" key="67"/>
          <note pos="191" pan="0" len="48" vol="125" key="62"/>
          <note pos="191" pan="0" len="48" vol="125" key="59"/>
        </pattern>
        <pattern pos="2880" name="Trumpet (echo)" muted="0" type="1" steps="16">
          <note pos="144" pan="0" len="6" vol="125" key="74"/>
          <note pos="144" pan="0" len="6" vol="125" key="71"/>
          <note pos="144" pan="0" len="6" vol="125" key="55"/>
          <note pos="156" pan="0" len="11" vol="125" key="74"/>
          <note pos="156" pan="0" len="11" vol="125" key="71"/>
          <note pos="156" pan="0" len="11" vol="125" key="67"/>
          <note pos="180" pan="0" len="6" vol="125" key="76"/>
          <note pos="180" pan="0" len="6" vol="125" key="72"/>
          <note pos="180" pan="0" len="6" vol="125" key="55"/>
          <note pos="192" pan="0" len="19" vol="125" key="74"/>
          <note pos="192" pan="0" len="19" vol="125" key="71"/>
          <note pos="192" pan="0" len="19" vol="125" key="67"/>
        </pattern>
        <pattern pos="3264" name="Trumpet (echo)" muted="0" type="1" steps="16">
          <note pos="167" pan="0" len="4" vol="125" key="67"/>
          <note pos="167" pan="0" len="4" vol="125" key="62"/>
          <note pos="167" pan="0" len="4" vol="125" key="57"/>
          <note pos="179" pan="0" len="4" vol="125" key="67"/>
          <note pos="179" pan="0" len="4" vol="125" key="62"/>
          <note pos="179" pan="0" len="4" vol="125" key="57"/>
          <note pos="191" pan="0" len="19" vol="125" key="67"/>
          <note pos="191" pan="0" len="19" vol="125" key="62"/>
          <note pos="191" pan="0" len="19" vol="125" key="59"/>
        </pattern>
        <pattern pos="3648" name="Trumpet (echo)" muted="0" type="1" steps="16">
          <note pos="191" pan="0" len="48" vol="125" key="67"/>
          <note pos="191" pan="0" len="48" vol="125" key="62"/>
          <note pos="191" pan="0" len="48" vol="125" key="59"/>
        </pattern>
        <pattern pos="4416" name="Trumpet (echo)" muted="0" type="1" steps="16">
          <note pos="144" pan="0" len="6" vol="125" key="74"/>
          <note pos="144" pan="0" len="6" vol="125" key="71"/>
          <note pos="144" pan="0" len="6" vol="125" key="55"/>
          <note pos="156" pan="0" len="11" vol="125" key="74"/>
          <note pos="156" pan="0" len="11" vol="125" key="71"/>
          <note pos="156" pan="0" len="11" vol="125" key="67"/>
          <note pos="180" pan="0" len="6" vol="125" key="76"/>
          <note pos="180" pan="0" len="6" vol="125" key="72"/>
          <note pos="180" pan="0" len="6" vol="125" key="55"/>
          <note pos="192" pan="0" len="19" vol="125" key="74"/>
          <note pos="192" pan="0" len="19" vol="125" key="71"/>
          <note pos="192" pan="0" len="19" vol="125" key="67"/>
        </pattern>
      </track>
      <track solo="0" name="Trumpet (echo) > Pitch" muted="1" type="5">
        <automationtrack/>
        <automationpattern pos="768" name="Trumpet (echo)>Pitch" tens="1" len="192" mute="0" prog="0">
          <time pos="0" value="0"/>
          <time pos="22" value="0"/>
          <time pos="24" value="-7.8125"/>
          <time pos="26" value="-12.5"/>
          <time pos="27" value="-17.1875"/>
          <time pos="28" value="-21.875"/>
          <time pos="29" value="-26.5625"/>
          <time pos="30" value="-31.25"/>
          <time pos="31" value="-34.375"/>
          <time pos="32" value="-39.0625"/>
          <time pos="33" value="-43.75"/>
          <time pos="34" value="-48.4375"/>
          <time pos="36" value="-57.8125"/>
          <time pos="38" value="-62.5"/>
          <time pos="39" value="-65.625"/>
          <time pos="40" value="-70.3125"/>
          <time pos="41" value="-75"/>
          <time pos="42" value="-79.6875"/>
          <time pos="43" value="-84.375"/>
          <time pos="44" value="-89.0625"/>
          <time pos="45" value="-93.75"/>
          <time pos="46" value="-98.4375"/>
          <time pos="52" value="0"/>
          <object id="2141642"/>
        </automationpattern>
        <automationpattern pos="2304" name="Trumpet (echo)>Pitch" tens="1" len="192" mute="0" prog="0">
          <time pos="0" value="0"/>
          <time pos="22" value="0"/>
          <time pos="23" value="-3.125"/>
          <time pos="24" value="-7.8125"/>
          <time pos="25" value="-12.5"/>
          <time pos="26" value="-17.1875"/>
          <time pos="28" value="-26.5625"/>
          <time pos="30" value="-31.25"/>
          <time pos="31" value="-34.375"/>
          <time pos="32" value="-39.0625"/>
          <time pos="33" value="-43.75"/>
          <time pos="34" value="-48.4375"/>
          <time pos="35" value="-53.125"/>
          <time pos="36" value="-57.8125"/>
          <time pos="37" value="-62.5"/>
          <time pos="38" value="-65.625"/>
          <time pos="40" value="-75"/>
          <time pos="42" value="-79.6875"/>
          <time pos="43" value="-84.375"/>
          <time pos="44" value="-89.0625"/>
          <time pos="45" value="-93.75"/>
          <time pos="46" value="-98.4375"/>
          <time pos="51" value="0"/>
          <object id="2141642"/>
        </automationpattern>
        <automationpattern pos="3840" name="Trumpet (echo)>Pitch" tens="1" len="192" mute="0" prog="0">
          <time pos="0" value="0"/>
          <time pos="22" value="0"/>
          <time pos="23" value="-3.125"/>
          <time pos="24" value="-7.8125"/>
          <time pos="25" value="-12.5"/>
          <time pos="26" value="-17.1875"/>
          <time pos="28" value="-26.5625"/>
          <time pos="30" value="-31.25"/>
          <time pos="31" value="-34.375"/>
          <time pos="32" value="-39.0625"/>
          <time pos="33" value="-43.75"/>
          <time pos="34" value="-48.4375"/>
          <time pos="35" value="-53.125"/>
          <time pos="36" value="-57.8125"/>
          <time pos="37" value="-62.5"/>
          <time pos="38" value="-65.625"/>
          <time pos="40" value="-75"/>
          <time pos="42" value="-79.6875"/>
          <time pos="43" value="-84.375"/>
          <time pos="44" value="-89.0625"/>
          <time pos="45" value="-93.75"/>
          <time pos="46" value="-98.4375"/>
          <time pos="51" value="0"/>
          <object id="2141642"/>
        </automationpattern>
      </track>
      <track solo="0" name="Drums" muted="1" type="0">
        <instrumenttrack pitch="0" fxch="0" pan="0" usemasterpitch="1" vol="81.889763" pitchrange="2" basenote="57">
          <instrument name="sf2player">
            <sf2player gain="1" patch="0" chorusDepth="8" reverbDamping="0.2" chorusSpeed="0.30000001" bank="128" reverbRoomSize="0.2" reverbLevel="0.89999998" chorusLevel="2" chorusOn="0" src="soundfonts/GeneralUser GS v1.471.sf2" reverbOn="0" chorusNum="0.89999998" reverbWidth="0.5"/>
          </instrument>
          <eldata ftype="0" fcut="14000" fres="0.5" fwet="0">
            <elvol lspd_syncmode="0" x100="0" amt="0" ctlenvamt="0" dec="0.5" hold="0.5" lpdel="0" lspd_denominator="4" att="0" lamt="0" rel="0.1" lshp="0" userwavefile="" pdel="0" lspd_numerator="4" latt="0" lspd="0.1" sustain="0.5"/>
            <elcut lspd_syncmode="0" x100="0" amt="0" ctlenvamt="0" dec="0.5" hold="0.5" lpdel="0" lspd_denominator="4" att="0" lamt="0" rel="0.1" lshp="0" userwavefile="" pdel="0" lspd_numerator="4" latt="0" lspd="0.1" sustain="0.5"/>
            <elres lspd_syncmode="0" x100="0" amt="0" ctlenvamt="0" dec="0.5" hold="0.5" lpdel="0" lspd_denominator="4" att="0" lamt="0" rel="0.1" lshp="0" userwavefile="" pdel="0" lspd_numerator="4" latt="0" lspd="0.1" sustain="0.5"/>
          </eldata>
          <chordcreator chord-enabled="0" chord="0" chordrange="1"/>
          <arpeggiator arpmode="0" arp-enabled="0" arpskip="0" arptime="200" arptime_numerator="4" arpmiss="0" arpcycle="0" arprange="1" arptime_syncmode="0" arptime_denominator="4" arp="0" arpgate="100" arpdir="0"/>
          <midiport readable="0" outputcontroller="0" fixedinputvelocity="-1" basevelocity="63" inputchannel="0" outputchannel="1" writable="0" fixedoutputnote="-1" inputcontroller="0" outputprogram="1" fixedoutputvelocity="-1"/>
          <fxchain enabled="0" numofeffects="0"/>
        </instrumenttrack>
        <pattern pos="0" name="Drums" muted="0" type="1" steps="16">
          <note pos="24" pan="0" len="19" vol="125" key="24"/>
          <note pos="48" pan="0" len="24" vol="157" key="39"/>
          <note pos="48" pan="0" len="9" vol="125" key="28"/>
          <note pos="60" pan="0" len="9" vol="125" key="28"/>
          <note pos="72" pan="0" len="19" vol="125" key="24"/>
          <note pos="96" pan="0" len="24" vol="157" key="39"/>
          <note pos="96" pan="0" len="9" vol="125" key="28"/>
          <note pos="108" pan="0" len="9" vol="125" key="28"/>
          <note pos="120" pan="0" len="19" vol="125" key="24"/>
          <note pos="144" pan="0" len="24" vol="157" key="39"/>
          <note pos="144" pan="0" len="9" vol="125" key="28"/>
          <note pos="156" pan="0" len="9" vol="125" key="28"/>
          <note pos="168" pan="0" len="19" vol="125" key="24"/>
          <note pos="192" pan="0" len="24" vol="157" key="39"/>
          <note pos="192" pan="0" len="9" vol="125" key="28"/>
          <note pos="204" pan="0" len="9" vol="125" key="28"/>
          <note pos="216" pan="0" len="19" vol="125" key="24"/>
          <note pos="240" pan="0" len="24" vol="157" key="39"/>
          <note pos="240" pan="0" len="9" vol="125" key="28"/>
          <note pos="252" pan="0" len="9" vol="125" key="28"/>
          <note pos="264" pan="0" len="9" vol="125" key="28"/>
          <note pos="264" pan="0" len="9" vol="125" key="24"/>
          <note pos="276" pan="0" len="9" vol="125" key="28"/>
          <note pos="288" pan="0" len="9" vol="125" key="28"/>
          <note pos="300" pan="0" len="9" vol="125" key="28"/>
          <note pos="312" pan="0" len="9" vol="125" key="28"/>
          <note pos="408" pan="0" len="19" vol="125" key="24"/>
          <note pos="432" pan="0" len="24" vol="157" key="39"/>
          <note pos="432" pan="0" len="9" vol="125" key="28"/>
          <note pos="444" pan="0" len="9" vol="125" key="28"/>
          <note pos="456" pan="0" len="19" vol="125" key="24"/>
          <note pos="480" pan="0" len="24" vol="157" key="39"/>
          <note pos="480" pan="0" len="9" vol="125" key="28"/>
          <note pos="492" pan="0" len="9" vol="125" key="28"/>
          <note pos="504" pan="0" len="19" vol="125" key="24"/>
          <note pos="528" pan="0" len="24" vol="157" key="39"/>
          <note pos="528" pan="0" len="9" vol="125" key="28"/>
          <note pos="540" pan="0" len="9" vol="125" key="28"/>
          <note pos="552" pan="0" len="19" vol="125" key="24"/>
          <note pos="576" pan="0" len="24" vol="157" key="39"/>
          <note pos="576" pan="0" len="9" vol="125" key="28"/>
          <note pos="588" pan="0" len="9" vol="125" key="28"/>
          <note pos="600" pan="0" len="19" vol="125" key="24"/>
          <note pos="624" pan="0" len="24" vol="157" key="39"/>
          <note pos="624" pan="0" len="9" vol="125" key="28"/>
          <note pos="636" pan="0" len="9" vol="125" key="28"/>
          <note pos="648" pan="0" len="9" vol="125" key="28"/>
          <note pos="648" pan="0" len="9" vol="125" key="24"/>
          <note pos="660" pan="0" len="9" vol="125" key="28"/>
          <note pos="672" pan="0" len="9" vol="125" key="28"/>
          <note pos="684" pan="0" len="9" vol="125" key="28"/>
          <note pos="696" pan="0" len="9" vol="125" key="28"/>
          <note pos="792" pan="0" len="9" vol="125" key="24"/>
          <note pos="804" pan="0" len="9" vol="125" key="24"/>
          <note pos="816" pan="0" len="24" vol="157" key="39"/>
          <note pos="816" pan="0" len="9" vol="125" key="28"/>
          <note pos="828" pan="0" len="9" vol="125" key="28"/>
          <note pos="840" pan="0" len="9" vol="125" key="24"/>
          <note pos="852" pan="0" len="9" vol="125" key="24"/>
          <note pos="864" pan="0" len="24" vol="157" key="39"/>
          <note pos="864" pan="0" len="9" vol="125" key="28"/>
          <note pos="876" pan="0" len="9" vol="125" key="28"/>
          <note pos="888" pan="0" len="9" vol="125" key="24"/>
          <note pos="900" pan="0" len="9" vol="125" key="24"/>
          <note pos="912" pan="0" len="24" vol="157" key="39"/>
          <note pos="912" pan="0" len="9" vol="125" key="28"/>
          <note pos="924" pan="0" len="9" vol="125" key="28"/>
          <note pos="936" pan="0" len="9" vol="125" key="24"/>
          <note pos="948" pan="0" len="9" vol="125" key="24"/>
          <note pos="960" pan="0" len="24" vol="157" key="39"/>
          <note pos="960" pan="0" len="9" vol="125" key="28"/>
          <note pos="972" pan="0" len="9" vol="125" key="28"/>
          <note pos="984" pan="0" len="9" vol="125" key="24"/>
          <note pos="996" pan="0" len="9" vol="125" key="24"/>
          <note pos="1008" pan="0" len="24" vol="157" key="39"/>
          <note pos="1008" pan="0" len="9" vol="125" key="28"/>
          <note pos="1020" pan="0" len="9" vol="125" key="28"/>
          <note pos="1032" pan="0" len="9" vol="125" key="24"/>
          <note pos="1044" pan="0" len="9" vol="125" key="24"/>
          <note pos="1056" pan="0" len="24" vol="157" key="39"/>
          <note pos="1056" pan="0" len="9" vol="125" key="28"/>
          <note pos="1068" pan="0" len="9" vol="125" key="28"/>
          <note pos="1080" pan="0" len="9" vol="125" key="24"/>
          <note pos="1092" pan="0" len="9" vol="125" key="24"/>
          <note pos="1104" pan="0" len="24" vol="157" key="39"/>
          <note pos="1104" pan="0" len="9" vol="125" key="28"/>
          <note pos="1116" pan="0" len="9" vol="125" key="28"/>
          <note pos="1128" pan="0" len="9" vol="125" key="24"/>
          <note pos="1140" pan="0" len="9" vol="125" key="24"/>
          <note pos="1152" pan="0" len="24" vol="157" key="39"/>
          <note pos="1152" pan="0" len="9" vol="125" key="28"/>
          <note pos="1164" pan="0" len="9" vol="125" key="28"/>
          <note pos="1176" pan="0" len="9" vol="125" key="24"/>
          <note pos="1188" pan="0" len="9" vol="125" key="24"/>
          <note pos="1200" pan="0" len="24" vol="157" key="39"/>
          <note pos="1200" pan="0" len="9" vol="125" key="28"/>
          <note pos="1212" pan="0" len="9" vol="125" key="28"/>
          <note pos="1224" pan="0" len="9" vol="125" key="24"/>
          <note pos="1236" pan="0" len="9" vol="125" key="24"/>
          <note pos="1248" pan="0" len="24" vol="157" key="39"/>
          <note pos="1248" pan="0" len="9" vol="125" key="28"/>
          <note pos="1260" pan="0" len="9" vol="125" key="28"/>
          <note pos="1272" pan="0" len="9" vol="125" key="24"/>
          <note pos="1284" pan="0" len="9" vol="125" key="24"/>
          <note pos="1296" pan="0" len="24" vol="157" key="39"/>
          <note pos="1296" pan="0" len="9" vol="125" key="28"/>
          <note pos="1308" pan="0" len="9" vol="125" key="28"/>
          <note pos="1320" pan="0" len="9" vol="125" key="24"/>
          <note pos="1332" pan="0" len="9" vol="125" key="24"/>
          <note pos="1344" pan="0" len="24" vol="157" key="39"/>
          <note pos="1344" pan="0" len="9" vol="125" key="28"/>
          <note pos="1356" pan="0" len="9" vol="125" key="28"/>
          <note pos="1368" pan="0" len="9" vol="125" key="24"/>
          <note pos="1380" pan="0" len="9" vol="125" key="24"/>
          <note pos="1392" pan="0" len="24" vol="157" key="39"/>
          <note pos="1392" pan="0" len="9" vol="125" key="28"/>
          <note pos="1404" pan="0" len="9" vol="125" key="28"/>
          <note pos="1416" pan="0" len="9" vol="125" key="24"/>
          <note pos="1428" pan="0" len="9" vol="125" key="24"/>
          <note pos="1440" pan="0" len="24" vol="157" key="39"/>
          <note pos="1440" pan="0" len="9" vol="125" key="28"/>
          <note pos="1452" pan="0" len="9" vol="125" key="28"/>
          <note pos="1559" pan="0" len="19" vol="125" key="24"/>
          <note pos="1583" pan="0" len="24" vol="157" key="39"/>
          <note pos="1583" pan="0" len="9" vol="125" key="28"/>
          <note pos="1595" pan="0" len="9" vol="125" key="28"/>
          <note pos="1607" pan="0" len="19" vol="125" key="24"/>
          <note pos="1631" pan="0" len="24" vol="157" key="39"/>
          <note pos="1631" pan="0" len="9" vol="125" key="28"/>
          <note pos="1643" pan="0" len="9" vol="125" key="28"/>
          <note pos="1655" pan="0" len="19" vol="125" key="24"/>
          <note pos="1679" pan="0" len="24" vol="157" key="39"/>
          <note pos="1679" pan="0" len="9" vol="125" key="28"/>
          <note pos="1691" pan="0" len="9" vol="125" key="28"/>
          <note pos="1703" pan="0" len="19" vol="125" key="24"/>
          <note pos="1727" pan="0" len="24" vol="157" key="39"/>
          <note pos="1727" pan="0" len="9" vol="125" key="28"/>
          <note pos="1739" pan="0" len="9" vol="125" key="28"/>
          <note pos="1751" pan="0" len="19" vol="125" key="24"/>
          <note pos="1775" pan="0" len="24" vol="157" key="39"/>
          <note pos="1775" pan="0" len="9" vol="125" key="28"/>
          <note pos="1787" pan="0" len="9" vol="125" key="28"/>
          <note pos="1799" pan="0" len="9" vol="125" key="28"/>
          <note pos="1799" pan="0" len="9" vol="125" key="24"/>
          <note pos="1811" pan="0" len="9" vol="125" key="28"/>
          <note pos="1823" pan="0" len="9" vol="125" key="28"/>
          <note pos="1835" pan="0" len="9" vol="125" key="28"/>
          <note pos="1847" pan="0" len="9" vol="125" key="28"/>
          <note pos="1943" pan="0" len="19" vol="125" key="24"/>
          <note pos="1967" pan="0" len="24" vol="157" key="39"/>
          <note pos="1967" pan="0" len="9" vol="125" key="28"/>
          <note pos="1979" pan="0" len="9" vol="125" key="28"/>
          <note pos="1991" pan="0" len="19" vol="125" key="24"/>
          <note pos="2015" pan="0" len="24" vol="157" key="39"/>
          <note pos="2015" pan="0" len="9" vol="125" key="28"/>
          <note pos="2027" pan="0" len="9" vol="125" key="28"/>
          <note pos="2039" pan="0" len="19" vol="125" key="24"/>
          <note pos="2063" pan="0" len="24" vol="157" key="39"/>
          <note pos="2063" pan="0" len="9" vol="125" key="28"/>
          <note pos="2075" pan="0" len="9" vol="125" key="28"/>
          <note pos="2087" pan="0" len="19" vol="125" key="24"/>
          <note pos="2111" pan="0" len="24" vol="157" key="39"/>
          <note pos="2111" pan="0" len="9" vol="125" key="28"/>
          <note pos="2123" pan="0" len="9" vol="125" key="28"/>
          <note pos="2135" pan="0" len="19" vol="125" key="24"/>
          <note pos="2159" pan="0" len="24" vol="157" key="39"/>
          <note pos="2159" pan="0" len="9" vol="125" key="28"/>
          <note pos="2171" pan="0" len="9" vol="125" key="28"/>
          <note pos="2183" pan="0" len="9" vol="125" key="28"/>
          <note pos="2183" pan="0" len="9" vol="125" key="24"/>
          <note pos="2195" pan="0" len="9" vol="125" key="28"/>
          <note pos="2207" pan="0" len="9" vol="125" key="28"/>
          <note pos="2219" pan="0" len="9" vol="125" key="28"/>
          <note pos="2231" pan="0" len="9" vol="125" key="28"/>
          <note pos="2327" pan="0" len="9" vol="125" key="24"/>
          <note pos="2339" pan="0" len="9" vol="125" key="24"/>
          <note pos="2351" pan="0" len="24" vol="157" key="39"/>
          <note pos="2351" pan="0" len="9" vol="125" key="28"/>
          <note pos="2363" pan="0" len="9" vol="125" key="28"/>
          <note pos="2375" pan="0" len="9" vol="125" key="24"/>
          <note pos="2387" pan="0" len="9" vol="125" key="24"/>
          <note pos="2399" pan="0" len="24" vol="157" key="39"/>
          <note pos="2399" pan="0" len="9" vol="125" key="28"/>
          <note pos="2411" pan="0" len="9" vol="125" key="28"/>
          <note pos="2423" pan="0" len="9" vol="125" key="24"/>
          <note pos="2435" pan="0" len="9" vol="125" key="24"/>
          <note pos="2447" pan="0" len="24" vol="157" key="39"/>
          <note pos="2447" pan="0" len="9" vol="125" key="28"/>
          <note pos="2459" pan="0" len="9" vol="125" key="28"/>
          <note pos="2471" pan="0" len="9" vol="125" key="24"/>
          <note pos="2483" pan="0" len="9" vol="125" key="24"/>
          <note pos="2495" pan="0" len="24" vol="157" key="39"/>
          <note pos="2495" pan="0" len="9" vol="125" key="28"/>
          <note pos="2507" pan="0" len="9" vol="125" key="28"/>
          <note pos="2519" pan="0" len="9" vol="125" key="24"/>
          <note pos="2531" pan="0" len="9" vol="125" key="24"/>
          <note pos="2543" pan="0" len="24" vol="157" key="39"/>
          <note pos="2543" pan="0" len="9" vol="125" key="28"/>
          <note pos="2555" pan="0" len="9" vol="125" key="28"/>
          <note pos="2567" pan="0" len="9" vol="125" key="24"/>
          <note pos="2579" pan="0" len="9" vol="125" key="24"/>
          <note pos="2591" pan="0" len="24" vol="157" key="39"/>
          <note pos="2591" pan="0" len="9" vol="125" key="28"/>
          <note pos="2603" pan="0" len="9" vol="125" key="28"/>
          <note pos="2615" pan="0" len="9" vol="125" key="24"/>
          <note pos="2627" pan="0" len="9" vol="125" key="24"/>
          <note pos="2639" pan="0" len="24" vol="157" key="39"/>
          <note pos="2639" pan="0" len="9" vol="125" key="28"/>
          <note pos="2651" pan="0" len="9" vol="125" key="28"/>
          <note pos="2663" pan="0" len="9" vol="125" key="24"/>
          <note pos="2675" pan="0" len="9" vol="125" key="24"/>
          <note pos="2687" pan="0" len="24" vol="157" key="39"/>
          <note pos="2687" pan="0" len="9" vol="125" key="28"/>
          <note pos="2699" pan="0" len="9" vol="125" key="28"/>
          <note pos="2711" pan="0" len="9" vol="125" key="24"/>
          <note pos="2723" pan="0" len="9" vol="125" key="24"/>
          <note pos="2735" pan="0" len="24" vol="157" key="39"/>
          <note pos="2735" pan="0" len="9" vol="125" key="28"/>
          <note pos="2747" pan="0" len="9" vol="125" key="28"/>
          <note pos="2759" pan="0" len="9" vol="125" key="24"/>
          <note pos="2771" pan="0" len="9" vol="125" key="24"/>
          <note pos="2783" pan="0" len="24" vol="157" key="39"/>
          <note pos="2783" pan="0" len="9" vol="125" key="28"/>
          <note pos="2795" pan="0" len="9" vol="125" key="28"/>
          <note pos="2807" pan="0" len="9" vol="125" key="24"/>
          <note pos="2819" pan="0" len="9" vol="125" key="24"/>
          <note pos="2831" pan="0" len="24" vol="157" key="39"/>
          <note pos="2831" pan="0" len="9" vol="125" key="28"/>
          <note pos="2843" pan="0" len="9" vol="125" key="28"/>
          <note pos="2855" pan="0" len="9" vol="125" key="24"/>
          <note pos="2867" pan="0" len="9" vol="125" key="24"/>
          <note pos="2879" pan="0" len="24" vol="157" key="39"/>
          <note pos="2879" pan="0" len="9" vol="125" key="28"/>
          <note pos="2891" pan="0" len="9" vol="125" key="28"/>
          <note pos="2903" pan="0" len="9" vol="125" key="24"/>
          <note pos="2915" pan="0" len="9" vol="125" key="24"/>
          <note pos="2927" pan="0" len="24" vol="157" key="39"/>
          <note pos="2927" pan="0" len="9" vol="125" key="28"/>
          <note pos="2939" pan="0" len="9" vol="125" key="28"/>
          <note pos="2951" pan="0" len="9" vol="125" key="24"/>
          <note pos="2963" pan="0" len="9" vol="125" key="24"/>
          <note pos="2975" pan="0" len="24" vol="157" key="39"/>
          <note pos="2975" pan="0" len="9" vol="125" key="28"/>
          <note pos="2987" pan="0" len="9" vol="125" key="28"/>
          <note pos="3095" pan="0" len="19" vol="125" key="24"/>
          <note pos="3119" pan="0" len="24" vol="157" key="39"/>
          <note pos="3119" pan="0" len="9" vol="125" key="28"/>
          <note pos="3131" pan="0" len="9" vol="125" key="28"/>
          <note pos="3143" pan="0" len="19" vol="125" key="24"/>
          <note pos="3167" pan="0" len="24" vol="157" key="39"/>
          <note pos="3167" pan="0" len="9" vol="125" key="28"/>
          <note pos="3179" pan="0" len="9" vol="125" key="28"/>
          <note pos="3191" pan="0" len="19" vol="125" key="24"/>
          <note pos="3215" pan="0" len="24" vol="157" key="39"/>
          <note pos="3215" pan="0" len="9" vol="125" key="28"/>
          <note pos="3227" pan="0" len="9" vol="125" key="28"/>
          <note pos="3239" pan="0" len="19" vol="125" key="24"/>
          <note pos="3263" pan="0" len="24" vol="157" key="39"/>
          <note pos="3263" pan="0" len="9" vol="125" key="28"/>
          <note pos="3275" pan="0" len="9" vol="125" key="28"/>
          <note pos="3287" pan="0" len="19" vol="125" key="24"/>
          <note pos="3311" pan="0" len="24" vol="157" key="39"/>
          <note pos="3311" pan="0" len="9" vol="125" key="28"/>
          <note pos="3323" pan="0" len="9" vol="125" key="28"/>
          <note pos="3335" pan="0" len="9" vol="125" key="28"/>
          <note pos="3335" pan="0" len="9" vol="125" key="24"/>
          <note pos="3347" pan="0" len="9" vol="125" key="28"/>
          <note pos="3359" pan="0" len="9" vol="125" key="28"/>
          <note pos="3371" pan="0" len="9" vol="125" key="28"/>
          <note pos="3383" pan="0" len="9" vol="125" key="28"/>
          <note pos="3479" pan="0" len="19" vol="125" key="24"/>
          <note pos="3503" pan="0" len="24" vol="157" key="39"/>
          <note pos="3503" pan="0" len="9" vol="125" key="28"/>
          <note pos="3515" pan="0" len="9" vol="125" key="28"/>
          <note pos="3527" pan="0" len="19" vol="125" key="24"/>
          <note pos="3551" pan="0" len="24" vol="157" key="39"/>
          <note pos="3551" pan="0" len="9" vol="125" key="28"/>
          <note pos="3563" pan="0" len="9" vol="125" key="28"/>
          <note pos="3575" pan="0" len="19" vol="125" key="24"/>
          <note pos="3599" pan="0" len="24" vol="157" key="39"/>
          <note pos="3599" pan="0" len="9" vol="125" key="28"/>
          <note pos="3611" pan="0" len="9" vol="125" key="28"/>
          <note pos="3623" pan="0" len="19" vol="125" key="24"/>
          <note pos="3647" pan="0" len="24" vol="157" key="39"/>
          <note pos="3647" pan="0" len="9" vol="125" key="28"/>
          <note pos="3659" pan="0" len="9" vol="125" key="28"/>
          <note pos="3671" pan="0" len="19" vol="125" key="24"/>
          <note pos="3695" pan="0" len="24" vol="157" key="39"/>
          <note pos="3695" pan="0" len="9" vol="125" key="28"/>
          <note pos="3707" pan="0" len="9" vol="125" key="28"/>
          <note pos="3719" pan="0" len="9" vol="125" key="28"/>
          <note pos="3719" pan="0" len="9" vol="125" key="24"/>
          <note pos="3731" pan="0" len="9" vol="125" key="28"/>
          <note pos="3743" pan="0" len="9" vol="125" key="28"/>
          <note pos="3755" pan="0" len="9" vol="125" key="28"/>
          <note pos="3767" pan="0" len="9" vol="125" key="28"/>
          <note pos="3863" pan="0" len="9" vol="125" key="24"/>
          <note pos="3875" pan="0" len="9" vol="125" key="24"/>
          <note pos="3887" pan="0" len="24" vol="157" key="39"/>
          <note pos="3887" pan="0" len="9" vol="125" key="28"/>
          <note pos="3899" pan="0" len="9" vol="125" key="28"/>
          <note pos="3911" pan="0" len="9" vol="125" key="24"/>
          <note pos="3923" pan="0" len="9" vol="125" key="24"/>
          <note pos="3935" pan="0" len="24" vol="157" key="39"/>
          <note pos="3935" pan="0" len="9" vol="125" key="28"/>
          <note pos="3947" pan="0" len="9" vol="125" key="28"/>
          <note pos="3959" pan="0" len="9" vol="125" key="24"/>
          <note pos="3971" pan="0" len="9" vol="125" key="24"/>
          <note pos="3983" pan="0" len="24" vol="157" key="39"/>
          <note pos="3983" pan="0" len="9" vol="125" key="28"/>
          <note pos="3995" pan="0" len="9" vol="125" key="28"/>
          <note pos="4007" pan="0" len="9" vol="125" key="24"/>
          <note pos="4019" pan="0" len="9" vol="125" key="24"/>
          <note pos="4031" pan="0" len="24" vol="157" key="39"/>
          <note pos="4031" pan="0" len="9" vol="125" key="28"/>
          <note pos="4043" pan="0" len="9" vol="125" key="28"/>
          <note pos="4055" pan="0" len="9" vol="125" key="24"/>
          <note pos="4067" pan="0" len="9" vol="125" key="24"/>
          <note pos="4079" pan="0" len="24" vol="157" key="39"/>
          <note pos="4079" pan="0" len="9" vol="125" key="28"/>
          <note pos="4091" pan="0" len="9" vol="125" key="28"/>
          <note pos="4103" pan="0" len="9" vol="125" key="24"/>
          <note pos="4115" pan="0" len="9" vol="125" key="24"/>
          <note pos="4127" pan="0" len="24" vol="157" key="39"/>
          <note pos="4127" pan="0" len="9" vol="125" key="28"/>
          <note pos="4139" pan="0" len="9" vol="125" key="28"/>
          <note pos="4151" pan="0" len="9" vol="125" key="24"/>
          <note pos="4163" pan="0" len="9" vol="125" key="24"/>
          <note pos="4175" pan="0" len="24" vol="157" key="39"/>
          <note pos="4175" pan="0" len="9" vol="125" key="28"/>
          <note pos="4187" pan="0" len="9" vol="125" key="28"/>
          <note pos="4199" pan="0" len="9" vol="125" key="24"/>
          <note pos="4211" pan="0" len="9" vol="125" key="24"/>
          <note pos="4223" pan="0" len="24" vol="157" key="39"/>
          <note pos="4223" pan="0" len="9" vol="125" key="28"/>
          <note pos="4235" pan="0" len="9" vol="125" key="28"/>
          <note pos="4247" pan="0" len="9" vol="125" key="24"/>
          <note pos="4259" pan="0" len="9" vol="125" key="24"/>
          <note pos="4271" pan="0" len="24" vol="157" key="39"/>
          <note pos="4271" pan="0" len="9" vol="125" key="28"/>
          <note pos="4283" pan="0" len="9" vol="125" key="28"/>
          <note pos="4295" pan="0" len="9" vol="125" key="24"/>
          <note pos="4307" pan="0" len="9" vol="125" key="24"/>
          <note pos="4319" pan="0" len="24" vol="157" key="39"/>
          <note pos="4319" pan="0" len="9" vol="125" key="28"/>
          <note pos="4331" pan="0" len="9" vol="125" key="28"/>
          <note pos="4343" pan="0" len="9" vol="125" key="24"/>
          <note pos="4355" pan="0" len="9" vol="125" key="24"/>
          <note pos="4367" pan="0" len="24" vol="157" key="39"/>
          <note pos="4367" pan="0" len="9" vol="125" key="28"/>
          <note pos="4379" pan="0" len="9" vol="125" key="28"/>
          <note pos="4391" pan="0" len="9" vol="125" key="24"/>
          <note pos="4403" pan="0" len="9" vol="125" key="24"/>
          <note pos="4415" pan="0" len="24" vol="157" key="39"/>
          <note pos="4415" pan="0" len="9" vol="125" key="28"/>
          <note pos="4427" pan="0" len="9" vol="125" key="28"/>
          <note pos="4439" pan="0" len="9" vol="125" key="24"/>
          <note pos="4451" pan="0" len="9" vol="125" key="24"/>
          <note pos="4463" pan="0" len="24" vol="157" key="39"/>
          <note pos="4463" pan="0" len="9" vol="125" key="28"/>
          <note pos="4475" pan="0" len="9" vol="125" key="28"/>
          <note pos="4487" pan="0" len="9" vol="125" key="24"/>
          <note pos="4499" pan="0" len="9" vol="125" key="24"/>
          <note pos="4511" pan="0" len="24" vol="157" key="39"/>
          <note pos="4511" pan="0" len="9" vol="125" key="28"/>
          <note pos="4523" pan="0" len="9" vol="125" key="28"/>
        </pattern>
      </track>
      <track solo="1" name="Nescaline" muted="0" type="0">
        <instrumenttrack fxch="0" pan="0" usemasterpitch="1" pitchrange="1" basenote="57">
          <vol scale_type="linear" id="4131390" value="100"/>
          <pitch scale_type="linear" id="4240499" value="0"/>
          <instrument name="nes">
            <nes swrate2="0" envlen4="0" nswp4="0" envlen2="0" nmode4="0" sweep1="0" crs1="0" vol4="15" swrate1="0" on4="0" dc2="2" crs3="0" envon1="0" envon4="0" nfrqmode4="0" vibr="0" on1="1" sweep2="0" nfreq4="0" envlen1="0" vol2="15" vol="1" envloop2="0" nq4="1" envon2="0" envloop4="0" crs2="0" swamt2="0" vol1="15" on3="0" swamt1="0" on2="0" vol3="15" envloop1="0">
              <dc1 scale_type="linear" id="4831225" value="1"/>
            </nes>
          </instrument>
          <eldata ftype="0" fcut="14000" fres="0.5" fwet="0">
            <elvol rel="0" amt="1" userwavefile="" lspd="0.1" dec="0.24400002" lamt="0" lspd_numerator="4" x100="0" lspd_syncmode="0" lspd_denominator="4" ctlenvamt="0" pdel="0" sustain="0.44800001" lpdel="0" latt="0" lshp="0">
              <att scale_type="linear" id="6186159" value="0.066"/>
              <hold scale_type="linear" id="6320288" value="0"/>
            </elvol>
            <elcut lspd_syncmode="0" x100="0" amt="0" ctlenvamt="0" dec="0.5" hold="0.5" lpdel="0" lspd_denominator="4" att="0" lamt="0" rel="0.1" lshp="0" userwavefile="" pdel="0" lspd_numerator="4" latt="0" lspd="0.1" sustain="0.5"/>
            <elres lspd_syncmode="0" x100="0" amt="0" ctlenvamt="0" dec="0.5" hold="0.5" lpdel="0" lspd_denominator="4" att="0" lamt="0" rel="0.1" lshp="0" userwavefile="" pdel="0" lspd_numerator="4" latt="0" lspd="0.1" sustain="0.5"/>
          </eldata>
          <chordcreator chord-enabled="0" chord="0" chordrange="1"/>
          <arpeggiator arpmode="0" arp-enabled="0" arpskip="0" arptime="200" arptime_numerator="4" arpmiss="0" arpcycle="0" arprange="1" arptime_syncmode="0" arptime_denominator="4" arp="0" arpgate="100" arpdir="0"/>
          <midiport readable="0" outputcontroller="0" fixedinputvelocity="-1" basevelocity="63" inputchannel="0" outputchannel="1" writable="0" fixedoutputnote="-1" inputcontroller="0" outputprogram="1" fixedoutputvelocity="-1"/>
          <fxchain enabled="0" numofeffects="0"/>
        </instrumenttrack>
        <pattern pos="0" name="Nescaline" muted="0" type="1" steps="16">
          <note pos="0" pan="0" len="6" vol="125" key="55"/>
          <note pos="6" pan="0" len="6" vol="125" key="57"/>
          <note pos="12" pan="0" len="6" vol="125" key="59"/>
          <note pos="18" pan="0" len="6" vol="125" key="60"/>
          <note pos="24" pan="0" len="11" vol="125" key="64"/>
          <note pos="48" pan="0" len="11" vol="125" key="62"/>
          <note pos="72" pan="0" len="11" vol="125" key="60"/>
          <note pos="96" pan="0" len="11" vol="125" key="59"/>
          <note pos="120" pan="0" len="11" vol="125" key="60"/>
          <note pos="144" pan="0" len="9" vol="125" key="57"/>
          <note pos="156" pan="0" len="9" vol="125" key="60"/>
          <note pos="168" pan="0" len="19" vol="125" key="55"/>
          <note pos="192" pan="0" len="9" vol="125" key="55"/>
          <note pos="204" pan="0" len="9" vol="125" key="56"/>
          <note pos="216" pan="0" len="19" vol="125" key="57"/>
          <note pos="240" pan="0" len="38" vol="125" key="65"/>
          <note pos="288" pan="0" len="19" vol="125" key="64"/>
          <note pos="312" pan="0" len="19" vol="125" key="62"/>
          <note pos="336" pan="0" len="4" vol="125" key="67"/>
          <note pos="348" pan="0" len="4" vol="125" key="67"/>
          <note pos="360" pan="0" len="19" vol="125" key="67"/>
          <note pos="384" pan="0" len="6" vol="125" key="55"/>
          <note pos="390" pan="0" len="6" vol="125" key="57"/>
          <note pos="396" pan="0" len="6" vol="125" key="59"/>
          <note pos="402" pan="0" len="6" vol="125" key="60"/>
          <note pos="408" pan="0" len="11" vol="125" key="64"/>
          <note pos="432" pan="0" len="11" vol="125" key="62"/>
          <note pos="456" pan="0" len="11" vol="125" key="60"/>
          <note pos="480" pan="0" len="11" vol="125" key="59"/>
          <note pos="504" pan="0" len="11" vol="125" key="60"/>
          <note pos="528" pan="0" len="9" vol="125" key="57"/>
          <note pos="540" pan="0" len="9" vol="125" key="60"/>
          <note pos="552" pan="0" len="19" vol="125" key="55"/>
          <note pos="576" pan="0" len="9" vol="125" key="55"/>
          <note pos="588" pan="0" len="9" vol="125" key="56"/>
          <note pos="600" pan="0" len="19" vol="125" key="57"/>
          <note pos="624" pan="0" len="38" vol="125" key="65"/>
          <note pos="672" pan="0" len="19" vol="125" key="64"/>
          <note pos="696" pan="0" len="19" vol="125" key="62"/>
          <note pos="744" pan="0" len="48" vol="125" key="67"/>
          <note pos="792" pan="0" len="38" vol="125" key="60"/>
          <note pos="840" pan="0" len="19" vol="125" key="62"/>
          <note pos="864" pan="0" len="38" vol="125" key="64"/>
          <note pos="912" pan="0" len="19" vol="125" key="60"/>
          <note pos="936" pan="0" len="19" vol="125" key="62"/>
          <note pos="960" pan="0" len="177" vol="125" key="60"/>
          <note pos="1176" pan="0" len="38" vol="125" key="60"/>
          <note pos="1224" pan="0" len="19" vol="125" key="62"/>
          <note pos="1248" pan="0" len="38" vol="125" key="67"/>
          <note pos="1296" pan="0" len="19" vol="125" key="60"/>
          <note pos="1320" pan="0" len="19" vol="125" key="62"/>
          <note pos="1344" pan="0" len="100" vol="125" key="60"/>
        </pattern>
        <pattern pos="1536" name="" muted="0" type="1" steps="16">
          <note pos="0" pan="0" len="6" vol="125" key="55"/>
          <note pos="6" pan="0" len="6" vol="125" key="57"/>
          <note pos="12" pan="0" len="6" vol="125" key="59"/>
          <note pos="18" pan="0" len="6" vol="125" key="60"/>
          <note pos="24" pan="0" len="11" vol="125" key="64"/>
          <note pos="48" pan="0" len="11" vol="125" key="62"/>
          <note pos="72" pan="0" len="11" vol="125" key="60"/>
          <note pos="96" pan="0" len="11" vol="125" key="59"/>
          <note pos="120" pan="0" len="11" vol="125" key="60"/>
          <note pos="144" pan="0" len="9" vol="125" key="57"/>
          <note pos="156" pan="0" len="9" vol="125" key="60"/>
          <note pos="168" pan="0" len="19" vol="125" key="55"/>
          <note pos="192" pan="0" len="9" vol="125" key="55"/>
          <note pos="204" pan="0" len="9" vol="125" key="56"/>
          <note pos="216" pan="0" len="19" vol="125" key="57"/>
          <note pos="240" pan="0" len="38" vol="125" key="65"/>
          <note pos="288" pan="0" len="19" vol="125" key="64"/>
          <note pos="312" pan="0" len="19" vol="125" key="62"/>
          <note pos="336" pan="0" len="4" vol="125" key="67"/>
          <note pos="348" pan="0" len="4" vol="125" key="67"/>
          <note pos="360" pan="0" len="19" vol="125" key="67"/>
          <note pos="384" pan="0" len="6" vol="125" key="55"/>
          <note pos="390" pan="0" len="6" vol="125" key="57"/>
          <note pos="396" pan="0" len="6" vol="125" key="59"/>
          <note pos="402" pan="0" len="6" vol="125" key="60"/>
          <note pos="408" pan="0" len="11" vol="125" key="64"/>
          <note pos="432" pan="0" len="11" vol="125" key="62"/>
          <note pos="456" pan="0" len="11" vol="125" key="60"/>
          <note pos="480" pan="0" len="11" vol="125" key="59"/>
          <note pos="504" pan="0" len="11" vol="125" key="60"/>
          <note pos="528" pan="0" len="9" vol="125" key="57"/>
          <note pos="540" pan="0" len="9" vol="125" key="60"/>
          <note pos="552" pan="0" len="19" vol="125" key="55"/>
          <note pos="576" pan="0" len="9" vol="125" key="55"/>
          <note pos="588" pan="0" len="9" vol="125" key="56"/>
          <note pos="600" pan="0" len="19" vol="125" key="57"/>
          <note pos="624" pan="0" len="38" vol="125" key="65"/>
          <note pos="672" pan="0" len="19" vol="125" key="64"/>
          <note pos="696" pan="0" len="19" vol="125" key="62"/>
          <note pos="744" pan="0" len="48" vol="125" key="67"/>
          <note pos="792" pan="0" len="38" vol="125" key="60"/>
          <note pos="840" pan="0" len="19" vol="125" key="62"/>
          <note pos="864" pan="0" len="38" vol="125" key="64"/>
          <note pos="912" pan="0" len="19" vol="125" key="60"/>
          <note pos="936" pan="0" len="19" vol="125" key="62"/>
          <note pos="960" pan="0" len="177" vol="125" key="60"/>
          <note pos="1176" pan="0" len="38" vol="125" key="60"/>
          <note pos="1224" pan="0" len="19" vol="125" key="62"/>
          <note pos="1248" pan="0" len="38" vol="125" key="67"/>
          <note pos="1296" pan="0" len="19" vol="125" key="60"/>
          <note pos="1320" pan="0" len="19" vol="125" key="62"/>
          <note pos="1344" pan="0" len="100" vol="125" key="60"/>
        </pattern>
        <pattern pos="3072" name="" muted="0" type="1" steps="16">
          <note pos="0" pan="0" len="6" vol="125" key="55"/>
          <note pos="6" pan="0" len="6" vol="125" key="57"/>
          <note pos="12" pan="0" len="6" vol="125" key="59"/>
          <note pos="18" pan="0" len="6" vol="125" key="60"/>
          <note pos="24" pan="0" len="11" vol="125" key="64"/>
          <note pos="48" pan="0" len="11" vol="125" key="62"/>
          <note pos="72" pan="0" len="11" vol="125" key="60"/>
          <note pos="96" pan="0" len="11" vol="125" key="59"/>
          <note pos="120" pan="0" len="11" vol="125" key="60"/>
          <note pos="144" pan="0" len="9" vol="125" key="57"/>
          <note pos="156" pan="0" len="9" vol="125" key="60"/>
          <note pos="168" pan="0" len="19" vol="125" key="55"/>
          <note pos="192" pan="0" len="9" vol="125" key="55"/>
          <note pos="204" pan="0" len="9" vol="125" key="56"/>
          <note pos="216" pan="0" len="19" vol="125" key="57"/>
          <note pos="240" pan="0" len="38" vol="125" key="65"/>
          <note pos="288" pan="0" len="19" vol="125" key="64"/>
          <note pos="312" pan="0" len="19" vol="125" key="62"/>
          <note pos="336" pan="0" len="4" vol="125" key="67"/>
          <note pos="348" pan="0" len="4" vol="125" key="67"/>
          <note pos="360" pan="0" len="19" vol="125" key="67"/>
          <note pos="384" pan="0" len="6" vol="125" key="55"/>
          <note pos="390" pan="0" len="6" vol="125" key="57"/>
          <note pos="396" pan="0" len="6" vol="125" key="59"/>
          <note pos="402" pan="0" len="6" vol="125" key="60"/>
          <note pos="408" pan="0" len="11" vol="125" key="64"/>
          <note pos="432" pan="0" len="11" vol="125" key="62"/>
          <note pos="456" pan="0" len="11" vol="125" key="60"/>
          <note pos="480" pan="0" len="11" vol="125" key="59"/>
          <note pos="504" pan="0" len="11" vol="125" key="60"/>
          <note pos="528" pan="0" len="9" vol="125" key="57"/>
          <note pos="540" pan="0" len="9" vol="125" key="60"/>
          <note pos="552" pan="0" len="19" vol="125" key="55"/>
          <note pos="576" pan="0" len="9" vol="125" key="55"/>
          <note pos="588" pan="0" len="9" vol="125" key="56"/>
          <note pos="600" pan="0" len="19" vol="125" key="57"/>
          <note pos="624" pan="0" len="38" vol="125" key="65"/>
          <note pos="672" pan="0" len="19" vol="125" key="64"/>
          <note pos="696" pan="0" len="19" vol="125" key="62"/>
          <note pos="744" pan="0" len="48" vol="125" key="67"/>
          <note pos="792" pan="0" len="38" vol="125" key="60"/>
          <note pos="840" pan="0" len="19" vol="125" key="62"/>
          <note pos="864" pan="0" len="38" vol="125" key="64"/>
          <note pos="912" pan="0" len="19" vol="125" key="60"/>
          <note pos="936" pan="0" len="19" vol="125" key="62"/>
          <note pos="960" pan="0" len="177" vol="125" key="60"/>
          <note pos="1176" pan="0" len="38" vol="125" key="60"/>
          <note pos="1224" pan="0" len="19" vol="125" key="62"/>
          <note pos="1248" pan="0" len="38" vol="125" key="67"/>
          <note pos="1296" pan="0" len="19" vol="125" key="60"/>
          <note pos="1320" pan="0" len="19" vol="125" key="62"/>
          <note pos="1344" pan="0" len="100" vol="125" key="60"/>
        </pattern>
      </track>
      <track solo="0" name="Automation track" muted="0" type="5">
        <automationtrack/>
        <automationpattern pos="960" name="Synth Brass>Volume" tens="1" len="192" mute="0" prog="1">
          <time pos="0" value="9.9000006"/>
          <time pos="168" value="75.099998"/>
          <object id="4131390"/>
        </automationpattern>
        <automationpattern pos="1152" name="Nescaline>Volume" tens="1" len="192" mute="0" prog="0">
          <time pos="0" value="100"/>
          <object id="4131390"/>
        </automationpattern>
        <automationpattern pos="0" name="Nescaline>Volume" tens="1" len="192" mute="0" prog="0">
          <time pos="0" value="100"/>
          <object id="4131390"/>
        </automationpattern>
        <automationpattern pos="1344" name="Synth Brass>Volume" tens="1" len="192" mute="0" prog="1">
          <time pos="0" value="9.9000006"/>
          <time pos="96" value="75.099998"/>
          <object id="4131390"/>
        </automationpattern>
        <automationpattern pos="1536" name="Nescaline>Volume" tens="1" len="192" mute="0" prog="0">
          <time pos="0" value="100"/>
          <object id="4131390"/>
        </automationpattern>
        <automationpattern pos="2496" name="Synth Brass>Volume" tens="1" len="192" mute="0" prog="1">
          <time pos="0" value="9.9000006"/>
          <time pos="168" value="75.099998"/>
          <object id="4131390"/>
        </automationpattern>
        <automationpattern pos="2688" name="Nescaline>Volume" tens="1" len="192" mute="0" prog="0">
          <time pos="0" value="100"/>
          <object id="4131390"/>
        </automationpattern>
        <automationpattern pos="2880" name="Synth Brass>Volume" tens="1" len="192" mute="0" prog="1">
          <time pos="0" value="9.9000006"/>
          <time pos="96" value="75.099998"/>
          <object id="4131390"/>
        </automationpattern>
        <automationpattern pos="3072" name="Nescaline>Volume" tens="1" len="192" mute="0" prog="0">
          <time pos="0" value="100"/>
          <object id="4131390"/>
        </automationpattern>
        <automationpattern pos="4032" name="Synth Brass>Volume" tens="1" len="192" mute="0" prog="1">
          <time pos="0" value="9.9000006"/>
          <time pos="168" value="75.099998"/>
          <object id="4131390"/>
        </automationpattern>
        <automationpattern pos="4224" name="Nescaline>Volume" tens="1" len="192" mute="0" prog="0">
          <time pos="0" value="100"/>
          <object id="4131390"/>
        </automationpattern>
        <automationpattern pos="4416" name="Synth Brass>Volume" tens="1" len="192" mute="0" prog="1">
          <time pos="0" value="9.9000006"/>
          <time pos="96" value="75.099998"/>
          <object id="4131390"/>
        </automationpattern>
      </track>
      <track solo="0" name="Automation track" muted="0" type="5">
        <automationtrack/>
        <automationpattern pos="0" name="Nescaline>Channel 1 Duty cycle" tens="1" len="192" mute="0" prog="0">
          <time pos="0" value="2"/>
          <object id="4831225"/>
        </automationpattern>
        <automationpattern pos="768" name="Nescaline>Channel 1 Duty cycle" tens="1" len="192" mute="0" prog="0">
          <time pos="0" value="1"/>
          <object id="4831225"/>
        </automationpattern>
        <automationpattern pos="1536" name="Nescaline>Channel 1 Duty cycle" tens="1" len="192" mute="0" prog="0">
          <time pos="0" value="2"/>
          <object id="4831225"/>
        </automationpattern>
        <automationpattern pos="2304" name="Nescaline>Channel 1 Duty cycle" tens="1" len="192" mute="0" prog="0">
          <time pos="0" value="1"/>
          <object id="4831225"/>
        </automationpattern>
        <automationpattern pos="3072" name="Nescaline>Channel 1 Duty cycle" tens="1" len="192" mute="0" prog="0">
          <time pos="0" value="2"/>
          <object id="4831225"/>
        </automationpattern>
        <automationpattern pos="3840" name="Nescaline>Channel 1 Duty cycle" tens="1" len="192" mute="0" prog="0">
          <time pos="0" value="1"/>
          <object id="4831225"/>
        </automationpattern>
      </track>
      <track solo="0" name="Automation track" muted="0" type="5">
        <automationtrack/>
        <automationpattern pos="0" name="Nescaline>Envelopes/LFOs>Volume>Attack" tens="1" len="192" mute="0" prog="0">
          <time pos="0" value="0"/>
          <object id="6186159"/>
        </automationpattern>
        <automationpattern pos="768" name="Nescaline>Envelopes/LFOs>Volume>Attack" tens="1" len="192" mute="0" prog="0">
          <time pos="0" value="0.066"/>
          <object id="6186159"/>
        </automationpattern>
        <automationpattern pos="2304" name="Nescaline>Envelopes/LFOs>Volume>Attack" tens="1" len="192" mute="0" prog="0">
          <time pos="0" value="0.066"/>
          <object id="6186159"/>
        </automationpattern>
        <automationpattern pos="3840" name="Nescaline>Envelopes/LFOs>Volume>Attack" tens="1" len="192" mute="0" prog="0">
          <time pos="0" value="0.066"/>
          <object id="6186159"/>
        </automationpattern>
        <automationpattern pos="1536" name="Nescaline>Envelopes/LFOs>Volume>Attack" tens="1" len="192" mute="0" prog="0">
          <time pos="0" value="0"/>
          <object id="6186159"/>
        </automationpattern>
        <automationpattern pos="3072" name="Nescaline>Envelopes/LFOs>Volume>Attack" tens="1" len="192" mute="0" prog="0">
          <time pos="0" value="0"/>
          <object id="6186159"/>
        </automationpattern>
      </track>
      <track solo="0" name="Automation track" muted="0" type="5">
        <automationtrack/>
        <automationpattern pos="0" name="Nescaline>Envelopes/LFOs>Volume>Hold" tens="1" len="192" mute="0" prog="0">
          <time pos="0" value="0"/>
          <object id="6320288"/>
        </automationpattern>
        <automationpattern pos="960" name="Nescaline>Envelopes/LFOs>Volume>Hold" tens="1" len="192" mute="0" prog="0">
          <time pos="0" value="1"/>
          <object id="6320288"/>
        </automationpattern>
        <automationpattern pos="3072" name="Nescaline>Envelopes/LFOs>Volume>Hold" tens="1" len="192" mute="0" prog="0">
          <time pos="0" value="0"/>
          <object id="6320288"/>
        </automationpattern>
        <automationpattern pos="1152" name="Nescaline>Envelopes/LFOs>Volume>Hold" tens="1" len="192" mute="0" prog="0">
          <time pos="0" value="0"/>
          <object id="6320288"/>
        </automationpattern>
        <automationpattern pos="1344" name="Nescaline>Envelopes/LFOs>Volume>Hold" tens="1" len="192" mute="0" prog="0">
          <time pos="0" value="1"/>
          <object id="6320288"/>
        </automationpattern>
        <automationpattern pos="1536" name="Nescaline>Envelopes/LFOs>Volume>Hold" tens="1" len="192" mute="0" prog="0">
          <time pos="0" value="0"/>
          <object id="6320288"/>
        </automationpattern>
        <automationpattern pos="2496" name="Nescaline>Envelopes/LFOs>Volume>Hold" tens="1" len="192" mute="0" prog="0">
          <time pos="0" value="1"/>
          <object id="6320288"/>
        </automationpattern>
        <automationpattern pos="2880" name="Nescaline>Envelopes/LFOs>Volume>Hold" tens="1" len="192" mute="0" prog="0">
          <time pos="0" value="1"/>
          <object id="6320288"/>
        </automationpattern>
        <automationpattern pos="2688" name="Nescaline>Envelopes/LFOs>Volume>Hold" tens="1" len="192" mute="0" prog="0">
          <time pos="0" value="0"/>
          <object id="6320288"/>
        </automationpattern>
        <automationpattern pos="4032" name="Nescaline>Envelopes/LFOs>Volume>Hold" tens="1" len="192" mute="0" prog="0">
          <time pos="0" value="1"/>
          <object id="6320288"/>
        </automationpattern>
        <automationpattern pos="4224" name="Nescaline>Envelopes/LFOs>Volume>Hold" tens="1" len="192" mute="0" prog="0">
          <time pos="0" value="0"/>
          <object id="6320288"/>
        </automationpattern>
        <automationpattern pos="4416" name="Nescaline>Envelopes/LFOs>Volume>Hold" tens="1" len="192" mute="0" prog="0">
          <time pos="0" value="1"/>
          <object id="6320288"/>
        </automationpattern>
      </track>
      <track solo="0" name="Automation track" muted="0" type="5">
        <automationtrack/>
        <automationpattern pos="0" name="Nescaline>Pitch" tens="1" len="192" mute="0" prog="0">
          <time pos="0" value="0"/>
          <object id="4240499"/>
        </automationpattern>
        <automationpattern pos="576" name="Trumpet>Pitch" tens="1" len="384" mute="0" prog="0">
          <time pos="0" value="0"/>
          <time pos="190" value="0"/>
          <time pos="192" value="-7.8125"/>
          <time pos="194" value="-12.5"/>
          <time pos="195" value="-17.1875"/>
          <time pos="196" value="-21.875"/>
          <time pos="197" value="-26.5625"/>
          <time pos="198" value="-31.25"/>
          <time pos="199" value="-34.375"/>
          <time pos="200" value="-39.0625"/>
          <time pos="201" value="-43.75"/>
          <time pos="202" value="-48.4375"/>
          <time pos="204" value="-57.8125"/>
          <time pos="206" value="-62.5"/>
          <time pos="207" value="-65.625"/>
          <time pos="208" value="-70.3125"/>
          <time pos="209" value="-75"/>
          <time pos="210" value="-79.6875"/>
          <time pos="211" value="-84.375"/>
          <time pos="212" value="-89.0625"/>
          <time pos="213" value="-93.75"/>
          <time pos="214" value="-98.4375"/>
          <time pos="216" value="0"/>
          <object id="4240499"/>
        </automationpattern>
        <automationpattern pos="2112" name="Trumpet>Pitch" tens="1" len="384" mute="0" prog="0">
          <time pos="0" value="0"/>
          <time pos="190" value="0"/>
          <time pos="192" value="-7.8125"/>
          <time pos="194" value="-12.5"/>
          <time pos="195" value="-17.1875"/>
          <time pos="196" value="-21.875"/>
          <time pos="197" value="-26.5625"/>
          <time pos="198" value="-31.25"/>
          <time pos="199" value="-34.375"/>
          <time pos="200" value="-39.0625"/>
          <time pos="201" value="-43.75"/>
          <time pos="202" value="-48.4375"/>
          <time pos="204" value="-57.8125"/>
          <time pos="206" value="-62.5"/>
          <time pos="207" value="-65.625"/>
          <time pos="208" value="-70.3125"/>
          <time pos="209" value="-75"/>
          <time pos="210" value="-79.6875"/>
          <time pos="211" value="-84.375"/>
          <time pos="212" value="-89.0625"/>
          <time pos="213" value="-93.75"/>
          <time pos="214" value="-98.4375"/>
          <time pos="216" value="0"/>
          <object id="4240499"/>
        </automationpattern>
        <automationpattern pos="3648" name="Trumpet>Pitch" tens="1" len="384" mute="0" prog="0">
          <time pos="0" value="0"/>
          <time pos="190" value="0"/>
          <time pos="192" value="-7.8125"/>
          <time pos="194" value="-12.5"/>
          <time pos="195" value="-17.1875"/>
          <time pos="196" value="-21.875"/>
          <time pos="197" value="-26.5625"/>
          <time pos="198" value="-31.25"/>
          <time pos="199" value="-34.375"/>
          <time pos="200" value="-39.0625"/>
          <time pos="201" value="-43.75"/>
          <time pos="202" value="-48.4375"/>
          <time pos="204" value="-57.8125"/>
          <time pos="206" value="-62.5"/>
          <time pos="207" value="-65.625"/>
          <time pos="208" value="-70.3125"/>
          <time pos="209" value="-75"/>
          <time pos="210" value="-79.6875"/>
          <time pos="211" value="-84.375"/>
          <time pos="212" value="-89.0625"/>
          <time pos="213" value="-93.75"/>
          <time pos="214" value="-98.4375"/>
          <time pos="216" value="0"/>
          <object id="4240499"/>
        </automationpattern>
      </track>
      <track solo="0" name="Bass" muted="0" type="0">
        <instrumenttrack fxch="0" pan="0" usemasterpitch="1" vol="50.400002" pitchrange="1" basenote="57">
          <pitch scale_type="linear" id="7508325" value="0"/>
          <instrument name="nes">
            <nes swrate2="0" envlen4="0" nswp4="0" envlen2="0" nmode4="0" sweep1="0" crs1="0" vol4="15" swrate1="0" on4="0" dc2="2" crs3="12" dc1="1" envon1="0" envon4="0" nfrqmode4="0" vibr="0" on1="1" sweep2="0" nfreq4="0" envlen1="0" vol2="15" vol="1" envloop2="0" nq4="1" envon2="0" envloop4="0" crs2="0" swamt2="0" vol1="15" on3="1" swamt1="0" on2="0" vol3="15" envloop1="0"/>
          </instrument>
          <eldata ftype="0" fcut="14000" fres="0.5" fwet="0">
            <elvol lspd_syncmode="0" x100="0" amt="0" ctlenvamt="0" dec="0.5" hold="0.5" lpdel="0" lspd_denominator="4" att="0" lamt="0" rel="0.1" lshp="0" userwavefile="" pdel="0" lspd_numerator="4" latt="0" lspd="0.1" sustain="0.5"/>
            <elcut lspd_syncmode="0" x100="0" amt="0" ctlenvamt="0" dec="0.5" hold="0.5" lpdel="0" lspd_denominator="4" att="0" lamt="0" rel="0.1" lshp="0" userwavefile="" pdel="0" lspd_numerator="4" latt="0" lspd="0.1" sustain="0.5"/>
            <elres lspd_syncmode="0" x100="0" amt="0" ctlenvamt="0" dec="0.5" hold="0.5" lpdel="0" lspd_denominator="4" att="0" lamt="0" rel="0.1" lshp="0" userwavefile="" pdel="0" lspd_numerator="4" latt="0" lspd="0.1" sustain="0.5"/>
          </eldata>
          <chordcreator chord-enabled="0" chord="0" chordrange="1"/>
          <arpeggiator arpmode="0" arp-enabled="0" arpskip="0" arptime="200" arptime_numerator="4" arpmiss="0" arpcycle="0" arprange="1" arptime_syncmode="0" arptime_denominator="4" arp="0" arpgate="100" arpdir="0"/>
          <midiport readable="0" outputcontroller="0" fixedinputvelocity="-1" basevelocity="63" inputchannel="0" outputchannel="1" writable="0" fixedoutputnote="-1" inputcontroller="0" outputprogram="1" fixedoutputvelocity="-1"/>
          <fxchain enabled="0" numofeffects="0"/>
        </instrumenttrack>
        <pattern pos="0" name="Bass" muted="0" type="1" steps="16">
          <note pos="24" pan="0" len="19" vol="125" key="24"/>
          <note pos="48" pan="0" len="19" vol="125" key="36"/>
          <note pos="72" pan="0" len="19" vol="125" key="24"/>
          <note pos="96" pan="0" len="19" vol="125" key="36"/>
          <note pos="120" pan="0" len="19" vol="125" key="24"/>
          <note pos="144" pan="0" len="19" vol="125" key="36"/>
          <note pos="168" pan="0" len="19" vol="125" key="24"/>
          <note pos="192" pan="0" len="19" vol="125" key="36"/>
          <note pos="216" pan="0" len="19" vol="125" key="29"/>
          <note pos="240" pan="0" len="19" vol="125" key="41"/>
          <note pos="264" pan="0" len="19" vol="125" key="29"/>
          <note pos="288" pan="0" len="19" vol="125" key="41"/>
          <note pos="312" pan="0" len="19" vol="125" key="31"/>
          <note pos="336" pan="0" len="4" vol="125" key="57"/>
          <note pos="348" pan="0" len="4" vol="125" key="57"/>
          <note pos="360" pan="0" len="19" vol="125" key="59"/>
          <note pos="408" pan="0" len="19" vol="125" key="24"/>
          <note pos="432" pan="0" len="19" vol="125" key="36"/>
          <note pos="456" pan="0" len="19" vol="125" key="24"/>
          <note pos="480" pan="0" len="19" vol="125" key="36"/>
          <note pos="504" pan="0" len="19" vol="125" key="24"/>
          <note pos="528" pan="0" len="19" vol="125" key="36"/>
          <note pos="552" pan="0" len="19" vol="125" key="24"/>
          <note pos="576" pan="0" len="19" vol="125" key="36"/>
          <note pos="600" pan="0" len="19" vol="125" key="29"/>
          <note pos="624" pan="0" len="19" vol="125" key="41"/>
          <note pos="648" pan="0" len="19" vol="125" key="29"/>
          <note pos="672" pan="0" len="19" vol="125" key="41"/>
          <note pos="696" pan="0" len="19" vol="125" key="31"/>
          <note pos="744" pan="0" len="48" vol="125" key="59"/>
          <note pos="792" pan="0" len="19" vol="125" key="33"/>
          <note pos="816" pan="0" len="12" vol="100" key="45"/>
          <note pos="828" pan="0" len="12" vol="100" key="45"/>
          <note pos="840" pan="0" len="19" vol="125" key="33"/>
          <note pos="864" pan="0" len="12" vol="100" key="45"/>
          <note pos="876" pan="0" len="12" vol="100" key="45"/>
          <note pos="888" pan="0" len="19" vol="125" key="31"/>
          <note pos="912" pan="0" len="12" vol="100" key="43"/>
          <note pos="924" pan="0" len="12" vol="100" key="43"/>
          <note pos="936" pan="0" len="19" vol="125" key="31"/>
          <note pos="960" pan="0" len="12" vol="100" key="43"/>
          <note pos="972" pan="0" len="12" vol="100" key="43"/>
          <note pos="984" pan="0" len="19" vol="125" key="29"/>
          <note pos="1008" pan="0" len="12" vol="100" key="41"/>
          <note pos="1020" pan="0" len="12" vol="100" key="36"/>
          <note pos="1032" pan="0" len="19" vol="125" key="29"/>
          <note pos="1056" pan="0" len="12" vol="100" key="41"/>
          <note pos="1068" pan="0" len="12" vol="100" key="36"/>
          <note pos="1080" pan="0" len="12" vol="100" key="29"/>
          <note pos="1092" pan="0" len="12" vol="100" key="29"/>
          <note pos="1104" pan="0" len="12" vol="100" key="31"/>
          <note pos="1128" pan="0" len="12" vol="100" key="29"/>
          <note pos="1152" pan="0" len="19" vol="125" key="31"/>
          <note pos="1176" pan="0" len="19" vol="125" key="33"/>
          <note pos="1200" pan="0" len="12" vol="100" key="45"/>
          <note pos="1212" pan="0" len="12" vol="100" key="45"/>
          <note pos="1224" pan="0" len="19" vol="125" key="33"/>
          <note pos="1248" pan="0" len="12" vol="100" key="45"/>
          <note pos="1260" pan="0" len="12" vol="100" key="45"/>
          <note pos="1272" pan="0" len="19" vol="125" key="31"/>
          <note pos="1296" pan="0" len="12" vol="100" key="43"/>
          <note pos="1308" pan="0" len="12" vol="100" key="43"/>
          <note pos="1320" pan="0" len="19" vol="125" key="31"/>
          <note pos="1344" pan="0" len="12" vol="100" key="43"/>
          <note pos="1356" pan="0" len="12" vol="100" key="43"/>
          <note pos="1368" pan="0" len="19" vol="125" key="29"/>
          <note pos="1392" pan="0" len="12" vol="100" key="41"/>
          <note pos="1404" pan="0" len="12" vol="100" key="36"/>
          <note pos="1416" pan="0" len="19" vol="125" key="29"/>
          <note pos="1440" pan="0" len="12" vol="100" key="41"/>
          <note pos="1452" pan="0" len="12" vol="100" key="36"/>
        </pattern>
        <pattern pos="1536" name="Bass" muted="0" type="1" steps="16">
          <note pos="24" pan="0" len="19" vol="125" key="24"/>
          <note pos="48" pan="0" len="19" vol="125" key="36"/>
          <note pos="72" pan="0" len="19" vol="125" key="24"/>
          <note pos="96" pan="0" len="19" vol="125" key="36"/>
          <note pos="120" pan="0" len="19" vol="125" key="24"/>
          <note pos="144" pan="0" len="19" vol="125" key="36"/>
          <note pos="168" pan="0" len="19" vol="125" key="24"/>
          <note pos="192" pan="0" len="19" vol="125" key="36"/>
          <note pos="216" pan="0" len="19" vol="125" key="29"/>
          <note pos="240" pan="0" len="19" vol="125" key="41"/>
          <note pos="264" pan="0" len="19" vol="125" key="29"/>
          <note pos="288" pan="0" len="19" vol="125" key="41"/>
          <note pos="312" pan="0" len="19" vol="125" key="31"/>
          <note pos="336" pan="0" len="4" vol="125" key="57"/>
          <note pos="348" pan="0" len="4" vol="125" key="57"/>
          <note pos="360" pan="0" len="19" vol="125" key="59"/>
          <note pos="408" pan="0" len="19" vol="125" key="24"/>
          <note pos="432" pan="0" len="19" vol="125" key="36"/>
          <note pos="456" pan="0" len="19" vol="125" key="24"/>
          <note pos="480" pan="0" len="19" vol="125" key="36"/>
          <note pos="504" pan="0" len="19" vol="125" key="24"/>
          <note pos="528" pan="0" len="19" vol="125" key="36"/>
          <note pos="552" pan="0" len="19" vol="125" key="24"/>
          <note pos="576" pan="0" len="19" vol="125" key="36"/>
          <note pos="600" pan="0" len="19" vol="125" key="29"/>
          <note pos="624" pan="0" len="19" vol="125" key="41"/>
          <note pos="648" pan="0" len="19" vol="125" key="29"/>
          <note pos="672" pan="0" len="19" vol="125" key="41"/>
          <note pos="696" pan="0" len="19" vol="125" key="31"/>
          <note pos="744" pan="0" len="48" vol="125" key="59"/>
          <note pos="792" pan="0" len="19" vol="125" key="33"/>
          <note pos="816" pan="0" len="12" vol="100" key="45"/>
          <note pos="828" pan="0" len="12" vol="100" key="45"/>
          <note pos="840" pan="0" len="19" vol="125" key="33"/>
          <note pos="864" pan="0" len="12" vol="100" key="45"/>
          <note pos="876" pan="0" len="12" vol="100" key="45"/>
          <note pos="888" pan="0" len="19" vol="125" key="31"/>
          <note pos="912" pan="0" len="12" vol="100" key="43"/>
          <note pos="924" pan="0" len="12" vol="100" key="43"/>
          <note pos="936" pan="0" len="19" vol="125" key="31"/>
          <note pos="960" pan="0" len="12" vol="100" key="43"/>
          <note pos="972" pan="0" len="12" vol="100" key="43"/>
          <note pos="984" pan="0" len="19" vol="125" key="29"/>
          <note pos="1008" pan="0" len="12" vol="100" key="41"/>
          <note pos="1020" pan="0" len="12" vol="100" key="36"/>
          <note pos="1032" pan="0" len="19" vol="125" key="29"/>
          <note pos="1056" pan="0" len="12" vol="100" key="41"/>
          <note pos="1068" pan="0" len="12" vol="100" key="36"/>
          <note pos="1080" pan="0" len="12" vol="100" key="29"/>
          <note pos="1092" pan="0" len="12" vol="100" key="29"/>
          <note pos="1104" pan="0" len="12" vol="100" key="31"/>
          <note pos="1128" pan="0" len="12" vol="100" key="29"/>
          <note pos="1152" pan="0" len="19" vol="125" key="31"/>
          <note pos="1176" pan="0" len="19" vol="125" key="33"/>
          <note pos="1200" pan="0" len="12" vol="100" key="45"/>
          <note pos="1212" pan="0" len="12" vol="100" key="45"/>
          <note pos="1224" pan="0" len="19" vol="125" key="33"/>
          <note pos="1248" pan="0" len="12" vol="100" key="45"/>
          <note pos="1260" pan="0" len="12" vol="100" key="45"/>
          <note pos="1272" pan="0" len="19" vol="125" key="31"/>
          <note pos="1296" pan="0" len="12" vol="100" key="43"/>
          <note pos="1308" pan="0" len="12" vol="100" key="43"/>
          <note pos="1320" pan="0" len="19" vol="125" key="31"/>
          <note pos="1344" pan="0" len="12" vol="100" key="43"/>
          <note pos="1356" pan="0" len="12" vol="100" key="43"/>
          <note pos="1368" pan="0" len="19" vol="125" key="29"/>
          <note pos="1392" pan="0" len="12" vol="100" key="41"/>
          <note pos="1404" pan="0" len="12" vol="100" key="36"/>
          <note pos="1416" pan="0" len="19" vol="125" key="29"/>
          <note pos="1440" pan="0" len="12" vol="100" key="41"/>
          <note pos="1452" pan="0" len="12" vol="100" key="36"/>
        </pattern>
        <pattern pos="3072" name="Bass" muted="0" type="1" steps="16">
          <note pos="24" pan="0" len="19" vol="125" key="24"/>
          <note pos="48" pan="0" len="19" vol="125" key="36"/>
          <note pos="72" pan="0" len="19" vol="125" key="24"/>
          <note pos="96" pan="0" len="19" vol="125" key="36"/>
          <note pos="120" pan="0" len="19" vol="125" key="24"/>
          <note pos="144" pan="0" len="19" vol="125" key="36"/>
          <note pos="168" pan="0" len="19" vol="125" key="24"/>
          <note pos="192" pan="0" len="19" vol="125" key="36"/>
          <note pos="216" pan="0" len="19" vol="125" key="29"/>
          <note pos="240" pan="0" len="19" vol="125" key="41"/>
          <note pos="264" pan="0" len="19" vol="125" key="29"/>
          <note pos="288" pan="0" len="19" vol="125" key="41"/>
          <note pos="312" pan="0" len="19" vol="125" key="31"/>
          <note pos="336" pan="0" len="4" vol="125" key="57"/>
          <note pos="348" pan="0" len="4" vol="125" key="57"/>
          <note pos="360" pan="0" len="19" vol="125" key="59"/>
          <note pos="408" pan="0" len="19" vol="125" key="24"/>
          <note pos="432" pan="0" len="19" vol="125" key="36"/>
          <note pos="456" pan="0" len="19" vol="125" key="24"/>
          <note pos="480" pan="0" len="19" vol="125" key="36"/>
          <note pos="504" pan="0" len="19" vol="125" key="24"/>
          <note pos="528" pan="0" len="19" vol="125" key="36"/>
          <note pos="552" pan="0" len="19" vol="125" key="24"/>
          <note pos="576" pan="0" len="19" vol="125" key="36"/>
          <note pos="600" pan="0" len="19" vol="125" key="29"/>
          <note pos="624" pan="0" len="19" vol="125" key="41"/>
          <note pos="648" pan="0" len="19" vol="125" key="29"/>
          <note pos="672" pan="0" len="19" vol="125" key="41"/>
          <note pos="696" pan="0" len="19" vol="125" key="31"/>
          <note pos="744" pan="0" len="48" vol="125" key="59"/>
          <note pos="792" pan="0" len="19" vol="125" key="33"/>
          <note pos="816" pan="0" len="12" vol="100" key="45"/>
          <note pos="828" pan="0" len="12" vol="100" key="45"/>
          <note pos="840" pan="0" len="19" vol="125" key="33"/>
          <note pos="864" pan="0" len="12" vol="100" key="45"/>
          <note pos="876" pan="0" len="12" vol="100" key="45"/>
          <note pos="888" pan="0" len="19" vol="125" key="31"/>
          <note pos="912" pan="0" len="12" vol="100" key="43"/>
          <note pos="924" pan="0" len="12" vol="100" key="43"/>
          <note pos="936" pan="0" len="19" vol="125" key="31"/>
          <note pos="960" pan="0" len="12" vol="100" key="43"/>
          <note pos="972" pan="0" len="12" vol="100" key="43"/>
          <note pos="984" pan="0" len="19" vol="125" key="29"/>
          <note pos="1008" pan="0" len="12" vol="100" key="41"/>
          <note pos="1020" pan="0" len="12" vol="100" key="36"/>
          <note pos="1032" pan="0" len="19" vol="125" key="29"/>
          <note pos="1056" pan="0" len="12" vol="100" key="41"/>
          <note pos="1068" pan="0" len="12" vol="100" key="36"/>
          <note pos="1080" pan="0" len="12" vol="100" key="29"/>
          <note pos="1092" pan="0" len="12" vol="100" key="29"/>
          <note pos="1104" pan="0" len="12" vol="100" key="31"/>
          <note pos="1128" pan="0" len="12" vol="100" key="29"/>
          <note pos="1152" pan="0" len="19" vol="125" key="31"/>
          <note pos="1176" pan="0" len="19" vol="125" key="33"/>
          <note pos="1200" pan="0" len="12" vol="100" key="45"/>
          <note pos="1212" pan="0" len="12" vol="100" key="45"/>
          <note pos="1224" pan="0" len="19" vol="125" key="33"/>
          <note pos="1248" pan="0" len="12" vol="100" key="45"/>
          <note pos="1260" pan="0" len="12" vol="100" key="45"/>
          <note pos="1272" pan="0" len="19" vol="125" key="31"/>
          <note pos="1296" pan="0" len="12" vol="100" key="43"/>
          <note pos="1308" pan="0" len="12" vol="100" key="43"/>
          <note pos="1320" pan="0" len="19" vol="125" key="31"/>
          <note pos="1344" pan="0" len="12" vol="100" key="43"/>
          <note pos="1356" pan="0" len="12" vol="100" key="43"/>
          <note pos="1368" pan="0" len="19" vol="125" key="29"/>
          <note pos="1392" pan="0" len="12" vol="100" key="41"/>
          <note pos="1404" pan="0" len="12" vol="100" key="36"/>
          <note pos="1416" pan="0" len="19" vol="125" key="29"/>
          <note pos="1440" pan="0" len="12" vol="100" key="41"/>
          <note pos="1452" pan="0" len="12" vol="100" key="36"/>
        </pattern>
      </track>
      <track solo="0" name="Automation track" muted="0" type="5">
        <automationtrack/>
        <automationpattern pos="0" name="Bass>Pitch" tens="1" len="192" mute="0" prog="0">
          <time pos="0" value="0"/>
          <object id="7508325"/>
        </automationpattern>
        <automationpattern pos="576" name="Trumpet>Pitch" tens="1" len="384" mute="0" prog="0">
          <time pos="0" value="0"/>
          <time pos="190" value="0"/>
          <time pos="192" value="-7.8125"/>
          <time pos="194" value="-12.5"/>
          <time pos="195" value="-17.1875"/>
          <time pos="196" value="-21.875"/>
          <time pos="197" value="-26.5625"/>
          <time pos="198" value="-31.25"/>
          <time pos="199" value="-34.375"/>
          <time pos="200" value="-39.0625"/>
          <time pos="201" value="-43.75"/>
          <time pos="202" value="-48.4375"/>
          <time pos="204" value="-57.8125"/>
          <time pos="206" value="-62.5"/>
          <time pos="207" value="-65.625"/>
          <time pos="208" value="-70.3125"/>
          <time pos="209" value="-75"/>
          <time pos="210" value="-79.6875"/>
          <time pos="211" value="-84.375"/>
          <time pos="212" value="-89.0625"/>
          <time pos="213" value="-93.75"/>
          <time pos="214" value="-98.4375"/>
          <time pos="216" value="0"/>
          <object id="7508325"/>
        </automationpattern>
        <automationpattern pos="2112" name="Trumpet>Pitch" tens="1" len="384" mute="0" prog="0">
          <time pos="0" value="0"/>
          <time pos="190" value="0"/>
          <time pos="192" value="-7.8125"/>
          <time pos="194" value="-12.5"/>
          <time pos="195" value="-17.1875"/>
          <time pos="196" value="-21.875"/>
          <time pos="197" value="-26.5625"/>
          <time pos="198" value="-31.25"/>
          <time pos="199" value="-34.375"/>
          <time pos="200" value="-39.0625"/>
          <time pos="201" value="-43.75"/>
          <time pos="202" value="-48.4375"/>
          <time pos="204" value="-57.8125"/>
          <time pos="206" value="-62.5"/>
          <time pos="207" value="-65.625"/>
          <time pos="208" value="-70.3125"/>
          <time pos="209" value="-75"/>
          <time pos="210" value="-79.6875"/>
          <time pos="211" value="-84.375"/>
          <time pos="212" value="-89.0625"/>
          <time pos="213" value="-93.75"/>
          <time pos="214" value="-98.4375"/>
          <time pos="216" value="0"/>
          <object id="7508325"/>
        </automationpattern>
        <automationpattern pos="3648" name="Trumpet>Pitch" tens="1" len="384" mute="0" prog="0">
          <time pos="0" value="0"/>
          <time pos="190" value="0"/>
          <time pos="192" value="-7.8125"/>
          <time pos="194" value="-12.5"/>
          <time pos="195" value="-17.1875"/>
          <time pos="196" value="-21.875"/>
          <time pos="197" value="-26.5625"/>
          <time pos="198" value="-31.25"/>
          <time pos="199" value="-34.375"/>
          <time pos="200" value="-39.0625"/>
          <time pos="201" value="-43.75"/>
          <time pos="202" value="-48.4375"/>
          <time pos="204" value="-57.8125"/>
          <time pos="206" value="-62.5"/>
          <time pos="207" value="-65.625"/>
          <time pos="208" value="-70.3125"/>
          <time pos="209" value="-75"/>
          <time pos="210" value="-79.6875"/>
          <time pos="211" value="-84.375"/>
          <time pos="212" value="-89.0625"/>
          <time pos="213" value="-93.75"/>
          <time pos="214" value="-98.4375"/>
          <time pos="216" value="0"/>
          <object id="7508325"/>
        </automationpattern>
      </track>
    </trackcontainer>
    <track solo="0" name="Automation track" muted="0" type="6">
      <automationtrack/>
      <automationpattern pos="0" name="Numerator" tens="1" len="192" mute="0" prog="0"/>
      <automationpattern pos="0" name="Denominator" tens="1" len="192" mute="0" prog="0"/>
      <automationpattern pos="0" name="Tempo" tens="1" len="192" mute="0" prog="0"/>
      <automationpattern pos="0" name="Master volume" tens="1" len="192" mute="0" prog="0"/>
      <automationpattern pos="0" name="Master pitch" tens="1" len="192" mute="0" prog="0"/>
      <automationpattern pos="0" name="Numerator" tens="1" len="4800" mute="0" prog="0">
        <time pos="0" value="4"/>
        <time pos="1344" value="7"/>
        <time pos="1536" value="4"/>
        <time pos="4608" value="7"/>
        <time pos="4752" value="4"/>
        <object id="3775976"/>
      </automationpattern>
      <automationpattern pos="0" name="Denominator" tens="1" len="4800" mute="0" prog="0">
        <time pos="0" value="4"/>
        <time pos="1344" value="8"/>
        <time pos="1536" value="4"/>
        <time pos="4608" value="8"/>
        <time pos="4752" value="4"/>
        <object id="963765"/>
      </automationpattern>
      <automationpattern pos="0" name="Tempo" tens="1" len="0" mute="0" prog="0">
        <time pos="0" value="150"/>
        <object id="3706148"/>
      </automationpattern>
    </track>
    <fxmixer height="333" visible="1" minimized="0" maximized="0" x="5" width="543" y="310">
      <fxchannel soloed="0" name="Master" muted="0" num="0" volume="1">
        <fxchain enabled="0" numofeffects="0"/>
      </fxchannel>
    </fxmixer>
    <ControllerRackView height="200" visible="1" minimized="0" maximized="0" x="680" width="350" y="310"/>
    <pianoroll height="480" visible="1" minimized="0" maximized="1" x="5" width="860" y="5"/>
    <automationeditor height="400" visible="0" minimized="0" maximized="1" x="1" width="860" y="1"/>
    <projectnotes height="400" visible="0" minimized="0" maximized="0" x="700" width="819" y="10"><![CDATA[<!DOCTYPE HTML PUBLIC "-//W3C//DTD HTML 4.0//EN" "http://www.w3.org/TR/REC-html40/strict.dtd">
<html><head><meta name="qrichtext" content="1" /><style type="text/css">
p, li { white-space: pre-wrap; }
</style></head><body style=" font-family:'agave Nerd Font'; font-size:11pt; font-weight:400; font-style:normal;">
<p style="-qt-paragraph-type:empty; margin-top:0px; margin-bottom:0px; margin-left:0px; margin-right:0px; -qt-block-indent:0; text-indent:0px; font-family:'Ubuntu';"><br /></p></body></html>]]></projectnotes>
    <timeline lp0pos="0" lp1pos="4608" lpstate="1"/>
    <controllers/>
  </song>
</lmms-project>
